<?xml version="1.0" standalone="no"?>
<!DOCTYPE svg PUBLIC "-//W3C//DTD SVG 1.1//EN" "http://www.w3.org/Graphics/SVG/1.1/DTD/svg11.dtd">
<svg xmlns="http://www.w3.org/2000/svg"><metadata>This SVG WebFont was generated by YouWorkForThem.
 2013 Kyle Wayne</metadata><defs><font horiz-adv-x="1353" id="ywftsvg"><font-face ascent="1638" bbox="-315 -690 2884 2019" cap-height="1434" descent="-410" font-family="" font-stretch="normal" font-weight="400" panose-1="0 0 5 0 0 0 0 0 0 0" underline-position="0" underline-thickness="0" unicode-range="U+0020-FB02" units-per-em="2048" x-height="1098"/><missing-glyph d="M0 0v1434h1024v-1434h-1024zM512 809l348 522h-696zM573 717l349 -522v1044zM164 102h696l-348 523zM102 1239v-1044l349 522z" horiz-adv-x="1024"/><glyph d="M592 397v-198l-545 514l545 514v-199h723l-158 -315l158 -316h-723z" glyph-name="arrowleft" horiz-adv-x="1361" unicode="&lt;-"/><glyph d="M719 397h-725l160 316l-160 315h725v199l545 -514l-545 -514v198z" glyph-name="arrowright" horiz-adv-x="1361" unicode="->"/><glyph d="M1260 1098v-1098h-226v903h-524v-903h-225v903h-195v195h195v45q0 233 149.5 354t359.5 121t425 -129l-82 -184q-158 119 -328 118q-127 0 -213 -72.5t-86 -209.5v-43h750z" glyph-name="uniFB01" horiz-adv-x="1431" unicode="fi"/><glyph d="M768 1599q222 0 455 -174v-1425h-228v1331q-119 74 -233.5 74t-198.5 -67.5t-84 -200.5v-39h260l-2 -195h-258v-903h-225v903h-164v195h164v41q0 223 146 341.5t368 118.5z" glyph-name="uniFB02" horiz-adv-x="1411" unicode="fl"/><glyph d="M1171 1147v-49h269v-195h-269v-903h-225v903h-467v-903h-225v903h-164v195h164v65q0 211 124 316.5t298 105.5q123 0 242 -53l-68 -156q-74 35 -160 34t-148.5 -63.5t-62.5 -189.5v-59h467v47q0 214 129 315t285 101t305 -80l-66 -160q-100 65 -199 62t-164 -58t-65 -178 z" glyph-name="f_f.liga" horiz-adv-x="1542" unicode="ff"/><glyph d="M1566 -20q-166 0 -276 113.5t-110 297.5v512h-672v-504q0 -113 57.5 -167t150.5 -56t204 70l65 -180q-149 -86 -315 -86t-276.5 113.5t-110.5 297.5v512h-222v195h222v336h225v-336h672v336h225v-336h354v-195h-354v-504q0 -113 57.5 -167t150.5 -56t204 70l65 -180 q-150 -86 -316 -86z" glyph-name="t_t.liga" horiz-adv-x="1914" unicode="tt"/><glyph d="M0 0v1434h1024v-1434h-1024zM512 809l348 522h-696zM573 717l349 -522v1044zM164 102h696l-348 523zM102 1239v-1044l349 522z" glyph-name=".notdef" horiz-adv-x="1024"/><glyph glyph-name="glyph1" horiz-adv-x="0"/><glyph glyph-name="glyph2" horiz-adv-x="681"/><glyph glyph-name="space" horiz-adv-x="737" unicode=" "/><glyph d="M440 391h-198l-23 1045h252zM337 250q54 0 93 -40t39 -94t-39 -92t-92 -38t-92 37.5t-39 93t38 94.5t92 39z" glyph-name="exclam" horiz-adv-x="681" unicode="!"/><glyph d="M264 1546v-160l-33 -165h-120l-33 165v160h186zM528 1546v-160l-30 -165h-121l-35 165v160h186z" glyph-name="quotedbl" horiz-adv-x="606" unicode="&quot;"/><glyph d="M1427 483v-184h-315l-37 -299h-188l37 299h-361l-37 -299h-188l37 299h-260v184h284l43 344h-266v183h289l37 303h188l-37 -303h361l37 303h188l-37 -303h287v-183h-309l-43 -344h290zM991 827h-360l-43 -344h360z" glyph-name="numbersign" horiz-adv-x="1601" unicode="#"/><glyph d="M504 836q20 -6 132 -28t169 -43.5t145 -76t64 -207.5q-23 -153 -135.5 -230t-268.5 -83l-22 -143l-156 26l21 131q-182 37 -344 144l81 174q195 -133 416 -133q82 2 140.5 32.5t66.5 82.5t-35.5 82t-117 44t-144.5 31q-141 35 -229 101t-64 197q23 132 131.5 211 t263.5 87l25 147l158 -26l-25 -133q121 -25 256 -103l-69 -162q-160 102 -320 103q-78 -2 -145.5 -30.5t-81.5 -96.5t88 -98z" glyph-name="dollar" horiz-adv-x="1140" unicode="$"/><glyph d="M444 1464q139 0 227.5 -92t88.5 -224t-88 -221t-226 -89t-230.5 88t-92.5 223t91 225t230 90zM455 0h-197l930 1434h196zM446.5 1335q-81.5 0 -135 -54t-53.5 -132t53.5 -132t135 -54t134 54t52.5 132t-52.5 132t-134 54zM1232 606q138 0 227 -93t89 -225t-88 -221.5 t-226 -89.5t-231.5 89.5t-93.5 223.5t92.5 225t230.5 91zM1232 473q-81 0 -132 -53t-51 -130t52 -131.5t132 -54.5t132 54.5t52 130.5t-52 130t-133 54z" glyph-name="percent" horiz-adv-x="1671" unicode="%"/><glyph d="M723 -80q-238 0 -412 120t-174 339q0 170 107.5 273.5t292.5 181.5l-21 22q-123 126 -123 278t122 257.5t294 105.5t281.5 -104.5t109.5 -245.5t-79 -222t-222 -151l287 -297q47 121 47 256h242q2 -258 -109 -444l279 -289h-308l-110 115q-213 -195 -504 -195z M983 1140.5q0 69.5 -48 113.5t-126 44t-128.5 -45t-52.5 -121t113 -192l15 -16q111 47 169 97t58 119.5zM715 137q205 0 348 148l-381 397q-147 -63 -224 -129.5t-77 -176.5t95.5 -174.5t238.5 -64.5z" glyph-name="ampersand" horiz-adv-x="1681" unicode="&amp;"/><glyph d="M264 1546v-160l-33 -165h-120l-33 165v160h186z" glyph-name="quotesingle" horiz-adv-x="342" unicode="'"/><glyph d="M356 612q0 -430 254 -909l-198 -102q-141 270 -219 499.5t-78 506.5t77 511t214 492l198 -101q-248 -467 -248 -897z" glyph-name="parenleft" horiz-adv-x="815" unicode="("/><glyph d="M700 606q0 -277 -77.5 -508t-219.5 -497l-196 102q252 475 252 907t-248 899l201 101q135 -260 211.5 -493.5t76.5 -510.5z" glyph-name="parenright" horiz-adv-x="815" unicode=")"/><glyph d="M569 1245l144 -201l-105 -65l-139 201l-125 -197l-102 72l131 194l-221 47l30 125l228 -53l2 231l131 -2l-6 -227l223 47l33 -127z" glyph-name="asterisk" horiz-adv-x="944" unicode="*"/><glyph d="M817 801h422v-176h-422v-457h-192v457h-416l-2 176h418v454h192v-454z" glyph-name="plus" horiz-adv-x="1447" unicode="+"/><glyph d="M232 227q58 0 101.5 -45t43.5 -132t-74 -154.5t-178 -71.5l8 82q78 14 90 88q-49 -10 -87 22.5t-38 86t38 89t96 35.5z" glyph-name="comma" horiz-adv-x="477" unicode=","/><glyph d="M762 623h-684v190h684v-190z" glyph-name="hyphen" horiz-adv-x="837" unicode="-"/><glyph d="M232 244q54 0 93.5 -40t39.5 -95t-40.5 -94.5t-94.5 -39.5t-93 38.5t-39 94.5t40 96t94 40z" glyph-name="period" horiz-adv-x="464" unicode="."/><glyph d="M328 -231h-209l510 1749h209z" glyph-name="slash" horiz-adv-x="933" unicode="/"/><glyph d="M775 1458q118 0 230.5 -44t210 -129t157 -232.5t59.5 -336t-59.5 -336t-156 -232.5t-209 -129t-231.5 -44t-230.5 44t-208.5 130.5t-155.5 233.5t-58.5 335.5t58.5 335t154.5 232.5t208.5 129t230.5 43zM776 1239q-168 0 -291 -131t-123 -387t123 -392t291 -136t292 134 t124 389t-124 389t-292 134z" glyph-name="zero" horiz-adv-x="1554" unicode="0"/><glyph d="M573 0h-239v1229l-150 -99l-80 134l254 170h215v-1434z" glyph-name="one" horiz-adv-x="813" unicode="1"/><glyph d="M696 1452q194 0 346 -130t152 -329q0 -238 -252 -438l-424 -338h717v-217h-1120v188l657 506q180 139 180 285q0 109 -80.5 182.5t-203.5 73.5q-209 0 -312 -225l-202 110q70 143 209 237.5t333 94.5z" glyph-name="two" horiz-adv-x="1386" unicode="2"/><glyph d="M640 1454q226 0 365.5 -100.5t137.5 -266.5q-2 -119 -77 -206.5t-192 -118.5q139 -20 235.5 -117.5t96.5 -245.5q0 -193 -160.5 -304t-390.5 -111q-291 0 -559 178l94 186q231 -145 449 -145q145 0 235.5 61.5t90.5 151.5t-88.5 152.5t-225.5 62.5h-227v217h213 q119 0 193.5 56.5t74.5 138t-73.5 137t-204.5 55.5q-182 0 -363 -117l-92 195q242 141 468 141z" glyph-name="three" horiz-adv-x="1333" unicode="3"/><glyph d="M1063 522h211v-217h-211v-305h-232v305h-765v168l753 961h244v-912zM838 522v621l-490 -621h490z" glyph-name="four" horiz-adv-x="1366" unicode="4"/><glyph d="M1153 1217h-666l-32 -369q172 108 355 108t312 -121t129 -347t-172 -368.5t-411 -142.5q-281 0 -518 193l110 178q188 -152 393 -149q150 0 253.5 80.5t102.5 212.5t-91.5 206t-227.5 74q-178 0 -368 -133l-109 70l66 725h874v-217z" glyph-name="five" horiz-adv-x="1411" unicode="5"/><glyph d="M1313 491q0 -216 -167 -361.5t-415 -145.5t-437.5 187t-189.5 523q0 186 61.5 335t217.5 286t428 137q223 0 408 -117l-82 -194q-152 98 -312 98q-199 0 -337 -138t-142 -401q76 129 201 202t266 71q207 0 353.5 -133t146.5 -349zM762 201q125 0 217 76.5t92 206.5 t-85 205t-209 75t-232.5 -76t-165.5 -203q47 -137 152.5 -210.5t230.5 -73.5z" glyph-name="six" horiz-adv-x="1415" unicode="6"/><glyph d="M102 1192v242h1055v-215l-686 -1219h-303l698 1192h-764z" glyph-name="seven" horiz-adv-x="1277" unicode="7"/><glyph d="M725 1452q300 4 411 -127t113 -256t-86 -211t-194 -106q125 -25 237.5 -120t114.5 -241q2 -188 -166 -302t-428 -118t-426 109t-168 297q-2 152 109.5 251t232.5 117q-104 23 -188 108t-86 210q-2 172 149.5 279.5t374.5 109.5zM914 1190q-86 57 -198 55t-195 -60.5 t-81 -139.5t81 -134t204 -51t202 56.5t75 135.5t-88 138zM974 570.5q-99 60.5 -250 57.5t-250 -63.5t-98 -155.5t95 -161t254 -63t256 68t94 161t-101 156.5z" glyph-name="eight" horiz-adv-x="1454" unicode="8"/><glyph d="M701 1456q249 0 434.5 -186.5t185.5 -524.5q0 -184 -58.5 -332.5t-207.5 -288.5t-432 -140q-233 0 -426 129l84 192q154 -106 337 -106t318 130t147 378v6q-68 -123 -194.5 -193.5t-272.5 -70.5q-205 0 -352 131t-148 357t167.5 372.5t417.5 146.5zM659 659q128 0 231 71 t165 192q-43 147 -142.5 231t-234.5 84t-230.5 -83t-93.5 -213t89.5 -206t215.5 -76z" glyph-name="nine" horiz-adv-x="1427" unicode="9"/><glyph d="M220 995q52 0 89 -37.5t37 -89.5t-38 -89.5t-88 -37.5t-88 38t-38 90t37 89t89 37zM221 274q51 0 88 -36.5t37 -88.5t-38 -90.5t-88 -38.5t-88 38t-38 90t38 89t89 37z" glyph-name="colon" horiz-adv-x="444" unicode=":"/><glyph d="M229.5 981q53.5 0 92 -39t38.5 -92t-40 -92t-92 -39t-91 39t-39 92t39 92t92.5 39zM262 227q57 0 100.5 -45t43.5 -132t-74 -154.5t-176 -71.5l6 82q78 14 90 88q-49 -10 -86 22.5t-37 86t38 89t95 35.5z" glyph-name="semicolon" horiz-adv-x="501" unicode=";"/><glyph d="M1178 954l-813 -243l813 -244l-50 -195l-1036 351v170l1034 352z" glyph-name="less" horiz-adv-x="1423" unicode="&lt;"/><glyph d="M1202 811h-1001l-2 174h1003v-174zM1202 410h-1001l-2 176h1003v-176z" glyph-name="equal" horiz-adv-x="1400" unicode="="/><glyph d="M1235 793v-170l-1036 -351l-49 195l813 244l-813 243l51 191z" glyph-name="greater" horiz-adv-x="1423" unicode=">"/><glyph d="M1096 1071q0 -86 -31 -151.5t-78 -102.5t-101.5 -78t-100.5 -79.5t-77.5 -110.5t-31.5 -166l-238 -2q0 145 43 251.5t104.5 162t122 96.5t103.5 84t43 98q0 84 -71.5 131t-174.5 37q-180 -20 -266 -227l-199 98q57 150 174 240t267 104q203 18 357.5 -88t154.5 -297z M559 248q53 0 91 -38t38 -91t-39 -91t-91 -38t-90 38t-38 91t38 91t91 38z" glyph-name="question" horiz-adv-x="1329" unicode="?"/><glyph d="M1169 1462q197 0 369 -67.5t295 -187.5t183.5 -299t37.5 -388q-31 -268 -169 -416.5t-306 -144.5q-109 2 -182.5 68.5t-87.5 181.5q-141 -184 -348 -184q-168 0 -288.5 131t-96.5 359t157 350t301 122q203 0 332 -174l18 125l195 2l-68 -623q-8 -170 93 -170 q84 0 157.5 103.5t91.5 271.5q35 319 -168 534.5t-521 215.5t-562 -214t-276 -547t168 -553t514 -220q174 0 331 72l58 -183q-190 -82 -388 -82t-369 73t-293 201t-184.5 311t-43.5 392q25 274 175 491.5t380.5 333t494.5 115.5zM1081 838q-117 0 -203 -87t-100 -227 t63 -229.5t189 -89.5t171 42t106 85l41 362q-115 144 -267 144z" glyph-name="at" horiz-adv-x="2172" unicode="@"/><glyph d="M1145 303h-727l-125 -303h-266l637 1434h231l639 -1434h-264zM1053 522l-275 658l-270 -658h545z" glyph-name="A" horiz-adv-x="1560" unicode="A"/><glyph d="M1229 1085q0 -119 -64.5 -200.5t-177.5 -104.5q160 -25 257 -123t97 -258q0 -190 -157.5 -298.5t-496.5 -108.5t-478 8v1434q286 8 481 4q285 -2 412 -98.5t127 -254.5zM917.5 1185q-67.5 44 -179.5 47t-289 -1v-367q165 -4 293 1t189.5 59.5t57.5 135.5t-71.5 125z M1100 428q0 102 -93 162.5t-288 64.5q-88 2 -270 -2v-452l311 -2q162 4 251 65.5t89 163.5z" glyph-name="B" horiz-adv-x="1439" unicode="B"/><glyph d="M356 708q0 -244 163 -378.5t392 -134.5q186 0 353 94l88 -201q-213 -111 -445 -111q-332 -4 -562 196t-230 530t219 538.5t547 214.5q229 8 458 -96l-79 -203q-174 88 -361 82q-223 -6 -383 -146.5t-160 -384.5z" glyph-name="C" horiz-adv-x="1476" unicode="C"/><glyph d="M558 1438q196 0 355.5 -41t287.5 -123t198.5 -221.5t70.5 -325.5q0 -352 -244.5 -541.5t-666.5 -189.5q-246 0 -352 4v1434q155 4 351 4zM444 1219v-1004q78 -4 164 0q279 6 450 133t171 373q0 137 -55.5 237.5t-193.5 180.5t-374 80h-162z" glyph-name="D" horiz-adv-x="1585" unicode="D"/><glyph d="M1206 1217h-760v-392h580v-204h-580v-404h809v-217h-1048v1434h999v-217z" glyph-name="E" horiz-adv-x="1357" unicode="E"/><glyph d="M1210 1217h-764v-459h555v-213h-555v-545h-239v1434h1003v-217z" glyph-name="F" horiz-adv-x="1288" unicode="F"/><glyph d="M922 180q180 0 342 94v285h-387v211h620v-627q-253 -180 -589 -181t-565.5 211.5t-227.5 534.5t225 538t565 220q233 4 463 -102l-78 -211q-182 102 -397 95t-376 -156.5t-162 -378.5t161 -381t406 -152z" glyph-name="G" horiz-adv-x="1615" unicode="G"/><glyph d="M1477 0h-242v594h-789v-594h-239v1434h239v-621h789v621h242v-1434z" glyph-name="H" horiz-adv-x="1681" unicode="H"/><glyph d="M440 0h-233v1434h233v-1434z" glyph-name="I" horiz-adv-x="647" unicode="I"/><glyph d="M715 1434v-732q0 -381 -174 -559t-510 -178l-4 217q215 4 330.5 137.5t115.5 389.5v725h242z" glyph-name="J" horiz-adv-x="888" unicode="J"/><glyph d="M444 0h-237v1434h237v-797l662 797h278l-512 -611l592 -823h-295l-446 641l-279 -328v-313z" glyph-name="K" horiz-adv-x="1443" unicode="K"/><glyph d="M446 217h756v-217h-995v1434h239v-1217z" glyph-name="L" horiz-adv-x="1214" unicode="L"/><glyph d="M1860 0h-248v1044l-586 -778l-575 781v-1047h-244v1434h227l590 -793l604 793h232v-1434z" glyph-name="M" horiz-adv-x="2064" unicode="M"/><glyph d="M1499 0h-223l-830 1055v-1055h-239v1434h237l813 -1043v1043h242v-1434z" glyph-name="N" horiz-adv-x="1705" unicode="N"/><glyph d="M876 1458q329 0 544.5 -208t215.5 -538t-209.5 -542.5t-546.5 -212.5t-551 210t-214 543t216 540.5t545 207.5zM876.5 1241q-231.5 0 -375 -147.5t-143.5 -383.5t142.5 -385t378 -149t376 150.5t140.5 384t-143.5 382t-375 148.5z" glyph-name="O" horiz-adv-x="1751" unicode="O"/><glyph d="M207 0v1434q303 8 440 8q330 0 512 -133t183 -387t-166.5 -389.5t-419.5 -145.5q-143 -6 -310 -6v-381h-239zM446 1223v-623q190 0 279 2q178 6 277.5 86t99.5 218t-104.5 224.5t-274.5 90.5q-80 2 -277 2z" glyph-name="P" horiz-adv-x="1411" unicode="P"/><glyph d="M115 709q0 334 216 541.5t545 207.5t544.5 -208t215.5 -539q0 -289 -166.5 -493t-445.5 -249q53 -29 166 -122t178 -105q129 -18 215 123l139 -111q-125 -254 -379 -215q-74 12 -147.5 54t-161.5 121t-182 102q-147 27 -231 -129l-140 118q63 125 172 181 q-246 66 -392 259t-146 464zM358 710q0 -237 143.5 -386.5t378.5 -149.5t375 151.5t140 385.5t-143.5 382t-375 148t-375 -147t-143.5 -384z" glyph-name="Q" horiz-adv-x="1794" unicode="Q"/><glyph d="M446 0h-239v1434q344 4 475 4q295 0 467 -145.5t172 -383.5q2 -295 -256 -434l262 -475h-274l-222 399q-68 -10 -124 -10l-261 2v-391zM446 1225v-619q137 -2 261 0q174 10 274 91t100 218t-109.5 219.5t-279.5 86.5q-88 4 -246 4z" glyph-name="R" horiz-adv-x="1470" unicode="R"/><glyph d="M729 1456q231 0 461 -108l-72 -209q-197 100 -391 100q-133 0 -218 -50t-83 -140q0 -59 45.5 -93.5t97.5 -50.5t100 -29.5t156 -39.5q217 -51 344 -140.5t127 -275.5q2 -215 -157.5 -331t-405.5 -120q-317 -4 -596 162l88 201q250 -145 490 -142q152 2 243 61.5t93 154.5 q0 54 -21.5 79t-37 39.5t-44 27.5t-51.5 21.5t-61.5 18.5t-64.5 16t-73 17t-110 27q-163 40 -283.5 123t-124.5 263q-2 205 158 311.5t391 106.5z" glyph-name="S" horiz-adv-x="1411" unicode="S"/><glyph d="M1251 1217h-499v-1217h-240v1217h-500v217h1239v-217z" glyph-name="T" horiz-adv-x="1263" unicode="T"/><glyph d="M1475 1434v-803q0 -313 -184.5 -493.5t-460.5 -180.5t-465 174t-189 492v811h240v-820q0 -201 109.5 -318.5t298 -117.5t300 120t111.5 318v818h240z" glyph-name="U" horiz-adv-x="1650" unicode="U"/><glyph d="M891 0h-258l-653 1434h258l522 -1168l512 1168h256z" glyph-name="V" horiz-adv-x="1509" unicode="V"/><glyph d="M1739 0h-230l-389 1071l-368 -1071h-232l-481 1434h242l358 -1119l379 1119h201l397 -1119l334 1119h241z" glyph-name="W" horiz-adv-x="2230" unicode="W"/><glyph d="M754 557l-396 -557h-286l522 737l-492 697h287l365 -519l376 519h285l-500 -699l521 -735h-287z" glyph-name="X" horiz-adv-x="1503" unicode="X"/><glyph d="M913 0h-260l-2 569l-588 865h291l430 -646l433 646h288l-592 -871v-563z" glyph-name="Y" horiz-adv-x="1568" unicode="Y"/><glyph d="M1339 219v-219h-1237v199l920 1020h-877v215h1188v-207l-905 -1008h911z" glyph-name="Z" horiz-adv-x="1445" unicode="Z"/><glyph d="M379 1415v-1603h182v-138h-411v1880h413l-2 -139h-182z" glyph-name="bracketleft" horiz-adv-x="737" unicode="["/><glyph d="M250 1495l510 -1751l-176 -45l-512 1751z" glyph-name="backslash" horiz-adv-x="899" unicode="\"/><glyph d="M539 1554v-1880h-414v138h182v1603h-182l-2 139h416z" glyph-name="bracketright" horiz-adv-x="737" unicode="]"/><glyph d="M584 1434h123l495 -691h-219l-336 492l-338 -492h-221z" glyph-name="asciicircum" horiz-adv-x="1290" unicode="^"/><glyph d="M711 -166h-684v166h684v-166z" glyph-name="underscore" horiz-adv-x="735" unicode="_"/><glyph d="M993 1655l-170 -70l-190 318l225 36z" glyph-name="grave" horiz-adv-x="1294" unicode="`"/><glyph d="M1206 1098v-1098h-207l-6 150q-55 -72 -146 -119t-206 -47q-215 0 -377 161.5t-162 413.5t154 403.5t362 151.5q121 0 216.5 -52t152.5 -136l4 172h215zM659 924q-141 0 -242.5 -100.5t-101.5 -264.5t105.5 -270.5t255.5 -106.5q186 0 311 154v399q-127 189 -328 189z " glyph-name="a" horiz-adv-x="1363" unicode="a"/><glyph d="M1329 559q0 -264 -160.5 -419.5t-365.5 -155.5t-393 170l-7 -154h-213l3 1481h225l-2 -561q184 194 400 194t364.5 -145.5t148.5 -409.5zM766 915q-197 0 -350 -192v-373q137 -164 323 -166q152 -2 258.5 103.5t106.5 267.5t-98.5 261t-239.5 99z" glyph-name="b" horiz-adv-x="1431" unicode="b"/><glyph d="M734 932q-177 0 -290.5 -109.5t-114.5 -274.5t113.5 -270.5t287.5 -105.5t310 133l111 -155q-197 -170 -445 -170t-425 151.5t-179 417.5q0 180 91.5 314t228.5 197.5t295 65.5q233 0 424 -147l-103 -174q-127 127 -304 127z" glyph-name="c" horiz-adv-x="1241" unicode="c"/><glyph d="M1241 1481v-1481h-213l-6 154q-184 -170 -391 -170t-368 155.5t-161 419.5t149.5 409.5t364.5 145.5t400 -194v561h225zM666 915q-141 0 -239.5 -99t-98.5 -261t107.5 -267.5t258.5 -103.5q184 2 322 166v373q-153 192 -350 192z" glyph-name="d" horiz-adv-x="1431" unicode="d"/><glyph d="M739 -18q-264 0 -450.5 152.5t-186.5 417.5t175 423.5t425 154.5q190 -2 329.5 -99t196 -248.5t17.5 -317.5l-907 2q29 -141 140.5 -217t264.5 -74q213 2 377 152l113 -164q-82 -74 -209 -128t-285 -54zM338 651h690q8 115 -83 199t-235 85t-244.5 -74t-127.5 -210z" glyph-name="e" unicode="e"/><glyph d="M479 1147v-49h269v-195h-269v-903h-225v903h-164v195h164v47q0 214 129 315t284 101q154 0 308 -80l-66 -160q-102 63 -201 61t-164 -57t-65 -178z" glyph-name="f" horiz-adv-x="849" unicode="f"/><glyph d="M616 1114q213 0 383 -180l9 164h215v-1059q0 -139 -49.5 -244.5t-169.5 -191.5t-347 -86t-448 129l76 172q176 -106 345 -106t268 77.5t99 237.5v139q-153 -166 -367 -166t-371 149.5t-157 411.5t150.5 407.5t363.5 145.5zM670 918q-147 0 -244.5 -98.5t-97.5 -257.5 t104 -258t268 -99t297 137v420q-139 156 -327 156z" glyph-name="g" horiz-adv-x="1378" unicode="g"/><glyph d="M416 1485v-602q188 238 418 237q182 0 313 -126t131 -365v-629h-225v612q0 139 -79 220t-198 81q-201 0 -360 -239v-674h-226v1485h226z" glyph-name="h" horiz-adv-x="1417" unicode="h"/><glyph d="M298 1544q56 0 97 -39t41 -94t-41 -93t-96 -38t-95 38t-40 93t39 94t95 39zM412 0h-226v1098h226v-1098z" glyph-name="i" horiz-adv-x="600" unicode="i"/><glyph d="M295 1530q53 0 90 -35t37 -85t-38 -85t-90 -35t-89 35t-37 84t37 85t90 36zM408 1098v-1147q0 -213 -127 -324.5t-287 -111.5t-309 79l71 175q92 -59 192 -57t166 59t68 184v1143h226z" glyph-name="j" horiz-adv-x="573" unicode="j"/><glyph d="M414 0h-224v1481h224v-936l499 553h291l-416 -449l480 -649h-293l-340 485l-221 -237v-248z" glyph-name="k" horiz-adv-x="1284" unicode="k"/><glyph d="M416 0h-226v1481h226v-1481z" glyph-name="l" horiz-adv-x="606" unicode="l"/><glyph d="M1532 1126q146 0 260.5 -112.5t114.5 -311.5v-702h-226v670q0 117 -62.5 185.5t-162.5 68.5t-182 -75t-129 -173v-676h-225v670q0 117 -65 185.5t-159 68.5t-177 -73t-138 -171v-680h-225v1098h219v-224q63 102 163.5 177t223.5 75t223 -70.5t133 -189.5 q61 104 164.5 182t249.5 78z" glyph-name="m" horiz-adv-x="2048" unicode="m"/><glyph d="M799 1120q180 0 299 -127t119 -350v-643h-226v625q0 135 -69.5 215t-188.5 80q-199 0 -352 -230v-690h-225v1098h219l6 -209q193 231 418 231z" glyph-name="n" horiz-adv-x="1357" unicode="n"/><glyph d="M691 1126q249 0 420 -156.5t171 -420.5t-174 -414.5t-418 -150.5t-416 153.5t-172 410.5t170 417.5t419 160.5zM692 930q-152 0 -257 -101.5t-105 -276.5t105.5 -273.5t255.5 -99.5t257 97.5t107 277.5t-105.5 277.5t-257.5 98.5z" glyph-name="o" horiz-adv-x="1384" unicode="o"/><glyph d="M773 1114q212 0 359.5 -145.5t147.5 -403.5q0 -145 -48 -260t-167 -218t-319 -103q-201 0 -371 151v-514h-219l2 1477h215l8 -164q180 180 392 180zM719 913q-98 0 -187.5 -47t-150.5 -118v-426q139 -139 324 -140q145 0 247.5 100.5t102.5 271.5t-98.5 265t-237.5 94z " glyph-name="p" horiz-adv-x="1382" unicode="p"/><glyph d="M1227 1098v-1477h-219v526q-160 -163 -378 -163t-373 144t-155 418.5t155 421t376 146.5t368 -186l11 170h215zM676 913q-141 0 -244.5 -94t-103.5 -266t102 -271.5t263 -99.5t311 137l-3 431q-132 163 -325 163z" glyph-name="q" horiz-adv-x="1382" unicode="q"/><glyph d="M687 1118q83 0 161 -37l-53 -192q-55 31 -115 31q-176 0 -299 -226v-694h-225v1098h206l9 -199q59 109 146 164t170 55z" glyph-name="r" horiz-adv-x="864" unicode="r"/><glyph d="M621 936q-111 0 -178.5 -42t-67.5 -108q0 -43 38 -68t80 -32.5t68.5 -12.5t167 -26t259 -100.5t119.5 -243.5t-138.5 -248t-341.5 -84q-270 2 -516 144l79 178q203 -129 437 -125q111 0 184.5 37t71.5 104q0 92 -108.5 111.5t-160 30t-106.5 20.5q-130 24 -244 89.5 t-115 227.5t133.5 253t340.5 89t403 -92l-55 -186q-174 84 -350 84z" glyph-name="s" horiz-adv-x="1214" unicode="s"/><glyph d="M508 1098h354v-195h-354v-504q0 -113 57.5 -167t150.5 -56t204 70l65 -180q-149 -86 -315 -86t-276.5 113.5t-110.5 297.5v512h-222v195h222v336h225v-336z" glyph-name="t" horiz-adv-x="1017" unicode="t"/><glyph d="M1198 0h-209l-10 172q-186 -207 -420 -207q-172 0 -292 119t-120 330v684h226v-674q0 -123 72.5 -192.5t181 -69.5t198.5 65.5t148 153.5v717h225v-1098z" glyph-name="u" unicode="u"/><glyph d="M627 279l356 819h244l-506 -1098h-189l-512 1098h244z" glyph-name="v" horiz-adv-x="1247" unicode="v"/><glyph d="M1421 0h-247l-267 774l-264 -774h-248l-354 1098h229l250 -809l289 809h199l288 -819l250 819h230z" glyph-name="w" horiz-adv-x="1816" unicode="w"/><glyph d="M963 0l-340 414l-338 -414h-277l477 582l-422 516h295l281 -355l289 355h276l-422 -518l471 -580h-290z" glyph-name="x" horiz-adv-x="1267" unicode="x"/><glyph d="M1335 1096l-825 -1719h-260l301 615l-528 1106h260l391 -854l401 854z" glyph-name="y" horiz-adv-x="1320" unicode="y"/><glyph d="M106 0v135l637 768h-600v195h899v-146l-628 -757h653l2 -195h-963z" glyph-name="z" horiz-adv-x="1171" unicode="z"/><glyph d="M571 1577v-143q-59 2 -86.5 -25t-27.5 -90v-459q0 -176 -176 -221v-10q176 -43 176 -219v-449q0 -63 27.5 -89t86.5 -24v-145h-145q-203 0 -203 205v481q0 154 -162 176l-2 140q164 18 164 176v491q0 205 203 205h145z" glyph-name="braceleft" horiz-adv-x="684" unicode="{"/><glyph d="M506 -188h-215v1728h215v-1728z" glyph-name="bar" horiz-adv-x="800" unicode="|"/><glyph d="M61 1577h146q203 0 203 -205v-491q0 -158 163 -176l-2 -140q-162 -23 -161 -176v-481q0 -205 -203 -205h-146v145q59 -2 87 24t28 89v449q0 174 174 219v10q-174 45 -174 221v459q0 63 -27.5 90t-87.5 25v143z" glyph-name="braceright" horiz-adv-x="684" unicode="}"/><glyph d="M238.5 920q87.5 78 181.5 84t161.5 -25t111.5 -72t104.5 -73.5t124.5 -28.5t120 57t78 123l140 -67q-113 -270 -322 -285q-78 -6 -150.5 23.5t-157.5 103.5t-181 74q-143 -2 -218 -172l-129 59q49 121 136.5 199z" glyph-name="asciitilde" horiz-adv-x="1363" unicode="~"/><glyph d="M337 1020q-54 0 -92 39t-38 93t39 93t92 39t92 -38t39 -93t-39 -94t-93 -39zM219 -168l23 1045h198l31 -1045h-252z" glyph-name="exclamdown" horiz-adv-x="681" unicode="¡"/><glyph d="M643 197h-6l-27 -158l-155 27l26 151q-166 43 -272.5 168t-106.5 315q-2 231 153 369.5t374 144.5l26 154l158 -27l-27 -143q131 -27 261 -108l-89 -172q-143 96 -298 96t-256 -87t-101 -229t104.5 -221.5t260.5 -79.5t288 109l93 -174q-186 -135 -406 -135z" glyph-name="cent" horiz-adv-x="1140" unicode="¢"/><glyph d="M1321 0h-1002q-145 0 -292 80l79 186q94 -59 190 -56t154 54t58 158v219h-182v209h180v211q0 211 119.5 316.5t279.5 105.5t312 -80l-70 -195q-101 62 -195 60t-149 -59.5t-55 -174.5v-184h221v-209h-221v-215q0 -156 -74 -209h647v-217z" glyph-name="sterling" horiz-adv-x="1423" unicode="£"/><glyph d="M897 742q0 -112 -57 -201l123 -123l-105 -109l-127 125q-90 -57 -205 -57t-204 55l-127 -123l-103 111l119 117q-59 89 -59 203t63 210l-131 133l104 107l138 -139q88 55 200 55t201 -55l137 139l105 -107l-133 -135q61 -94 61 -206zM289 742q0 -99 69.5 -167.5 t166.5 -68.5t166 67.5t69 167.5t-68 168t-166 68t-167.5 -68t-69.5 -167z" glyph-name="currency" horiz-adv-x="1116" unicode="¤"/><glyph d="M1264 616v-266h-351v-350h-262v350h-370v266h337l-555 818h291l430 -646l433 646h288l-555 -818h314z" glyph-name="yen" horiz-adv-x="1568" unicode="¥"/><glyph d="M510 745h-219v795h219v-795zM510 -188h-219v770h219v-770z" glyph-name="brokenbar" horiz-adv-x="802" unicode="¦"/><glyph d="M1104 205q0 -84 -40 -148.5t-140 -120t-293 -55.5q-252 0 -494 137l80 177q205 -121 422 -119q104 2 173 34.5t67 94.5q0 33 -17.5 49t-30 25.5t-35 17.5t-58 18.5t-189.5 34.5t-266.5 94t-113.5 214t142 237q-143 81 -145 235t130 244t326 87t400 -87l-57 -186 q-184 78 -315 77t-195 -38t-64 -88t44 -78t131 -42t143 -24q391 -72 393 -311q2 -150 -148 -233q150 -86 150 -246zM395 671q0 -52 27 -67.5t42 -24t50 -16.5t55.5 -11t65.5 -11q102 2 173 35.5t69 93.5t-65.5 87t-195.5 52q-100 -4 -160.5 -45t-60.5 -93z" glyph-name="section" horiz-adv-x="1218" unicode="§"/><glyph d="M782 1831q45 0 77 -31t32 -76t-33 -76.5t-75 -31.5t-75.5 31.5t-33.5 76.5t31.5 76t76.5 31zM1100 1831q45 0 76.5 -31t31.5 -76t-32.5 -76.5t-75.5 -31.5t-76 31.5t-33 76.5t32 76t77 31z" glyph-name="dieresis" horiz-adv-x="1302" unicode="¨"/><glyph d="M798 1454q308 0 525 -215t217 -519t-217 -522t-525 -218t-526.5 218t-218.5 522t218.5 519t526.5 215zM797 1319q-248 0 -425 -176t-177 -424t178 -425t423.5 -177t424 178t178.5 425t-177 423t-425 176zM815 438q131 0 236 94l69 -116q-141 -119 -319 -119t-306 111.5 t-130 306.5q0 195 128 309.5t300 115.5t323 -108l-67 -112q-113 82 -244 82t-215 -80t-83 -209t89 -202t219 -73z" glyph-name="copyright" horiz-adv-x="1591" unicode="©"/><glyph d="M468 1464q152 0 244.5 -92t92.5 -244v-403h-154v88q-133 -102 -265 -102t-216 68.5t-84 186.5t98 178t214 60t243 -69q4 100 -47.5 153t-155.5 53t-217 -59l-49 109q144 73 296 73zM442 1106q-90 0 -144 -36t-54 -100t50 -103.5t122 -39.5q111 0 223 86v123 q-107 70 -197 70zM827 434h-696v162h696v-162z" glyph-name="ordfeminine" horiz-adv-x="968" unicode="ª"/><glyph d="M307 555l492 -555h-234l-491 555l487 543h232zM805 555l491 -555h-233l-492 555l488 543h233z" glyph-name="guillemotleft" horiz-adv-x="1339" unicode="«"/><glyph d="M1305 190h-140v549h-1040v129h1180v-678z" glyph-name="logicalnot" horiz-adv-x="1429" unicode="¬"/><glyph d="M792.5 1454q305.5 0 520.5 -215t215 -519t-216 -522t-520 -218t-521.5 218t-217.5 522t217 519t522.5 215zM791 1319q-248 0 -425.5 -176t-177.5 -424t178.5 -425t424 -177t424 178t178.5 426t-177 423t-425 175zM782 1135q152 0 257.5 -81t107.5 -225q0 -86 -41 -152.5 t-113 -98.5l127 -275h-149l-99 223q-43 -10 -231 -10v-213h-141v815q130 17 282 17zM785 1018q-97 0 -150 -6v-375q63 2 159 1t159 49t63 138t-67 140.5t-164 52.5z" glyph-name="registered" horiz-adv-x="1579" unicode="®"/><glyph d="M1323 1602h-696v159h696v-159z" glyph-name="macron" horiz-adv-x="1306" unicode="¯"/><glyph d="M421 1642q138 0 227 -92t89 -223t-88 -220t-226 -89t-230.5 87t-92.5 222t91.5 225t229.5 90zM422 1513q-82 0 -135.5 -54t-53.5 -131t53.5 -132t135.5 -55t134 55t52 132t-52 131t-134 54z" glyph-name="degree" horiz-adv-x="829" unicode="°"/><glyph d="M700 1022h304v-162h-304v-328h-178v328h-305v162h305v328h178v-328zM1012 201h-805v161h805v-161z" glyph-name="plusminus" horiz-adv-x="1220" unicode="±"/><glyph d="M435 1415q101 0 180 -65.5t79 -177.5t-116 -207l-224 -185h359v-127h-598v88l329 285q100 82 101 152q0 47 -35 78.5t-88 31.5t-95 -38t-57 -101l-137 39q29 106 115 166.5t187 60.5z" glyph-name="uni00B2" horiz-adv-x="864" unicode="²"/><glyph d="M384 1442q124 0 204 -57.5t79 -155.5t-108 -156q59 -18 98 -68.5t39 -111.5q0 -104 -89 -164.5t-231 -60.5t-280 98l58 104q111 -80 233 -79q76 0 123 30.5t47 80.5t-43 82t-108 32h-130v106h125q55 0 92 30t37 72t-38.5 70.5t-120.5 28.5t-181 -63l-51 104 q121 78 245 78z" glyph-name="uni00B3" horiz-adv-x="825" unicode="³"/><glyph d="M1157 1903l-190 -318l-170 70l135 284z" glyph-name="acute" horiz-adv-x="1415" unicode="´"/><glyph d="M147 1098h226v-674q0 -123 72.5 -192.5t181 -69.5t198.5 65.5t148 153.5v717l225 -2v-1096h-209l-10 172q-37 -43 -85 -83t-142 -82t-198 -42t-194 47v-422h-210v766l-3 58v684z" glyph-name="uni00B5" horiz-adv-x="1312" unicode="µ"/><glyph d="M1360 -186v1552h-143v-1552h-236l2 673q-229 0 -297 2q-279 8 -441.5 142.5t-160.5 397.5t181 389t491 126h794l2 -1730h-192z" glyph-name="paragraph" horiz-adv-x="1759" unicode="¶"/><glyph d="M232 926q54 0 93.5 -39t39.5 -94.5t-40 -95.5t-93.5 -40t-93.5 40t-40 95.5t40 94.5t94 39z" glyph-name="periodcentered" horiz-adv-x="464" unicode="·"/><glyph d="M567 -293l-147 51l143 242h135z" glyph-name="cedilla" horiz-adv-x="1253" unicode="¸"/><glyph d="M381 672h-143v604l-66 -53l-68 106l146 103h131v-760z" glyph-name="uni00B9" horiz-adv-x="620" unicode="¹"/><glyph d="M505 1473q171 0 289.5 -106.5t118.5 -286.5t-119.5 -281t-288.5 -101t-286 102.5t-117 278.5t116 285t287 109zM509 1337q-103 0 -177 -69.5t-74 -182.5t74 -181t177 -69t177 67t74 184t-74 183.5t-177 67.5zM897 434h-776v162h776v-162z" glyph-name="ordmasculine" horiz-adv-x="1017" unicode="º"/><glyph d="M258 1098l487 -543l-491 -555h-234l492 555l-485 543h231zM756 1098l487 -543l-491 -555h-234l492 555l-486 543h232z" glyph-name="guillemotright" horiz-adv-x="1386" unicode="»"/><glyph d="M473 0h-197l930 1434h197zM483 672h-145v604l-66 -53l-65 106l145 103h131v-760zM1538 270h109v-112h-109v-158h-141v158h-410v98l393 508h158v-494zM1399 268v324l-260 -324h260z" glyph-name="onequarter" horiz-adv-x="1853" unicode="¼"/><glyph d="M483 0h-194l928 1434h198zM498 672h-146v604l-65 -53l-66 106l146 103h131v-760zM1445 764q101 0 180 -65.5t79 -177.5t-117 -208l-223 -184h358v-127h-598v88l330 285q100 82 100 151q0 47 -34.5 79t-88 32t-95.5 -38t-56 -101l-137 39q29 106 115 166.5t187 60.5z" glyph-name="onehalf" horiz-adv-x="1929" unicode="½"/><glyph d="M495 1442q122 0 201.5 -57.5t79.5 -155.5t-108 -156q61 -18 100 -68.5t39 -111.5q0 -104 -88.5 -164.5t-232.5 -60.5t-279 98l57 104q111 -80 234 -79q76 0 123 30.5t47 80.5t-44 82t-110 32h-129v106h127q55 0 91 29t36 72t-37.5 71.5t-119.5 28.5t-181 -63l-53 104 q125 78 247 78zM670 0h-197l930 1434h196zM1683 270h109v-112h-109v-158h-141v158h-407v98l391 508h157v-494zM1544 268v324l-260 -324h260z" glyph-name="threequarters" horiz-adv-x="2025" unicode="¾"/><glyph d="M716 1040q-52 0 -90 38t-38 91.5t39 91t91 37.5t89 -37.5t37 -91t-38 -91.5t-90 -38zM180 217q0 86 31 151.5t77 102.5t100 79t101.5 81t79 110.5t31.5 165.5l238 2q0 -145 -43 -251.5t-103.5 -162t-122 -96.5t-104.5 -84t-43 -98q0 -86 71 -132t169 -37t162.5 64.5 t109.5 161.5l199 -96q-59 -150 -175 -240t-266 -104q-203 -18 -357.5 88.5t-154.5 294.5z" glyph-name="questiondown" horiz-adv-x="1390" unicode="¿"/><glyph d="M803 1585l-191 318l226 36l135 -284zM1145 303h-727l-125 -303h-266l637 1434h231l639 -1434h-264zM1053 522l-275 658l-270 -658h545z" glyph-name="Agrave" horiz-adv-x="1560" unicode="À"/><glyph d="M815 1585l-170 70l135 284l228 -36zM1145 303h-727l-125 -303h-266l637 1434h231l639 -1434h-264zM1053 522l-275 658l-270 -658h545z" glyph-name="Aacute" horiz-adv-x="1560" unicode="Á"/><glyph d="M637 1573l-125 82l184 243h170l187 -243l-127 -80l-142 215zM1145 303h-727l-125 -303h-266l637 1434h231l639 -1434h-264zM1053 522l-275 658l-270 -658h545z" glyph-name="Acircumflex" horiz-adv-x="1560" unicode="Â"/><glyph d="M969 1710q80 0 123 107l112 -50q-18 -84 -80.5 -140t-144.5 -56t-190.5 62.5t-159.5 62.5q-86 10 -125 -103l-113 58q18 84 83 138t152 52t192.5 -66.5t150.5 -64.5zM1145 303h-727l-125 -303h-266l637 1434h231l639 -1434h-264zM1053 522l-275 658l-270 -658h545z" glyph-name="Atilde" horiz-adv-x="1560" unicode="Ã"/><glyph d="M626 1616q-42 0 -76 31.5t-34 76.5t32 76t77 31t76.5 -31t31.5 -76t-32.5 -76.5t-74.5 -31.5zM942 1616q-43 0 -75.5 31.5t-32.5 76.5t31.5 76t76.5 31t77 -31t32 -76t-33 -76.5t-76 -31.5zM1145 303h-727l-125 -303h-266l637 1434h231l639 -1434h-264zM1053 522 l-275 658l-270 -658h545z" glyph-name="Adieresis" horiz-adv-x="1560" unicode="Ä"/><glyph d="M778.5 1532q-112.5 0 -188.5 65.5t-76 175.5t76 178t188 68t187 -69.5t75 -177.5t-74.5 -174t-187 -66zM777 1905q-54 0 -94 -38t-40 -92t40 -91t95.5 -37t94 36.5t38.5 92t-40 92.5t-94 37zM1145 303h-727l-125 -303h-266l637 1434h231l639 -1434h-264zM1053 522 l-275 658l-270 -658h545z" glyph-name="Aring" horiz-adv-x="1560" unicode="Å"/><glyph d="M1989 217v-217h-1049v481h-381l-256 -481h-268l803 1434h1101v-217h-759v-392h579v-204h-579v-404h809zM940 698v502l-16 -37l-248 -465h264z" glyph-name="AE" horiz-adv-x="2091" unicode="Æ"/><glyph d="M115 712q0 321 219 529.5t547 214.5q229 8 458 -96l-79 -203q-174 88 -361 82q-223 -6 -383 -146.5t-160 -384.5t163 -378.5t392 -134.5q187 0 353 94l88 -201q-190 -96 -383 -108l-131 -293l-148 51l144 242q-307 20 -513 215.5t-206 516.5z" glyph-name="Ccedilla" horiz-adv-x="1476" unicode="Ç"/><glyph d="M817 1628l-170 -72l-190 320l225 37zM1206 1217h-760v-392h580v-204h-580v-404h809v-217h-1048v1434h999v-217z" glyph-name="Egrave" horiz-adv-x="1357" unicode="È"/><glyph d="M926 1874l-191 -320l-170 72l135 285zM1206 1217h-760v-392h580v-204h-580v-404h809v-217h-1048v1434h999v-217z" glyph-name="Eacute" horiz-adv-x="1357" unicode="É"/><glyph d="M885 1581l-144 217l-145 -217l-125 80l184 246h170l185 -246zM1206 1217h-760v-392h580v-204h-580v-404h809v-217h-1048v1434h999v-217z" glyph-name="Ecircumflex" horiz-adv-x="1357" unicode="Ê"/><glyph d="M573 1788q45 0 77 -31t32 -76t-33 -76.5t-76 -31.5t-75.5 31.5t-32.5 76.5t31.5 76t76.5 31zM889 1788q45 0 76.5 -31t31.5 -76t-32.5 -76.5t-74.5 -31.5t-76 31.5t-34 76.5t32 76t77 31zM1206 1217h-760v-392h580v-204h-580v-404h809v-217h-1048v1434h999v-217z" glyph-name="Edieresis" horiz-adv-x="1357" unicode="Ë"/><glyph d="M434 1628l-170 -72l-192 320l227 37zM440 0h-233v1434h233v-1434z" glyph-name="Igrave" horiz-adv-x="647" unicode="Ì"/><glyph d="M553 1866l-191 -318l-169 70l135 285zM440 0h-233v1434h233v-1434z" glyph-name="Iacute" horiz-adv-x="647" unicode="Í"/><glyph d="M477 1569l-141 215l-148 -217l-125 82l187 245h170l184 -245zM440 0h-233v1434h233v-1434z" glyph-name="Icircumflex" horiz-adv-x="647" unicode="Î"/><glyph d="M178 1794q45 0 77 -30.5t32 -76.5t-33 -78t-76 -32t-75.5 32.5t-32.5 78t31.5 76t76.5 30.5zM494 1794q45 0 76.5 -30.5t31.5 -76.5t-32.5 -78t-74.5 -32t-76 32.5t-34 78t32 76t77 30.5zM440 0h-233v1434h233v-1434z" glyph-name="Idieresis" horiz-adv-x="647" unicode="Ï"/><glyph d="M577 1438q196 0 356.5 -41t287.5 -123t197.5 -221.5t70.5 -325.5q0 -352 -245 -541.5t-666 -189.5q-246 0 -353 4v666h-168v147h168v621q156 4 352 4zM1247 721q0 137 -55 237.5t-193.5 180.5t-373.5 80h-162v-406h305v-147h-305v-451q80 -4 164 0q279 6 449.5 133 t170.5 373z" glyph-name="Eth" horiz-adv-x="1603" unicode="Ð"/><glyph d="M1040 1710q80 0 123 107l115 -50q-20 -86 -81.5 -141t-143.5 -55t-190.5 62.5t-160.5 62.5q-88 8 -127 -103l-112 58q18 84 82.5 138t151.5 52t192.5 -66.5t150.5 -64.5zM1499 0h-223l-830 1055v-1055h-239v1434h237l813 -1043v1043h242v-1434z" glyph-name="Ntilde" horiz-adv-x="1705" unicode="Ñ"/><glyph d="M1001 1655l-170 -70l-192 318l227 36zM876 1458q329 0 544.5 -208t215.5 -538t-209.5 -542.5t-546.5 -212.5t-551 210t-214 543t216 540.5t545 207.5zM876.5 1241q-231.5 0 -375 -147.5t-143.5 -383.5t142.5 -385t378 -149t376 150.5t140.5 384t-143.5 382t-375 148.5z " glyph-name="Ograve" horiz-adv-x="1751" unicode="Ò"/><glyph d="M1055 1882l-191 -319l-170 71l135 285zM876 1458q329 0 544.5 -208t215.5 -538t-209.5 -542.5t-546.5 -212.5t-551 210t-214 543t216 540.5t545 207.5zM876.5 1241q-231.5 0 -375 -147.5t-143.5 -383.5t142.5 -385t378 -149t376 150.5t140.5 384t-143.5 382t-375 148.5z " glyph-name="Oacute" horiz-adv-x="1751" unicode="Ó"/><glyph d="M1012 1569l-142 215l-147 -217l-125 82l186 245h170l185 -245zM876 1458q329 0 544.5 -208t215.5 -538t-209.5 -542.5t-546.5 -212.5t-551 210t-214 543t216 540.5t545 207.5zM876.5 1241q-231.5 0 -375 -147.5t-143.5 -383.5t142.5 -385t378 -149t376 150.5t140.5 384 t-143.5 382t-375 148.5z" glyph-name="Ocircumflex" horiz-adv-x="1751" unicode="Ô"/><glyph d="M1047 1710q80 0 122 107l115 -50q-20 -86 -81.5 -141t-143.5 -55t-190.5 62.5t-159.5 62.5q-88 8 -127 -103l-113 58q18 84 83 138t152 52t192 -66.5t151 -64.5zM876 1458q329 0 544.5 -208t215.5 -538t-209.5 -542.5t-546.5 -212.5t-551 210t-214 543t216 540.5 t545 207.5zM876.5 1241q-231.5 0 -375 -147.5t-143.5 -383.5t142.5 -385t378 -149t376 150.5t140.5 384t-143.5 382t-375 148.5z" glyph-name="Otilde" horiz-adv-x="1751" unicode="Õ"/><glyph d="M713 1819q45 0 76.5 -31t31.5 -77t-32.5 -77.5t-75.5 -31.5t-76 32.5t-33 77.5t32 76t77 31zM1028 1819q45 0 78 -31t33 -77t-34 -77.5t-76 -31.5t-75.5 32.5t-33.5 77.5t31.5 76t76.5 31zM876 1458q329 0 544.5 -208t215.5 -538t-209.5 -542.5t-546.5 -212.5t-551 210 t-214 543t216 540.5t545 207.5zM876.5 1241q-231.5 0 -375 -147.5t-143.5 -383.5t142.5 -385t378 -149t376 150.5t140.5 384t-143.5 382t-375 148.5z" glyph-name="Odieresis" horiz-adv-x="1751" unicode="Ö"/><glyph d="M897 565l446 -450l-133 -140l-448 453l-447 -453l-135 140l447 450l-447 451l135 137l447 -453l448 453l133 -137z" glyph-name="multiply" horiz-adv-x="1523" unicode="×"/><glyph d="M1655 713q0 -330 -214 -547t-554 -217q-186 0 -342 71l-90 -159l-138 80l91 159q-137 102 -215 260t-78 351q0 336 220 546.5t552 210.5q145 0 272 -43l90 158l137 -78l-83 -147q164 -98 258 -265t94 -380zM360 704q0 -242 166 -395l518 914q-78 23 -157 22 q-227 0 -377 -149.5t-150 -391.5zM887 174q233 0 378.5 154.5t145.5 384.5q0 139 -59.5 254.5t-163.5 187.5l-529 -934q105 -47 228 -47z" glyph-name="Oslash" horiz-adv-x="1769" unicode="Ø"/><glyph d="M944 1618l-170 -70l-190 318l225 37zM1475 1434v-803q0 -313 -184.5 -493.5t-460.5 -180.5t-465 174t-189 492v811h240v-820q0 -201 109.5 -318.5t298 -117.5t300 120t111.5 318v818h240z" glyph-name="Ugrave" horiz-adv-x="1650" unicode="Ù"/><glyph d="M1024 1872l-190 -318l-170 70l135 285zM1475 1434v-803q0 -313 -184.5 -493.5t-460.5 -180.5t-465 174t-189 492v811h240v-820q0 -201 109.5 -318.5t298 -117.5t300 120t111.5 318v818h240z" glyph-name="Uacute" horiz-adv-x="1650" unicode="Ú"/><glyph d="M963 1577l-144 217l-145 -217l-125 80l184 246h170l184 -246zM1475 1434v-803q0 -313 -184.5 -493.5t-460.5 -180.5t-465 174t-189 492v811h240v-820q0 -201 109.5 -318.5t298 -117.5t300 120t111.5 318v818h240z" glyph-name="Ucircumflex" horiz-adv-x="1650" unicode="Û"/><glyph d="M657 1788q45 0 78 -31t33 -76t-34 -76.5t-76 -31.5t-75.5 31.5t-33.5 76.5t31.5 76t76.5 31zM975 1788q45 0 76.5 -31t31.5 -76t-32.5 -76.5t-75.5 -31.5t-76 31.5t-33 76.5t32 76t77 31zM1475 1434v-803q0 -313 -184.5 -493.5t-460.5 -180.5t-465 174t-189 492v811h240 v-820q0 -201 109.5 -318.5t298 -117.5t300 120t111.5 318v818h240z" glyph-name="Udieresis" horiz-adv-x="1650" unicode="Ü"/><glyph d="M1012 1903l-193 -318l-170 70l135 284zM913 0h-260l-2 569l-588 865h291l430 -646l433 646h288l-592 -871v-563z" glyph-name="Yacute" horiz-adv-x="1568" unicode="Ý"/><glyph d="M440 1266h267q274 -2 447 -136t175 -382t-167.5 -389.5t-401.5 -147.5t-320 -6v-205h-233v1432l233 2v-168zM440 416q174 0 269 2q172 2 273 90t101 228t-104.5 225.5t-265.5 85.5l-273 2v-633z" glyph-name="Thorn" horiz-adv-x="1396" unicode="Þ"/><glyph d="M612 1540q190 0 340 -109.5t150 -289.5q0 -76 -30 -129.5t-73 -79t-86 -44t-72.5 -38t-29.5 -56t47.5 -53.5t151.5 -34q217 -35 333.5 -121t117.5 -254t-135 -261.5t-346 -94.5t-423 116l72 184q176 -106 352 -104q117 2 186.5 43t68.5 109t-34 91t-51 35.5t-59 22.5 t-60.5 15.5t-72 15.5t-70.5 14q-139 29 -220 89.5t-81 197.5q0 68 30.5 117t73.5 75.5t117 63.5t74 107t-78 126t-176 54t-163 -59.5t-65 -160.5v-1128h-225v1128q0 203 123 307.5t313 104.5z" glyph-name="germandbls" horiz-adv-x="1486" unicode="ß"/><glyph d="M936 1360l-170 -72l-193 320l228 37zM1206 1098v-1098h-207l-6 150q-55 -72 -146 -119t-206 -47q-215 0 -377 161.5t-162 413.5t154 403.5t362 151.5q121 0 216.5 -52t152.5 -136l4 172h215zM659 924q-141 0 -242.5 -100.5t-101.5 -264.5t105.5 -270.5t255.5 -106.5 q186 0 311 154v399q-127 189 -328 189z" glyph-name="agrave" horiz-adv-x="1363" unicode="à"/><glyph d="M969 1608l-191 -320l-170 72l135 285zM1206 1098v-1098h-207l-6 150q-55 -72 -146 -119t-206 -47q-215 0 -377 161.5t-162 413.5t154 403.5t362 151.5q121 0 216.5 -52t152.5 -136l4 172h215zM659 924q-141 0 -242.5 -100.5t-101.5 -264.5t105.5 -270.5t255.5 -106.5 q186 0 311 154v399q-127 189 -328 189z" glyph-name="aacute" horiz-adv-x="1363" unicode="á"/><glyph d="M887 1278l-142 215l-145 -217l-125 82l184 246h170l185 -246zM1206 1098v-1098h-207l-6 150q-55 -72 -146 -119t-206 -47q-215 0 -377 161.5t-162 413.5t154 403.5t362 151.5q121 0 216.5 -52t152.5 -136l4 172h215zM659 924q-141 0 -242.5 -100.5t-101.5 -264.5 t105.5 -270.5t255.5 -106.5q186 0 311 154v399q-127 189 -328 189z" glyph-name="acircumflex" horiz-adv-x="1363" unicode="â"/><glyph d="M930 1415q80 0 123 107l114 -49q-20 -86 -81.5 -141.5t-143.5 -55.5t-190.5 62.5t-159.5 62.5q-90 6 -127 -103l-113 58q18 84 83 137t152 51t192.5 -65.5t150.5 -63.5zM1206 1098v-1098h-207l-6 150q-55 -72 -146 -119t-206 -47q-215 0 -377 161.5t-162 413.5t154 403.5 t362 151.5q121 0 216.5 -52t152.5 -136l4 172h215zM659 924q-141 0 -242.5 -100.5t-101.5 -264.5t105.5 -270.5t255.5 -106.5q186 0 311 154v399q-127 189 -328 189z" glyph-name="atilde" horiz-adv-x="1363" unicode="ã"/><glyph d="M588 1536q45 0 76.5 -30.5t31.5 -76.5t-32.5 -78t-75.5 -32t-76 31.5t-33 77.5t32 77t77 31zM903 1536q45 0 77 -30.5t32 -76.5t-33 -78t-76 -32t-75.5 31.5t-32.5 77.5t31.5 77t76.5 31zM1206 1098v-1098h-207l-6 150q-55 -72 -146 -119t-206 -47q-215 0 -377 161.5 t-162 413.5t154 403.5t362 151.5q121 0 216.5 -52t152.5 -136l4 172h215zM659 924q-141 0 -242.5 -100.5t-101.5 -264.5t105.5 -270.5t255.5 -106.5q186 0 311 154v399q-127 189 -328 189z" glyph-name="adieresis" horiz-adv-x="1363" unicode="ä"/><glyph d="M739.5 1722q110.5 0 186 -68t75.5 -176t-74.5 -174.5t-187 -66.5t-187.5 66.5t-75 174.5t76 176t186.5 68zM739.5 1610q-53.5 0 -93.5 -38t-40 -92t39 -91t94.5 -37t94 37t38.5 91t-39.5 92t-93 38zM1206 1098v-1098h-207l-6 150q-55 -72 -146 -119t-206 -47 q-215 0 -377 161.5t-162 413.5t154 403.5t362 151.5q121 0 216.5 -52t152.5 -136l4 172h215zM659 924q-141 0 -242.5 -100.5t-101.5 -264.5t105.5 -270.5t255.5 -106.5q186 0 311 154v399q-127 189 -328 189z" glyph-name="aring" horiz-adv-x="1363" unicode="å"/><glyph d="M1625 -18q-165 0 -311.5 67.5t-230.5 192.5q-78 -127 -195.5 -192.5t-246.5 -65.5q-219 0 -379 160.5t-160 413.5t157 404.5t372 151.5q133 0 250.5 -62.5t195.5 -185.5q80 127 217 196.5t313 67.5t316.5 -99t196 -248.5t16.5 -317.5l-907 2q29 -141 140.5 -217 t264.5 -74q211 2 377 150l113 -162q-80 -74 -207 -128t-292 -54zM1229 651h692q8 115 -83.5 199t-235.5 85t-245 -74t-128 -210zM659 924q-141 0 -242.5 -100.5t-101.5 -265.5t105.5 -271.5t255.5 -106.5q100 0 180 51t131 129v355q-47 96 -135 152.5t-193 56.5z" glyph-name="ae" horiz-adv-x="2254" unicode="æ"/><glyph d="M734 932q-177 0 -290.5 -109.5t-114.5 -274.5t113.5 -270.5t287.5 -105.5t310 133l111 -155q-176 -150 -391 -168l-119 -269l-147 51l129 220q-217 25 -368 173t-153 392q0 180 91.5 314t228.5 197.5t295 65.5q233 0 424 -147l-103 -174q-127 127 -304 127z" glyph-name="ccedilla" horiz-adv-x="1241" unicode="ç"/><glyph d="M674 1288l-193 320l228 37l135 -285zM739 -18q-264 0 -450.5 152.5t-186.5 417.5t175 423.5t425 154.5q190 -2 329.5 -99t196 -248.5t17.5 -317.5l-907 2q29 -141 140.5 -217t264.5 -74q213 2 377 152l113 -164q-82 -74 -209 -128t-285 -54zM338 651h690q8 115 -83 199 t-235 85t-244.5 -74t-127.5 -210z" glyph-name="egrave" unicode="è"/><glyph d="M762 1278l-170 70l135 284l227 -37zM739 -18q-264 0 -450.5 152.5t-186.5 417.5t175 423.5t425 154.5q190 -2 329.5 -99t196 -248.5t17.5 -317.5l-907 2q29 -141 140.5 -217t264.5 -74q213 2 377 152l113 -164q-82 -74 -209 -128t-285 -54zM338 651h690q8 115 -83 199 t-235 85t-244.5 -74t-127.5 -210z" glyph-name="eacute" unicode="é"/><glyph d="M553 1296l-125 82l186 244h170l185 -244l-127 -80l-142 215zM739 -18q-264 0 -450.5 152.5t-186.5 417.5t175 423.5t425 154.5q190 -2 329.5 -99t196 -248.5t17.5 -317.5l-907 2q29 -141 140.5 -217t264.5 -74q213 2 377 152l113 -164q-82 -74 -209 -128t-285 -54z M338 651h690q8 115 -83 199t-235 85t-244.5 -74t-127.5 -210z" glyph-name="ecircumflex" unicode="ê"/><glyph d="M552 1307q-42 0 -76 31.5t-34 76.5t32 76t77 31t76.5 -31t31.5 -76t-32.5 -76.5t-74.5 -31.5zM868 1307q-43 0 -75.5 31.5t-32.5 76.5t31.5 76t76.5 31t77 -31t32 -76t-33 -76.5t-76 -31.5zM739 -18q-264 0 -450.5 152.5t-186.5 417.5t175 423.5t425 154.5 q190 -2 329.5 -99t196 -248.5t17.5 -317.5l-907 2q29 -141 140.5 -217t264.5 -74q213 2 377 152l113 -164q-82 -74 -209 -128t-285 -54zM338 651h690q8 115 -83 199t-235 85t-244.5 -74t-127.5 -210z" glyph-name="edieresis" unicode="ë"/><glyph d="M475 1319l-170 -72l-190 320l225 37zM389 0h-225v1098h225v-1098z" glyph-name="igrave" horiz-adv-x="552" unicode="ì"/><glyph d="M510 1567l-193 -320l-170 72l136 285zM389 0h-225v1098h225v-1098z" glyph-name="iacute" horiz-adv-x="552" unicode="í"/><glyph d="M416 1300l-144 216l-145 -218l-125 82l184 246h170l185 -246zM389 0h-225v1098h225v-1098z" glyph-name="icircumflex" horiz-adv-x="561" unicode="î"/><glyph d="M127 1495q45 0 77 -30.5t32 -76.5t-33 -78t-76 -32t-76 32t-33 78t32 76.5t77 30.5zM444 1495q45 0 77 -30.5t32 -76.5t-33 -78t-76 -32t-75.5 32t-32.5 78t31.5 76.5t76.5 30.5zM389 0h-225v1098h225v-1098z" glyph-name="idieresis" horiz-adv-x="552" unicode="ï"/><glyph d="M993 1241q199 -203 226 -521t-125 -517t-386 -218t-408.5 113t-189.5 348t111.5 358t327.5 152q231 14 420 -153q-45 197 -181.5 311.5t-308.5 138.5l53 217q160 -27 295 -104l152 209l172 -119zM446 265.5q90 -72.5 214 -63.5t214.5 109.5t106.5 261.5 q-70 94 -167 142.5t-207 43.5t-188.5 -87t-70.5 -208t98 -198.5z" glyph-name="eth" horiz-adv-x="1312" unicode="ð"/><glyph d="M885 1440q82 0 125 106l112 -49q-18 -84 -80.5 -140.5t-144.5 -56.5t-190.5 62.5t-159.5 62.5q-86 10 -125 -102l-113 57q18 82 83 137.5t151 53.5t191.5 -66.5t150.5 -64.5zM799 1120q180 0 299 -127t119 -350v-643h-226v625q0 135 -69.5 215t-188.5 80 q-199 0 -352 -230v-690h-225v1098h219l6 -209q193 231 418 231z" glyph-name="ntilde" horiz-adv-x="1357" unicode="ñ"/><glyph d="M860 1325l-170 -72l-190 320l225 37zM691 1126q249 0 420 -156.5t171 -420.5t-174 -414.5t-418 -150.5t-416 153.5t-172 410.5t170 417.5t419 160.5zM692 930q-152 0 -257 -101.5t-105 -276.5t105.5 -273.5t255.5 -99.5t257 97.5t107 277.5t-105.5 277.5t-257.5 98.5z " glyph-name="ograve" horiz-adv-x="1384" unicode="ò"/><glyph d="M893 1573l-191 -320l-170 72l136 285zM691 1126q249 0 420 -156.5t171 -420.5t-174 -414.5t-418 -150.5t-416 153.5t-172 410.5t170 417.5t419 160.5zM692 930q-152 0 -257 -101.5t-105 -276.5t105.5 -273.5t255.5 -99.5t257 97.5t107 277.5t-105.5 277.5t-257.5 98.5z " glyph-name="oacute" horiz-adv-x="1384" unicode="ó"/><glyph d="M823 1243l-141 215l-145 -217l-125 82l184 244h170l184 -244zM691 1126q249 0 420 -156.5t171 -420.5t-174 -414.5t-418 -150.5t-416 153.5t-172 410.5t170 417.5t419 160.5zM692 930q-152 0 -257 -101.5t-105 -276.5t105.5 -273.5t255.5 -99.5t257 97.5t107 277.5 t-105.5 277.5t-257.5 98.5z" glyph-name="ocircumflex" horiz-adv-x="1384" unicode="ô"/><glyph d="M854 1380q84 0 125 107l113 -51q-18 -84 -81 -139.5t-145 -55.5t-191.5 61.5t-158.5 63.5q-88 6 -125 -104l-112 59q18 82 82.5 136t150.5 52t191.5 -65.5t150.5 -63.5zM691 1126q249 0 420 -156.5t171 -420.5t-174 -414.5t-418 -150.5t-416 153.5t-172 410.5t170 417.5 t419 160.5zM692 930q-152 0 -257 -101.5t-105 -276.5t105.5 -273.5t255.5 -99.5t257 97.5t107 277.5t-105.5 277.5t-257.5 98.5z" glyph-name="otilde" horiz-adv-x="1384" unicode="õ"/><glyph d="M524 1499q45 0 77 -30.5t32 -75.5t-33 -77t-76 -32t-75.5 32t-32.5 77t31.5 75.5t76.5 30.5zM840 1499q45 0 76.5 -30.5t31.5 -75.5t-32.5 -77t-74.5 -32t-76 32t-34 77t32 75.5t77 30.5zM691 1126q249 0 420 -156.5t171 -420.5t-174 -414.5t-418 -150.5t-416 153.5 t-172 410.5t170 417.5t419 160.5zM692 930q-152 0 -257 -101.5t-105 -276.5t105.5 -273.5t255.5 -99.5t257 97.5t107 277.5t-105.5 277.5t-257.5 98.5z" glyph-name="odieresis" horiz-adv-x="1384" unicode="ö"/><glyph d="M721 870h-4q-41 0 -72 32t-31 77t32 76.5t75 31.5t74.5 -31.5t31.5 -76.5t-31.5 -77t-74.5 -32zM1305 516h-1180v129h1180v-129zM719 295h4q39 0 70.5 -33t31.5 -76t-33.5 -77.5t-75.5 -34.5t-74 33.5t-32 78.5t31 77t78 32z" glyph-name="divide" horiz-adv-x="1429" unicode="÷"/><glyph d="M1282 553q0 -268 -174 -418.5t-414 -150.5q-98 0 -194 28l-76 -145l-133 67l71 138q-260 160 -260 483q0 250 170 410.5t422 160.5q106 0 199 -30l72 137l135 -68l-70 -133q117 -74 184.5 -196.5t67.5 -282.5zM694 954q-162 0 -277.5 -111t-114.5 -303t144 -304l365 702 q-59 16 -117 16zM694 154q156 0 270.5 107t114.5 301t-135 304l-362 -696q59 -16 112 -16z" glyph-name="oslash" horiz-adv-x="1384" unicode="ø"/><glyph d="M793 1368l-170 -70l-191 318l225 37zM1198 0h-209l-10 172q-186 -207 -420 -207q-172 0 -292 119t-120 330v684h226v-674q0 -123 72.5 -192.5t181 -69.5t198.5 65.5t148 153.5v717h225v-1098z" glyph-name="ugrave" unicode="ù"/><glyph d="M901 1585l-190 -317l-170 69l135 285zM1198 0h-209l-10 172q-186 -207 -420 -207q-172 0 -292 119t-120 330v684h226v-674q0 -123 72.5 -192.5t181 -69.5t198.5 65.5t148 153.5v717h225v-1098z" glyph-name="uacute" unicode="ú"/><glyph d="M823 1303l-141 215l-147 -218l-125 82l184 244h170l186 -244zM1198 0h-209l-10 172q-186 -207 -420 -207q-172 0 -292 119t-120 330v684h226v-674q0 -123 72.5 -192.5t181 -69.5t198.5 65.5t148 153.5v717h225v-1098z" glyph-name="ucircumflex" unicode="û"/><glyph d="M498 1546q45 0 77.5 -30.5t32.5 -75.5t-33.5 -77t-75.5 -32t-76 32t-34 77t32 75.5t77 30.5zM815 1546q45 0 77 -30.5t32 -75.5t-33 -77t-76 -32t-75.5 32t-32.5 77t31.5 75.5t76.5 30.5zM1198 0h-209l-10 172q-186 -207 -420 -207q-172 0 -292 119t-120 330v684h226 v-674q0 -123 72.5 -192.5t181 -69.5t198.5 65.5t148 153.5v717h225v-1098z" glyph-name="udieresis" unicode="ü"/><glyph d="M696 1247l-170 72l136 285l225 -37zM1335 1096l-825 -1719h-260l301 615l-528 1106h260l391 -854l401 854z" glyph-name="yacute" horiz-adv-x="1320" unicode="ý"/><glyph d="M414 1436v-484q166 162 376 162t360 -154t150 -418t-139 -412t-334 -148q-121 0 -231.5 55t-181.5 133v-561h-224v1827h224zM745 172q139 0 235.5 101.5t96.5 265.5t-104.5 270t-262.5 106t-298 -139v-434q152 -170 333 -170z" glyph-name="thorn" horiz-adv-x="1402" unicode="þ"/><glyph d="M506 1278q-43 0 -76 32t-33 78t32 76.5t77 30.5t76.5 -30.5t31.5 -76.5t-32.5 -78t-75.5 -32zM821 1278q-43 0 -75.5 32t-32.5 78t31.5 76.5t76.5 30.5t77 -30.5t32 -76.5t-33 -78t-76 -32zM1335 1096l-825 -1719h-260l301 615l-528 1106h260l391 -854l401 854z" glyph-name="ydieresis" horiz-adv-x="1320" unicode="ÿ"/><glyph d="M1124 1602h-696v159h696v-159zM1145 303h-727l-125 -303h-266l637 1434h231l639 -1434h-264zM1053 522l-275 658l-270 -658h545z" glyph-name="Amacron" horiz-adv-x="1560" unicode="Ā"/><glyph d="M1087 1307h-696v159h696v-159zM1206 1098v-1098h-207l-6 150q-55 -72 -146 -119t-206 -47q-215 0 -377 161.5t-162 413.5t154 403.5t362 151.5q121 0 216.5 -52t152.5 -136l4 172h215zM659 924q-141 0 -242.5 -100.5t-101.5 -264.5t105.5 -270.5t255.5 -106.5 q186 0 311 154v399q-127 189 -328 189z" glyph-name="amacron" horiz-adv-x="1363" unicode="ā"/><glyph d="M785 1591q-128 0 -212 67.5t-118 178.5l153 47q39 -137 175 -137t173 137l152 -47q-29 -111 -112 -178.5t-211 -67.5zM1145 303h-727l-125 -303h-266l637 1434h231l639 -1434h-264zM1053 522l-275 658l-270 -658h545z" glyph-name="Abreve" horiz-adv-x="1560" unicode="Ă"/><glyph d="M746 1294q-128 0 -210.5 68t-119.5 180l153 45q18 -66 65.5 -101.5t113.5 -35.5q131 0 172 137l151 -45q-31 -111 -114 -179.5t-211 -68.5zM1206 1098v-1098h-207l-6 150q-55 -72 -146 -119t-206 -47q-215 0 -377 161.5t-162 413.5t154 403.5t362 151.5q121 0 216.5 -52 t152.5 -136l4 172h215zM659 924q-141 0 -242.5 -100.5t-101.5 -264.5t105.5 -270.5t255.5 -106.5q186 0 311 154v399q-127 189 -328 189z" glyph-name="abreve" horiz-adv-x="1363" unicode="ă"/><glyph d="M1260 -182q0 51 30.5 100t85.5 82h-106l-125 303h-727l-125 -303h-266l637 1434h231l639 -1434h-8q-131 -59 -135 -152q-2 -45 32.5 -70.5t96.5 -22.5t133 50l49 -77q-102 -86 -206 -88t-170 48t-66 130zM1053 522l-275 658l-270 -658h545z" glyph-name="Aogonek" horiz-adv-x="1560" unicode="Ą"/><glyph d="M942 -180q0 113 115 180h-60l-6 150q-53 -72 -144 -119t-206 -47q-215 0 -377 161.5t-162 413.5t153 403.5t363 151.5q119 0 215.5 -53t153.5 -135l4 172h215v-1098h-2q-127 -59 -131 -150q-2 -45 32 -71.5t99 -22.5t131 51l49 -79q-100 -84 -206 -87t-171 48t-65 131z M315 558q0 -165 105.5 -271.5t255.5 -106.5q180 0 311 156v399q-131 188 -328 189q-141 0 -242.5 -100.5t-101.5 -265.5z" glyph-name="aogonek" horiz-adv-x="1363" unicode="ą"/><glyph d="M1069 1890l-190 -317l-170 69l135 285zM356 708q0 -244 163 -378.5t392 -134.5q186 0 353 94l88 -201q-213 -111 -445 -111q-332 -4 -562 196t-230 530t219 538.5t547 214.5q229 8 458 -96l-79 -203q-174 88 -361 82q-223 -6 -383 -146.5t-160 -384.5z" glyph-name="Cacute" horiz-adv-x="1476" unicode="Ć"/><glyph d="M918 1587l-191 -317l-170 69l135 285zM734 932q-177 0 -290.5 -109.5t-114.5 -274.5t113.5 -270.5t287.5 -105.5t310 133l111 -155q-197 -170 -445 -170t-425 151.5t-179 417.5q0 180 91.5 314t228.5 197.5t295 65.5q233 0 424 -147l-103 -174q-127 127 -304 127z" glyph-name="cacute" horiz-adv-x="1241" unicode="ć"/><glyph d="M993 1585h-166l-184 215l125 94l141 -176l138 174l131 -90zM356 708q0 -244 163 -378.5t392 -134.5q186 0 353 94l88 -201q-213 -111 -445 -111q-332 -4 -562 196t-230 530t219 538.5t547 214.5q229 8 458 -96l-79 -203q-174 88 -361 82q-223 -6 -383 -146.5t-160 -384.5 z" glyph-name="Ccaron" horiz-adv-x="1476" unicode="Č"/><glyph d="M801 1270h-166l-186 215l126 92l140 -174l139 174l131 -92zM734 932q-177 0 -290.5 -109.5t-114.5 -274.5t113.5 -270.5t287.5 -105.5t310 133l111 -155q-197 -170 -445 -170t-425 151.5t-179 417.5q0 180 91.5 314t228.5 197.5t295 65.5q233 0 424 -147l-103 -174 q-127 127 -304 127z" glyph-name="ccaron" horiz-adv-x="1241" unicode="č"/><glyph d="M829 1581h-165l-185 215l125 94l141 -174l138 172l131 -90zM558 1438q196 0 355.5 -41t287.5 -123t198.5 -221.5t70.5 -325.5q0 -352 -244.5 -541.5t-666.5 -189.5q-246 0 -352 4v1434q155 4 351 4zM444 1219v-1004q78 -4 164 0q279 6 450 133t171 373q0 137 -55.5 237.5 t-193.5 180.5t-374 80h-162z" glyph-name="Dcaron" horiz-adv-x="1585" unicode="Ď"/><glyph d="M1329.5 1670q30.5 40 86.5 50t105.5 -27.5t61.5 -122.5t-49 -163t-162 -94l-4 78q74 29 76 100q-45 -16 -87 9.5t-50 77.5t22.5 92zM1241 1481v-1481h-213l-6 154q-184 -170 -391 -170t-368 155.5t-161 419.5t149.5 409.5t364.5 145.5t400 -194v561h225zM666 915 q-141 0 -239.5 -99t-98.5 -261t107.5 -267.5t258.5 -103.5q184 2 322 166v373q-153 192 -350 192z" glyph-name="dcaron" horiz-adv-x="1507" unicode="ď"/><glyph d="M577 1438q196 0 356.5 -41t287.5 -123t197.5 -221.5t70.5 -325.5q0 -352 -245 -541.5t-666 -189.5q-246 0 -353 4v666h-168v147h168v621q156 4 352 4zM1247 721q0 137 -55 237.5t-193.5 180.5t-373.5 80h-162v-406h305v-147h-305v-451q80 -4 164 0q279 6 449.5 133 t170.5 373z" glyph-name="Dcroat" horiz-adv-x="1603" unicode="Đ"/><glyph d="M1380 1206h-139v-1206h-213l-6 154q-188 -170 -393 -170t-366 155.5t-161 419.5t148.5 409.5t364.5 145.5t401 -194v286h-332v160h332v115h225v-115h139v-160zM328 555q0 -162 107.5 -267.5t258.5 -103.5q185 2 322 166v373q-154 193 -350 192q-141 0 -239.5 -99 t-98.5 -261z" glyph-name="dcroat" horiz-adv-x="1431" unicode="đ"/><glyph d="M1059 1563h-697v157h697v-157zM1206 1217h-760v-392h580v-204h-580v-404h809v-217h-1048v1434h999v-217z" glyph-name="Emacron" horiz-adv-x="1357" unicode="Ē"/><glyph d="M1063 1309h-696v159h696v-159zM739 -18q-264 0 -450.5 152.5t-186.5 417.5t175 423.5t425 154.5q190 -2 329.5 -99t196 -248.5t17.5 -317.5l-907 2q29 -141 140.5 -217t264.5 -74q213 2 377 152l113 -164q-82 -74 -209 -128t-285 -54zM338 651h690q8 115 -83 199t-235 85 t-244.5 -74t-127.5 -210z" glyph-name="emacron" unicode="ē"/><glyph d="M733 1778q45 0 77 -31t32 -76t-33 -76.5t-75 -31.5t-75.5 31.5t-33.5 76.5t31.5 76t76.5 31zM1206 1217h-760v-392h580v-204h-580v-404h809v-217h-1048v1434h999v-217z" glyph-name="Edotaccent" horiz-adv-x="1357" unicode="Ė"/><glyph d="M729 1298q-43 0 -75.5 32t-32.5 77t31.5 75.5t76.5 30.5t77 -30.5t32 -75.5t-33 -77t-76 -32zM739 -18q-264 0 -450.5 152.5t-186.5 417.5t175 423.5t425 154.5q190 -2 329.5 -99t196 -248.5t17.5 -317.5l-907 2q29 -141 140.5 -217t264.5 -74q213 2 377 152l113 -164 q-82 -74 -209 -128t-285 -54zM338 651h690q8 115 -83 199t-235 85t-244.5 -74t-127.5 -210z" glyph-name="edotaccent" unicode="ė"/><glyph d="M1255 0h-352q-131 -59 -135 -152q-2 -45 33 -70.5t97 -22.5t132 50l51 -77q-105 -86 -209 -88t-169.5 48t-65.5 130q0 51 30.5 100t86.5 82h-547v1434h999v-217h-760v-392h580v-204h-580v-404h809v-217z" glyph-name="Eogonek" horiz-adv-x="1357" unicode="Ę"/><glyph d="M520 -197q0 117 121 185q-231 29 -385 177t-154 400t175 410.5t425 154.5q190 -2 329.5 -99t196 -248.5t17.5 -317.5l-907 2q29 -141 140.5 -217t264.5 -74q213 2 375 150l115 -162q-186 -168 -453 -180q-125 -57 -129 -150q-2 -45 33.5 -70.5t97.5 -22.5t131 50l50 -78 q-102 -86 -208 -88t-170.5 48.5t-64.5 129.5zM338 651h690q8 115 -83 199t-235 85t-244.5 -74t-127.5 -210z" glyph-name="eogonek" unicode="ę"/><glyph d="M813 1567h-164l-186 215l127 92l139 -174l137 174l131 -92zM1206 1217h-760v-392h580v-204h-580v-404h809v-217h-1048v1434h999v-217z" glyph-name="Ecaron" horiz-adv-x="1357" unicode="Ě"/><glyph d="M629 1276l-187 215l127 92l140 -174l137 174l131 -92l-184 -215h-164zM739 -18q-264 0 -450.5 152.5t-186.5 417.5t175 423.5t425 154.5q190 -2 329.5 -99t196 -248.5t17.5 -317.5l-907 2q29 -141 140.5 -217t264.5 -74q213 2 377 152l113 -164q-82 -74 -209 -128 t-285 -54zM338 651h690q8 115 -83 199t-235 85t-244.5 -74t-127.5 -210z" glyph-name="ecaron" unicode="ě"/><glyph d="M922 180q180 0 342 94v285h-387v211h620v-627q-253 -180 -589 -181t-565.5 211.5t-227.5 534.5t225 538t565 220q233 4 463 -102l-78 -211q-182 102 -397 95t-376 -156.5t-162 -378.5t161 -381t406 -152zM941 -166q58 0 101 -45t43 -132t-73.5 -154.5t-177.5 -71.5l8 82 q78 14 90 88q-49 -10 -87 21.5t-38 85.5t38 90t96 36z" glyph-name="Gcommaaccent" horiz-adv-x="1615" unicode="Ģ"/><glyph d="M765 1599q58 0 101 -45.5t43 -131.5t-73.5 -154t-178.5 -72l9 82q78 14 90 88q-49 -10 -87 22.5t-38 86t38 89t96 35.5zM616 1114q213 0 383 -180l9 164h215v-1059q0 -139 -49.5 -244.5t-169.5 -191.5t-347 -86t-448 129l76 172q176 -106 345 -106t268 77.5t99 237.5v139 q-153 -166 -367 -166t-371 149.5t-157 411.5t150.5 407.5t363.5 145.5zM670 918q-147 0 -244.5 -98.5t-97.5 -257.5t104 -258t268 -99t297 137v420q-139 156 -327 156z" glyph-name="gcommaaccent" horiz-adv-x="1378" unicode="ģ"/><glyph d="M682 1602h-696v159h696v-159zM440 0h-233v1434h233v-1434z" glyph-name="Imacron" horiz-adv-x="647" unicode="Ī"/><glyph d="M627 1266h-697v159h697v-159zM389 0h-225v1098h225v-1098z" glyph-name="imacron" horiz-adv-x="552" unicode="ī"/><glyph d="M135 -182q0 51 31 100t86 82h-45v1434h233v-1434h-39q-129 -59 -133 -152q-2 -45 32 -70.5t97 -22.5t133 50l50 -77q-106 -86 -210 -88t-169.5 48t-65.5 130z" glyph-name="Iogonek" horiz-adv-x="647" unicode="Į"/><glyph d="M273 1241q-52 0 -91 38t-39 90t39 90t93 38t93.5 -37t39.5 -90t-41.5 -91t-93.5 -38zM123 -182q0 113 119 182h-78v1098h225v-1098q-129 -59 -133 -152q-2 -45 32 -70.5t98 -22.5t132 52l49 -79q-101 -86 -207 -88t-171.5 48t-65.5 130z" glyph-name="iogonek" horiz-adv-x="552" unicode="į"/><glyph d="M389 0h-225v1098h225v-1098z" glyph-name="dotlessi" horiz-adv-x="552" unicode="ı"/><glyph d="M444 0h-237v1434h237v-797l662 797h278l-512 -611l592 -823h-295l-446 641l-279 -328v-313zM760 -166q57 0 100 -45t43 -132t-72.5 -154.5t-177.5 -71.5l9 82q76 14 90 88q-49 -10 -87 21.5t-38 85.5t38 90t95 36z" glyph-name="Kcommaaccent" horiz-adv-x="1443" unicode="Ķ"/><glyph d="M414 0h-224v1481h224v-936l499 553h291l-416 -449l480 -649h-293l-340 485l-221 -237v-248zM633 -125q57 0 100 -45t43 -132t-73.5 -154.5t-176.5 -71.5l6 82q78 14 91 88q-49 -10 -86 22.5t-37 85.5t38 89t95 36z" glyph-name="kcommaaccent" horiz-adv-x="1284" unicode="ķ"/><glyph d="M616 1855l-190 -317l-170 70l135 284zM446 217h756v-217h-995v1434h239v-1217z" glyph-name="Lacute" horiz-adv-x="1214" unicode="Ĺ"/><glyph d="M535 1901l-191 -320l-170 72l135 284zM416 0h-226v1481h226v-1481z" glyph-name="lacute" horiz-adv-x="606" unicode="ĺ"/><glyph d="M446 217h756v-217h-995v1434h239v-1217zM704 -166q57 0 100.5 -45t43.5 -132t-74 -154.5t-176 -71.5l8 82q76 14 90 88q-49 -10 -87 21.5t-38 84.5t38 90t95 37z" glyph-name="Lcommaaccent" horiz-adv-x="1214" unicode="Ļ"/><glyph d="M416 0h-226v1481h226v-1481zM299 -135q57 0 100 -45t43 -132t-72.5 -155t-176.5 -72l8 82q76 14 90 88q-49 -10 -87 23t-38 86t38 89t95 36z" glyph-name="lcommaaccent" horiz-adv-x="606" unicode="ļ"/><glyph d="M446 217h756v-217h-995v1434h239v-1217z" glyph-name="Lcaron" horiz-adv-x="1214" unicode="Ľ"/><glyph d="M532.5 1658q30.5 40 86.5 49t105.5 -29t62.5 -122t-49 -161.5t-163 -96.5l-4 80q74 25 76 101q-45 -16 -87 9.5t-50 77.5t22.5 92zM416 0h-226v1481h226v-1481z" glyph-name="lcaron" horiz-adv-x="710" unicode="ľ"/><glyph d="M446 217h756v-217h-995v1434h239v-1217zM751.5 895q51.5 0 88.5 -37t37 -89t-38 -88t-88 -36t-86 37t-36 88t35.5 88t87 37z" glyph-name="Ldot" horiz-adv-x="1214" unicode="Ŀ"/><glyph d="M416 0h-226v1481h226v-1481zM632 932q54 0 94 -39t40 -94.5t-41 -95t-94 -39.5t-92 39.5t-39 95t39 94.5t93 39z" glyph-name="ldot" horiz-adv-x="606" unicode="ŀ"/><glyph d="M1245 217v-217h-995v520l-100 -41l-58 146l158 65v744h242v-646l311 127l57 -143l-368 -151v-404h753z" glyph-name="Lslash" horiz-adv-x="1257" unicode="Ł"/><glyph d="M492 0h-226v514l-157 -80l-62 141l219 111v795h226v-680l192 96l59 -141l-251 -127v-629z" glyph-name="lslash" horiz-adv-x="790" unicode="ł"/><glyph d="M1087 1878l-190 -319l-170 71l135 285zM1499 0h-223l-830 1055v-1055h-239v1434h237l813 -1043v1043h242v-1434z" glyph-name="Nacute" horiz-adv-x="1705" unicode="Ń"/><glyph d="M954 1614l-190 -320l-170 72l135 285zM799 1120q180 0 299 -127t119 -350v-643h-226v625q0 135 -69.5 215t-188.5 80q-199 0 -352 -230v-690h-225v1098h219l6 -209q193 231 418 231z" glyph-name="nacute" horiz-adv-x="1357" unicode="ń"/><glyph d="M1499 0h-223l-830 1055v-1055h-239v1434h237l813 -1043v1043h242v-1434zM894 -166q58 0 101 -45t43 -132t-73.5 -154.5t-178.5 -71.5l9 82q78 14 90 88q-49 -10 -87 21.5t-38 85.5t38 90t96 36z" glyph-name="Ncommaaccent" horiz-adv-x="1705" unicode="Ņ"/><glyph d="M799 1120q180 0 299 -127t119 -350v-643h-226v625q0 135 -69.5 215t-188.5 80q-199 0 -352 -230v-690h-225v1098h219l6 -209q193 231 418 231zM724 -160q58 0 101 -45t43 -132t-73.5 -154.5t-178.5 -71.5l9 82q78 14 90 88q-49 -10 -87 21.5t-38 85.5t38 90t96 36z" glyph-name="ncommaaccent" horiz-adv-x="1357" unicode="ņ"/><glyph d="M961 1571h-166l-187 215l127 94l139 -176l140 174l131 -90zM1499 0h-223l-830 1055v-1055h-239v1434h237l813 -1043v1043h242v-1434z" glyph-name="Ncaron" horiz-adv-x="1705" unicode="Ň"/><glyph d="M801 1294h-164l-186 215l127 95l139 -177l137 175l131 -91zM799 1120q180 0 299 -127t119 -350v-643h-226v625q0 135 -69.5 215t-188.5 80q-199 0 -352 -230v-690h-225v1098h219l6 -209q193 231 418 231z" glyph-name="ncaron" horiz-adv-x="1357" unicode="ň"/><glyph d="M1499 1434v-1434q-10 -356 -184 -523t-500 -167l-2 217q207 2 322.5 127t124.5 366l-814 1035v-1055h-239v1434h237l813 -1043v1043h242z" glyph-name="Eng" horiz-adv-x="1693" unicode="Ŋ"/><glyph d="M799 1120q180 0 299 -127t119 -350v-737q0 -215 -122 -331t-297 -116t-327 84l64 178q109 -70 239 -65q92 2 154.5 67.5t62.5 196.5v705q0 135 -69.5 215t-188.5 80q-199 0 -352 -230v-690h-225v1098h219l6 -209q193 231 418 231z" glyph-name="eng" horiz-adv-x="1357" unicode="ŋ"/><glyph d="M1237 1602h-696v159h696v-159zM876 1458q329 0 544.5 -208t215.5 -538t-209.5 -542.5t-546.5 -212.5t-551 210t-214 543t216 540.5t545 207.5zM876.5 1241q-231.5 0 -375 -147.5t-143.5 -383.5t142.5 -385t378 -149t376 150.5t140.5 384t-143.5 382t-375 148.5z" glyph-name="Omacron" horiz-adv-x="1751" unicode="Ō"/><glyph d="M1012 1272h-697v158h697v-158zM691 1126q249 0 420 -156.5t171 -420.5t-174 -414.5t-418 -150.5t-416 153.5t-172 410.5t170 417.5t419 160.5zM692 930q-152 0 -257 -101.5t-105 -276.5t105.5 -273.5t255.5 -99.5t257 97.5t107 277.5t-105.5 277.5t-257.5 98.5z" glyph-name="omacron" horiz-adv-x="1384" unicode="ō"/><glyph d="M905 1874l-190 -320l-170 72l135 285zM1272 1874l-191 -320l-170 72l136 285zM876 1458q329 0 544.5 -208t215.5 -538t-209.5 -542.5t-546.5 -212.5t-551 210t-214 543t216 540.5t545 207.5zM876.5 1241q-231.5 0 -375 -147.5t-143.5 -383.5t142.5 -385t378 -149 t376 150.5t140.5 384t-143.5 382t-375 148.5z" glyph-name="Ohungarumlaut" horiz-adv-x="1751" unicode="Ő"/><glyph d="M711 1573l-193 -320l-170 72l135 285zM1075 1573l-190 -320l-170 72l135 285zM691 1126q249 0 420 -156.5t171 -420.5t-174 -414.5t-418 -150.5t-416 153.5t-172 410.5t170 417.5t419 160.5zM692 930q-152 0 -257 -101.5t-105 -276.5t105.5 -273.5t255.5 -99.5t257 97.5 t107 277.5t-105.5 277.5t-257.5 98.5z" glyph-name="ohungarumlaut" horiz-adv-x="1384" unicode="ő"/><glyph d="M2523 217v-217h-1048v223q-217 -266 -596 -266q-336 0 -550 210t-214 541.5t217 540.5t545 209q184 0 339.5 -69.5t258.5 -198.5v244h1001v-217h-760v-392h580v-204h-580v-404h807zM878.5 174q235.5 0 376 151.5t140.5 385.5t-144.5 382t-374.5 148t-375 -147.5 t-145 -383.5t143.5 -386t379 -150z" glyph-name="OE" horiz-adv-x="2625" unicode="Œ"/><glyph d="M1738 -12q-165 0 -309.5 65.5t-228.5 190.5q-80 -125 -215 -192.5t-291 -67.5q-248 0 -420 153.5t-172 410.5t170 417.5t422 160.5q156 0 287 -66.5t211 -187.5q80 127 217 197t313 68t315.5 -99.5t196 -249t17.5 -317.5l-908 2q29 -141 140.5 -217t265.5 -74 q213 2 375 150l114 -162q-80 -74 -207.5 -128t-292.5 -54zM1343 657h691q8 115 -83 199t-235 85t-245 -74t-128 -210zM692 178q150 0 256.5 97.5t106.5 277.5t-105.5 278.5t-257.5 98.5t-257 -101.5t-105 -276.5t106 -274.5t256 -99.5z" glyph-name="oe" horiz-adv-x="2369" unicode="œ"/><glyph d="M731 1561l-170 69l135 285l228 -37zM446 0h-239v1434q344 4 475 4q295 0 467 -145.5t172 -383.5q2 -295 -256 -434l262 -475h-274l-222 399q-68 -10 -124 -10l-261 2v-391zM446 1225v-619q137 -2 261 0q174 10 274 91t100 218t-109.5 219.5t-279.5 86.5q-88 4 -246 4z " glyph-name="Racute" horiz-adv-x="1470" unicode="Ŕ"/><glyph d="M725 1569l-190 -318l-170 70l135 285zM687 1118q83 0 161 -37l-53 -192q-55 31 -115 31q-176 0 -299 -226v-694h-225v1098h206l9 -199q59 109 146 164t170 55z" glyph-name="racute" horiz-adv-x="864" unicode="ŕ"/><glyph d="M446 0h-239v1434q344 4 475 4q295 0 467 -145.5t172 -383.5q2 -295 -256 -434l262 -475h-274l-222 399q-68 -10 -124 -10l-261 2v-391zM446 1225v-619q137 -2 261 0q174 10 274 91t100 218t-109.5 219.5t-279.5 86.5q-88 4 -246 4zM731 -166q57 0 100 -45t43 -132 t-72.5 -154.5t-176.5 -71.5l8 82q76 14 90 88q-49 -10 -87 22.5t-38 85.5t38 89t95 36z" glyph-name="Rcommaaccent" horiz-adv-x="1470" unicode="Ŗ"/><glyph d="M687 1118q83 0 161 -37l-53 -192q-55 31 -115 31q-176 0 -299 -226v-694h-225v1098h206l9 -199q59 109 146 164t170 55zM457 -160q57 0 100 -45t43 -132t-72.5 -154.5t-177.5 -71.5l8 82q76 14 91 88q-49 -10 -87 21.5t-38 85.5t38 90t95 36z" glyph-name="rcommaaccent" horiz-adv-x="864" unicode="ŗ"/><glyph d="M653 1577l-184 215l125 94l141 -176l137 174l132 -90l-185 -217h-166zM446 0h-239v1434q344 4 475 4q295 0 467 -145.5t172 -383.5q2 -295 -256 -434l262 -475h-274l-222 399q-68 -10 -124 -10l-261 2v-391zM446 1225v-619q137 -2 261 0q174 10 274 91t100 218 t-109.5 219.5t-279.5 86.5q-88 4 -246 4z" glyph-name="Rcaron" horiz-adv-x="1470" unicode="Ř"/><glyph d="M578 1296h-166l-187 215l127 95l140 -176l139 174l131 -91zM687 1118q83 0 161 -37l-53 -192q-55 31 -115 31q-176 0 -299 -226v-694h-225v1098h206l9 -199q59 109 146 164t170 55z" glyph-name="rcaron" horiz-adv-x="864" unicode="ř"/><glyph d="M944 1886l-190 -319l-170 71l135 285zM729 1456q231 0 461 -108l-72 -209q-197 100 -391 100q-133 0 -218 -50t-83 -140q0 -59 45.5 -93.5t97.5 -50.5t100 -29.5t156 -39.5q217 -51 344 -140.5t127 -275.5q2 -215 -157.5 -331t-405.5 -120q-317 -4 -596 162l88 201 q250 -145 490 -142q152 2 243 61.5t93 154.5q0 54 -21.5 79t-37 39.5t-44 27.5t-51.5 21.5t-61.5 18.5t-64.5 16t-73 17t-110 27q-163 40 -283.5 123t-124.5 263q-2 205 158 311.5t391 106.5z" glyph-name="Sacute" horiz-adv-x="1411" unicode="Ś"/><glyph d="M868 1608l-190 -320l-170 72l135 285zM621 936q-111 0 -178.5 -42t-67.5 -108q0 -43 38 -68t80 -32.5t68.5 -12.5t167 -26t259 -100.5t119.5 -243.5t-138.5 -248t-341.5 -84q-270 2 -516 144l79 178q203 -129 437 -125q111 0 184.5 37t71.5 104q0 92 -108.5 111.5 t-160 30t-106.5 20.5q-130 24 -244 89.5t-115 227.5t133.5 253t340.5 89t403 -92l-55 -186q-174 84 -350 84z" glyph-name="sacute" horiz-adv-x="1214" unicode="ś"/><glyph d="M729 1456q231 0 461 -108l-72 -209q-197 100 -391 100q-133 0 -218 -50t-83 -140q0 -59 45.5 -93.5t97.5 -50.5t100 -29.5t156 -39.5q217 -51 344 -140.5t128 -279.5q1 -191 -130 -304.5t-344 -136.5l-125 -282l-147 53l133 225q-295 8 -547 160l88 201 q250 -145 490 -142q152 2 243 61.5t93 154.5q0 54 -21.5 79t-37 39.5t-44 27.5t-51.5 21.5t-61.5 18.5t-64.5 16t-73 17t-110 27q-163 40 -283.5 123t-124.5 263q-2 205 158 311.5t391 106.5z" glyph-name="Scedilla" horiz-adv-x="1411" unicode="Ş"/><glyph d="M621 936q-111 0 -178.5 -42t-67.5 -108q0 -43 38 -68t80 -32.5t68.5 -12.5t167 -26t259 -100.5t119.5 -232.5t-104.5 -234.5t-271.5 -102.5l-119 -264l-147 51l123 209q-260 12 -477 142l79 178q203 -129 437 -125q111 0 184.5 37t71.5 104q0 92 -108.5 111.5t-160 30 t-106.5 20.5q-130 24 -244 89.5t-115 227.5t134 253t341 89t402 -92l-55 -186q-174 84 -350 84z" glyph-name="scedilla" horiz-adv-x="1214" unicode="ş"/><glyph d="M805 1587h-164l-186 215l127 94l139 -176l137 174l131 -90zM729 1456q231 0 461 -108l-72 -209q-197 100 -391 100q-133 0 -218 -50t-83 -140q0 -59 45.5 -93.5t97.5 -50.5t100 -29.5t156 -39.5q217 -51 344 -140.5t127 -275.5q2 -215 -157.5 -331t-405.5 -120 q-317 -4 -596 162l88 201q250 -145 490 -142q152 2 243 61.5t93 154.5q0 54 -21.5 79t-37 39.5t-44 27.5t-51.5 21.5t-61.5 18.5t-64.5 16t-73 17t-110 27q-163 40 -283.5 123t-124.5 263q-2 205 158 311.5t391 106.5z" glyph-name="Scaron" horiz-adv-x="1411" unicode="Š"/><glyph d="M715 1284h-166l-187 215l127 94l140 -176l139 174l131 -90zM621 936q-111 0 -178.5 -42t-67.5 -108q0 -43 38 -68t80 -32.5t68.5 -12.5t167 -26t259 -100.5t119.5 -243.5t-138.5 -248t-341.5 -84q-270 2 -516 144l79 178q203 -129 437 -125q111 0 184.5 37t71.5 104 q0 92 -108.5 111.5t-160 30t-106.5 20.5q-130 24 -244 89.5t-115 227.5t133.5 253t340.5 89t403 -92l-55 -186q-174 84 -350 84z" glyph-name="scaron" horiz-adv-x="1214" unicode="š"/><glyph d="M1251 1434v-217h-499v-1217h-25l-131 -293l-147 51l143 242h-80v1217h-500v217h1239z" glyph-name="Tcommaaccent" horiz-adv-x="1263" unicode="Ţ"/><glyph d="M283 391v512h-222v195h222v336h225v-336h354v-195h-354v-504q0 -113 57.5 -167t150.5 -56t204 70l63 -180q-131 -82 -283 -86l-118 -267l-148 51l135 230q-133 33 -209.5 138.5t-76.5 258.5z" glyph-name="tcommaaccent" horiz-adv-x="1017" unicode="ţ"/><glyph d="M721 1569h-166l-186 215l127 92l139 -174l139 174l131 -92zM1251 1217h-499v-1217h-240v1217h-500v217h1239v-217z" glyph-name="Tcaron" horiz-adv-x="1263" unicode="Ť"/><glyph d="M707 1604.5q31 40.5 87 49.5t105 -29t61 -123t-49 -161.5t-161 -95.5l-5 80q74 25 76 100q-45 -16 -87 9.5t-50 77.5t23 92.5zM508 1098h354v-195h-354v-504q0 -113 57.5 -167t150.5 -56t204 70l65 -180q-149 -86 -315 -86t-276.5 113.5t-110.5 297.5v512h-222v195h222 v336h225v-336z" glyph-name="tcaron" horiz-adv-x="1017" unicode="ť"/><glyph d="M752 1217v-250h252v-158h-252v-809h-240v809h-195v158h195v250h-500v217h1239v-217h-499z" glyph-name="Tbar" horiz-adv-x="1263" unicode="Ŧ"/><glyph d="M670 -20q-166 0 -276.5 113.5t-110.5 297.5v139h-224v156h224v217h-222v195h222v336h225v-336h354v-195h-356v-217h272v-156h-270v-131q0 -113 57.5 -167t150.5 -56t204 70l65 -180q-149 -86 -315 -86z" glyph-name="tbar" horiz-adv-x="1017" unicode="ŧ"/><glyph d="M1165 1602h-696v159h696v-159zM1475 1434v-803q0 -313 -184.5 -493.5t-460.5 -180.5t-465 174t-189 492v811h240v-820q0 -201 109.5 -318.5t298 -117.5t300 120t111.5 318v818h240z" glyph-name="Umacron" horiz-adv-x="1650" unicode="Ū"/><glyph d="M989 1317h-696v160h696v-160zM1198 0h-209l-10 172q-186 -207 -420 -207q-172 0 -292 119t-120 330v684h226v-674q0 -123 72.5 -192.5t181 -69.5t198.5 65.5t148 153.5v717h225v-1098z" glyph-name="umacron" unicode="ū"/><glyph d="M826 2019q112 0 186.5 -68.5t74.5 -178.5t-73.5 -175t-186 -65t-188.5 65.5t-76 175.5t75.5 178t187.5 68zM826 1905q-54 0 -94 -38t-40 -92t40 -91t95.5 -37t94.5 36.5t39 92t-40.5 92.5t-94.5 37zM1475 1434v-803q0 -313 -184.5 -493.5t-460.5 -180.5t-465 174 t-189 492v811h240v-820q0 -201 109.5 -318.5t298 -117.5t300 120t111.5 318v818h240z" glyph-name="Uring" horiz-adv-x="1650" unicode="Ů"/><glyph d="M651.5 1716q110.5 0 186 -69.5t75.5 -177.5t-74.5 -174t-187 -66t-187.5 66.5t-75 173.5t76 177t186.5 70zM652 1602q-54 0 -94 -38t-40 -92t39 -91.5t94.5 -37.5t94 37t38.5 92.5t-39 92.5t-93 37zM1198 0h-209l-10 172q-186 -207 -420 -207q-172 0 -292 119t-120 330 v684h226v-674q0 -123 72.5 -192.5t181 -69.5t198.5 65.5t148 153.5v717h225v-1098z" glyph-name="uring" unicode="ů"/><glyph d="M797 1876l-191 -320l-170 72l135 285zM1161 1876l-190 -320l-170 72l135 285zM1475 1434v-803q0 -313 -184.5 -493.5t-460.5 -180.5t-465 174t-189 492v811h240v-820q0 -201 109.5 -318.5t298 -117.5t300 120t111.5 318v818h240z" glyph-name="Uhungarumlaut" horiz-adv-x="1650" unicode="Ű"/><glyph d="M639 1565l-190 -320l-170 72l135 285zM1004 1565l-191 -320l-170 72l135 285zM1198 0h-209l-10 172q-186 -207 -420 -207q-172 0 -292 119t-120 330v684h226v-674q0 -123 72.5 -192.5t181 -69.5t198.5 65.5t148 153.5v717h225v-1098z" glyph-name="uhungarumlaut" unicode="ű"/><glyph d="M1475 1434v-803q0 -297 -166 -474t-424 -196q-121 -59 -125 -149q-2 -45 32.5 -71t98.5 -23t131 53l49 -80q-101 -86 -207 -88t-170.5 49t-64.5 131q0 113 112 180q-244 27 -404.5 198t-160.5 462v811h240v-820q0 -201 109.5 -318.5t298 -117.5t300 120t111.5 318v818 h240z" glyph-name="Uogonek" horiz-adv-x="1650" unicode="Ų"/><glyph d="M930 -182q0 51 30.5 100t86.5 82h-58l-10 172q-186 -207 -420 -207q-172 0 -292 119t-120 330v684h226v-674q0 -123 72.5 -192.5t181 -69.5t198.5 65.5t148 153.5v717h225v-1098h-4q-129 -59 -133 -152q-2 -45 32.5 -70.5t96.5 -22.5t133 50l49 -77q-102 -86 -208 -88 t-170 48t-64 130z" glyph-name="uogonek" unicode="ų"/><glyph d="M1260 1575l-142 215l-147 -217l-125 82l186 243h170l184 -243zM1739 0h-230l-389 1071l-368 -1071h-232l-481 1434h242l358 -1119l379 1119h201l397 -1119l334 1119h241z" glyph-name="Wcircumflex" horiz-adv-x="2230" unicode="Ŵ"/><glyph d="M1051 1237l-142 215l-147 -217l-125 82l184 246h170l187 -246zM1421 0h-247l-267 774l-264 -774h-248l-354 1098h229l250 -809l289 809h199l288 -819l250 819h230z" glyph-name="wcircumflex" horiz-adv-x="1816" unicode="ŵ"/><glyph d="M930 1575l-142 215l-147 -217l-125 82l184 243h170l187 -243zM913 0h-260l-2 569l-588 865h291l430 -646l433 646h288l-592 -871v-563z" glyph-name="Ycircumflex" horiz-adv-x="1568" unicode="Ŷ"/><glyph d="M518 1235l-125 82l185 246h170l184 -246l-127 -80l-141 215zM1335 1096l-825 -1719h-260l301 615l-528 1106h260l391 -854l401 854z" glyph-name="ycircumflex" horiz-adv-x="1320" unicode="ŷ"/><glyph d="M629 1831q45 0 76.5 -31t31.5 -76t-32.5 -76.5t-74.5 -31.5t-76 31.5t-34 76.5t32 76t77 31zM946 1831q45 0 77 -31t32 -76t-33 -76.5t-76 -31.5t-75.5 31.5t-32.5 76.5t31.5 76t76.5 31zM913 0h-260l-2 569l-588 865h291l430 -646l433 646h288l-592 -871v-563z" glyph-name="Ydieresis" horiz-adv-x="1568" unicode="Ÿ"/><glyph d="M936 1903l-191 -318l-170 70l136 284zM1339 219v-219h-1237v199l920 1020h-877v215h1188v-207l-905 -1008h911z" glyph-name="Zacute" horiz-adv-x="1445" unicode="Ź"/><glyph d="M807 1591l-193 -317l-170 69l136 285zM106 0v135l637 768h-600v195h899v-146l-628 -757h653l2 -195h-963z" glyph-name="zacute" horiz-adv-x="1171" unicode="ź"/><glyph d="M752 1806q45 0 76.5 -30.5t31.5 -76.5t-32.5 -78t-75.5 -32t-76 32t-33 78t32 76.5t77 30.5zM1339 219v-219h-1237v199l920 1020h-877v215h1188v-207l-905 -1008h911z" glyph-name="Zdotaccent" horiz-adv-x="1445" unicode="Ż"/><glyph d="M590 1493q45 0 76.5 -30.5t31.5 -76.5t-32.5 -78t-75.5 -32t-76 31.5t-33 77.5t32 77t77 31zM106 0v135l637 768h-600v195h899v-146l-628 -757h653l2 -195h-963z" glyph-name="zdotaccent" horiz-adv-x="1171" unicode="ż"/><glyph d="M817 1591h-166l-186 215l127 95l139 -177l139 174l131 -90zM1339 219v-219h-1237v199l920 1020h-877v215h1188v-207l-905 -1008h911z" glyph-name="Zcaron" horiz-adv-x="1445" unicode="Ž"/><glyph d="M690 1280h-166l-186 215l127 94l139 -176l139 174l131 -90zM106 0v135l637 768h-600v195h899v-146l-628 -757h653l2 -195h-963z" glyph-name="zcaron" horiz-adv-x="1171" unicode="ž"/><glyph d="M796 1460q136 0 275 -63l-53 -148q-78 51 -165 48t-145.5 -64.5t-58.5 -190.5v-161h256v-154h-256v-321q0 -205 -102.5 -306.5t-255.5 -101.5q-109 0 -258 68l53 149q78 -51 165 -48t145.5 64.5t58.5 190.5v305h-152v154h152v176q0 203 102.5 303t238.5 100z" glyph-name="florin" horiz-adv-x="1095" unicode="ƒ"/><glyph d="M1071 1569l-141 215l-146 -217l-125 82l185 245h170l184 -245z" glyph-name="circumflex" horiz-adv-x="1245" unicode="ˆ"/><glyph d="M1018 1630h-164l-186 215l127 94l139 -176l137 174l131 -90z" glyph-name="caron" horiz-adv-x="1308" unicode="ˇ"/><glyph d="M951 1591q-128 0 -211 67.5t-119 178.5l153 47q18 -66 65.5 -101.5t112.5 -35.5q131 0 172 137l152 -47q-31 -111 -114 -178.5t-211 -67.5z" glyph-name="breve" horiz-adv-x="1302" unicode="˘"/><glyph d="M770 1831q45 0 78 -31t33 -76t-34 -76.5t-76 -31.5t-75.5 31.5t-33.5 76.5t31.5 76t76.5 31z" glyph-name="dotaccent" horiz-adv-x="1284" unicode="˙"/><glyph d="M884.5 2019q110.5 0 186.5 -69.5t76 -177.5t-75 -174t-187.5 -66t-187 66t-74.5 174t75.5 177.5t186 69.5zM886 1905q-54 0 -94 -38t-40 -92t38.5 -91t94 -37t94.5 36.5t39 92t-39 92.5t-93 37z" glyph-name="ring" horiz-adv-x="1298" unicode="˚"/><glyph d="M367 -192q0 70 43 127t116 85l107 -2v-18q-129 -59 -133 -152q-2 -45 31.5 -70.5t97.5 -22.5t133 50l49 -77q-101 -86 -207 -88t-171.5 48t-65.5 120z" glyph-name="ogonek" horiz-adv-x="1253" unicode="˛"/><glyph d="M1106 1710q80 0 123 107l112 -50q-18 -84 -80.5 -140t-144.5 -56t-190.5 62.5t-159.5 62.5q-86 10 -125 -103l-113 58q18 84 83 138t152 52t192.5 -66.5t150.5 -64.5z" glyph-name="tilde" horiz-adv-x="1304" unicode="˜"/><glyph d="M1014 1903l-193 -318l-170 70l135 284zM1378 1903l-190 -318l-170 70l135 284z" glyph-name="hungarumlaut" horiz-adv-x="1318" unicode="˝"/><glyph d="M310 -166q58 0 101.5 -45t43.5 -132t-74 -154.5t-178 -71.5l8 82q78 14 90 88q-49 -10 -87 21.5t-38 85.5t38 90t96 36z" glyph-name="uni0326" horiz-adv-x="0" unicode="̦"/><glyph d="M432 121v4q-127 106 -211 274t-84 367q0 301 183.5 496.5t469.5 195.5t457.5 -194.5t171.5 -483.5q0 -207 -84 -374.5t-213 -280.5v-4h318v-121h-498v98q147 111 234.5 281t87.5 391t-127 393t-351 172t-357.5 -172t-133.5 -389t91 -393t232 -283v-98h-501v121h315z" glyph-name="Omega" horiz-adv-x="1554" unicode="Ω"/><glyph d="M1239 899v-557q0 -223 37 -342h-221q-41 55 -41 315v584h-455q-10 -221 -63.5 -503.5t-116.5 -395.5h-221q66 145 119 417.5t61 481.5q-209 0 -295 -29l-31 129q106 63 387 64h1069l-22 -164h-207z" glyph-name="pi" horiz-adv-x="1511" unicode="π"/><glyph d="M1307 1655l-170 -70l-191 318l225 36zM1739 0h-230l-389 1071l-368 -1071h-232l-481 1434h242l358 -1119l379 1119h201l397 -1119l334 1119h241z" glyph-name="Wgrave" horiz-adv-x="2230" unicode="Ẁ"/><glyph d="M1098 1319l-170 -72l-191 320l226 37zM1421 0h-247l-267 774l-264 -774h-248l-354 1098h229l250 -809l289 809h199l288 -819l250 819h230z" glyph-name="wgrave" horiz-adv-x="1816" unicode="ẁ"/><glyph d="M1341 1903l-190 -318l-170 70l135 284zM1739 0h-230l-389 1071l-368 -1071h-232l-481 1434h242l358 -1119l379 1119h201l397 -1119l334 1119h241z" glyph-name="Wacute" horiz-adv-x="2230" unicode="Ẃ"/><glyph d="M1133 1567l-193 -320l-170 72l135 285zM1421 0h-247l-267 774l-264 -774h-248l-354 1098h229l250 -809l289 809h199l288 -819l250 819h230z" glyph-name="wacute" horiz-adv-x="1816" unicode="ẃ"/><glyph d="M959 1831q45 0 77.5 -31t32.5 -76t-33.5 -76.5t-75.5 -31.5t-76 31.5t-34 76.5t32 76t77 31zM1276 1831q45 0 76.5 -31t31.5 -76t-32.5 -76.5t-75.5 -31.5t-76 31.5t-33 76.5t32 76t77 31zM1739 0h-230l-389 1071l-368 -1071h-232l-481 1434h242l358 -1119l379 1119h201 l397 -1119l334 1119h241z" glyph-name="Wdieresis" horiz-adv-x="2230" unicode="Ẅ"/><glyph d="M750 1495q45 0 76.5 -30.5t31.5 -76.5t-32.5 -78t-75.5 -32t-76 32t-33 78t32 76.5t77 30.5zM1067 1495q45 0 77 -30.5t32 -76.5t-33 -78t-76 -32t-76 32t-33 78t32 76.5t77 30.5zM1421 0h-247l-267 774l-264 -774h-248l-354 1098h229l250 -809l289 809h199l288 -819 l250 819h230z" glyph-name="wdieresis" horiz-adv-x="1816" unicode="ẅ"/><glyph d="M977 1655l-170 -70l-191 318l226 36zM913 0h-260l-2 569l-588 865h291l430 -646l433 646h288l-592 -871v-563z" glyph-name="Ygrave" horiz-adv-x="1568" unicode="Ỳ"/><glyph d="M684 1247l-192 320l227 37l135 -285zM1335 1096l-825 -1719h-260l301 615l-528 1106h260l391 -854l401 854z" glyph-name="ygrave" horiz-adv-x="1320" unicode="ỳ"/><glyph d="M887 623h-809v190h809v-190z" glyph-name="endash" horiz-adv-x="964" unicode="–"/><glyph d="M1161 623h-1083v190h1083v-190z" glyph-name="emdash" horiz-adv-x="1236" unicode="—"/><glyph d="M239.5 1226q-30.5 -40 -86.5 -49t-105.5 28.5t-61.5 122.5t49 162t164 95l2 -80q-74 -27 -74 -100q45 16 86 -9.5t49 -77.5t-22.5 -92z" glyph-name="quoteleft" horiz-adv-x="284" unicode="‘"/><glyph d="M46 1608q32 41 87 50t104.5 -29.5t61.5 -122.5t-49.5 -161t-161.5 -96l-4 80q74 25 76 101q-45 -16 -87 9t-50.5 76.5t23.5 92.5z" glyph-name="quoteright" horiz-adv-x="284" unicode="’"/><glyph d="M232 227q58 0 101.5 -45t43.5 -132t-74 -154.5t-178 -71.5l8 82q78 14 90 88q-49 -10 -87 22.5t-38 86t38 89t96 35.5z" glyph-name="quotesinglbase" horiz-adv-x="477" unicode="‚"/><glyph d="M239.5 1226q-30.5 -40 -86.5 -49t-105.5 28.5t-61.5 122.5t49 162t164 95l2 -80q-74 -27 -74 -100q45 16 86 -9.5t49 -77.5t-22.5 -92zM548.5 1226q-30.5 -40 -86.5 -49t-105.5 28.5t-62.5 122.5t49.5 162t162.5 95l4 -80q-74 -25 -76 -100q45 16 87 -9.5t50 -77.5 t-22.5 -92z" glyph-name="quotedblleft" horiz-adv-x="593" unicode="“"/><glyph d="M46 1608q32 41 87 50t104.5 -29.5t61.5 -122.5t-49.5 -161t-161.5 -96l-4 80q74 25 76 101q-45 -16 -87 9t-50.5 76.5t23.5 92.5zM359.5 1608q31.5 41 87.5 50t104.5 -29.5t61.5 -122.5t-48 -161t-164 -96l-2 80q72 25 74 101q-45 -16 -87 9t-50 76.5t23.5 92.5z" glyph-name="quotedblright" horiz-adv-x="600" unicode="”"/><glyph d="M232 227q58 0 101.5 -45t43.5 -132t-74 -154.5t-178 -71.5l8 82q78 14 90 88q-49 -10 -87 22.5t-38 86t38 89t96 35.5zM554 227q58 0 101 -45t43 -132t-73.5 -154.5t-178.5 -71.5l9 82q78 14 90 88q-49 -10 -87 22.5t-38 86t38 89t96 35.5z" glyph-name="quotedblbase" horiz-adv-x="798" unicode="„"/><glyph d="M907 942h-295v-1130h-217v1130h-297v191h297v407h217v-407h295v-191z" glyph-name="dagger" horiz-adv-x="974" unicode="†"/><glyph d="M612 942v-444h295v-191h-295v-495h-217v495h-297v191h297v444h-297v191h297v407h217v-407h295v-191h-295z" glyph-name="daggerdbl" horiz-adv-x="974" unicode="‡"/><glyph d="M387.5 834q63.5 0 108.5 -46t45 -110t-46 -109t-107.5 -45t-108 46t-46.5 109.5t45.5 109t109 45.5z" glyph-name="bullet" horiz-adv-x="765" unicode="•"/><glyph d="M232 244q54 0 93.5 -40t39.5 -95t-40.5 -94.5t-94.5 -39.5t-93 38.5t-39 94.5t40 96t94 40zM642 244q54 0 93 -40t39 -95t-40 -94.5t-94 -39.5t-93 38.5t-39 94.5t40 96t94 40zM1040.5 244q55.5 0 94.5 -40t39 -95t-40 -94.5t-93.5 -39.5t-93.5 38.5t-40 94.5t39 96 t94.5 40z" glyph-name="ellipsis" horiz-adv-x="1273" unicode="…"/><glyph d="M444 1464q139 0 227.5 -92t88.5 -224t-88 -221t-226 -89t-230.5 88t-92.5 223t91 225t230 90zM455 0h-197l930 1434h196zM446.5 1335q-81.5 0 -135 -54t-53.5 -132t53.5 -132t135 -54t134 54t52.5 132t-52.5 132t-134 54zM1232 606q138 0 227 -93t89 -225t-88 -221.5 t-226 -89.5t-231.5 89.5t-93.5 223.5t92.5 225t230.5 91zM2001 606q137 0 227 -93t90 -224t-89 -221.5t-226 -90.5t-230.5 89.5t-93.5 223.5t92.5 225t229.5 91zM1232 473q-81 0 -132 -53t-51 -130t52 -131.5t132 -54.5t132 54.5t52 130.5t-52 130t-133 54zM2002 473 q-81 0 -133 -53t-52 -130t52 -131.5t133 -54.5t132 54.5t51 131.5t-51 130t-132 53z" glyph-name="perthousand" horiz-adv-x="2424" unicode="‰"/><glyph d="M305 555l492 -555h-232l-491 555l487 543h232z" glyph-name="guilsinglleft" horiz-adv-x="839" unicode="‹"/><glyph d="M258 1098l487 -543l-491 -555h-231l491 555l-487 543h231z" glyph-name="guilsinglright" horiz-adv-x="888" unicode="›"/><glyph d="M279 0h-197l930 1434h196z" glyph-name="fraction" horiz-adv-x="1280" unicode="⁄"/><glyph d="M616 940h109v-113h-109v-157h-141v157h-409v99l393 508h157v-494zM477 938v324l-260 -324h260z" glyph-name="uni2074" horiz-adv-x="817" unicode="⁴"/><glyph d="M895 -45q-254 0 -437.5 145.5t-240.5 395.5h-145v129h125q-4 31 -4 92v37h-121v133h135q49 268 238.5 428t450.5 160t456 -158l-88 -170q-160 121 -342 121t-302 -102.5t-161 -278.5h561v-133h-578l-2 -35q0 -47 6 -94h574v-127h-547q49 -154 162 -243t276 -89 q217 0 371 147l98 -168q-190 -190 -485 -190z" glyph-name="Euro" horiz-adv-x="1507" unicode="€"/><glyph d="M279 1038q0 283 114.5 410t289.5 127t264 -103.5t89 -250.5q0 -190 -137 -370.5t-412 -397.5l2 -31q2 -127 83 -198.5t192 -71.5t209 66.5t155 158.5l105 -92q-182 -299 -520 -299q-186 0 -295 97t-135 253v18l-142 -96l-67 117q118 76 205 139v524zM487 635 q381 339 381 557q0 242 -176 242q-82 0 -143.5 -81t-61.5 -255v-463z" glyph-name="afii61289" horiz-adv-x="1296" unicode="ℓ"/><glyph d="M2292 1458q250 0 421 -156.5t171 -420.5t-174 -416t-418 -152t-417 154t-173 412t170 418.5t420 160.5zM1499 0h-223l-830 1053v-1053h-239v1434h237l813 -1043v1043h242v-1434zM2293 1262q-153 0 -258.5 -101.5t-105.5 -277.5t106.5 -274.5t256.5 -99.5t257 97.5 t107 278.5t-105 278.5t-258 98.5zM2816 0h-1040v158h1040v-158z" glyph-name="afii61352" horiz-adv-x="2998" unicode="№"/><glyph d="M860 1217h-285v-601h-239v601h-285v219h809v-219zM1917 616h-240v459l-256 -336l-243 332v-455h-240v820h211l272 -363l285 363h211v-820z" glyph-name="trademark" horiz-adv-x="2019" unicode="™"/><glyph d="M1716 696h-1333q-10 0 -10 -8v-403q0 -27 16 -47q213 -220 517 -220t519 246h117q-111 -133 -283 -210t-368 -77q-340 0 -580.5 216.5t-240.5 523.5t240.5 524t581.5 217t582.5 -217t241.5 -526v-19zM1413 750v405q0 29 -18 47q-217 211 -504 211t-500 -217 q-18 -18 -18 -51v-395q0 -14 10 -15h1022q8 1 8 15z" glyph-name="estimated" horiz-adv-x="1787" unicode="℮"/><glyph d="M924 776v-723l-316 158l-315 -158v723h-201l516 545l512 -545h-196z" glyph-name="arrowup" horiz-adv-x="1263" unicode="↑"/><glyph d="M293 649v723l315 -158l316 158v-723h196l-512 -545l-516 545h201z" glyph-name="arrowdown" horiz-adv-x="1263" unicode="↓"/><glyph d="M640 1597q278 0 474.5 -216t196.5 -572q0 -215 -79 -401.5t-242 -306t-378 -119.5q-129 0 -232.5 47t-194.5 160t-91 280q0 223 158 368.5t389 145.5q166 0 283.5 -83t165.5 -161h4q2 27 2 95q0 270 -141 437t-339 167t-364 -99l-76 131q186 127 464 127zM633 139h4 q168 0 282.5 129t143.5 305q-31 84 -135 169t-250 85t-255.5 -100.5t-109.5 -246.5t90.5 -243.5t229.5 -97.5z" glyph-name="partialdiff" horiz-adv-x="1431" unicode="∂"/><glyph d="M70 0v127l655 1341h266l651 -1341v-127h-1572zM307 162h1079l-368 776q-154 334 -166 369h-12q-29 -78 -148 -330z" glyph-name="uni2206" horiz-adv-x="1712" unicode="∆"/><glyph d="M1765 1251h-295v-1448h-210v1448h-701v-1448h-211v1448h-295v174h1712v-174z" glyph-name="product" horiz-adv-x="1820" unicode="∏"/><glyph d="M1397 -197h-1348v117l680 686l-645 686v133h1272v-176h-957v-6l584 -618l-627 -637v-6h1041v-179z" glyph-name="summation" horiz-adv-x="1447" unicode="∑"/><glyph d="M1262 571h-967v189h967v-189z" glyph-name="minus" horiz-adv-x="1556" unicode="−"/><glyph d="M366.5 827q55.5 0 94.5 -39.5t39 -95t-41 -95.5t-94 -40t-92.5 40t-39.5 95.5t39 95t94.5 39.5z" glyph-name="uni2219" horiz-adv-x="716" unicode="∙"/><glyph d="M1495 1688l-586 -2001h-186l-414 938l-188 -74l-45 111l358 143l334 -803q29 -68 47 -129h4q5 28 35 135l477 1680h164z" glyph-name="radical" horiz-adv-x="1462" unicode="√"/><glyph d="M1726 592v-2q0 -168 -109.5 -273.5t-256.5 -105.5q-104 0 -206.5 66.5t-229.5 214.5q-80 -90 -131.5 -140.5t-137.5 -95.5t-176 -45q-147 0 -253.5 106.5t-106.5 266.5t108.5 267t270.5 107q121 0 223 -72.5t215 -205.5q129 143 186 186q122 94 266 92t241 -103t97 -263z M496 332h2q64 0 145 46t213 200q-61 74 -82.5 98t-96.5 95t-188 71q-112 0 -176.5 -76t-64.5 -182t69.5 -179t178.5 -73zM1362 842h-2q-55 0 -115.5 -33t-88.5 -57.5t-91 -94.5l-66 -69q125 -139 205 -197.5t174 -58.5t156.5 75.5t62.5 184.5t-65.5 179.5t-169.5 70.5z" glyph-name="infinity" horiz-adv-x="1847" unicode="∞"/><glyph d="M790 1460q136 0 273 -63l-51 -135q-78 53 -166 49t-146.5 -65.5t-58.5 -190.5v-649q0 -205 -102.5 -306.5t-253.5 -101.5q-113 0 -258 68l51 133q86 -51 170 -48t142.5 64t58.5 191v651q0 203 102.5 303t238.5 100z" glyph-name="integral" horiz-adv-x="1087" unicode="∫"/><glyph d="M238.5 976q87.5 79 181.5 85t161.5 -25.5t111.5 -72.5t104.5 -74t124.5 -29t119 57.5t79 122.5l140 -67q-115 -268 -322 -285q-78 -6 -150.5 23.5t-157.5 105t-181 72.5q-143 -2 -218 -172l-129 59q49 121 136.5 200zM245 549q87 78 181 84q158 10 276.5 -98t219.5 -101 q72 4 127 57.5t77 122.5l140 -67q-113 -270 -320 -285q-78 -6 -150.5 23.5t-159.5 103.5t-181 74q-143 -4 -217 -172l-129 59q49 121 136 199z" glyph-name="approxequal" horiz-adv-x="1372" unicode="≈"/><glyph d="M1202 410h-422l-188 -641h-209l188 641h-370l-2 176h424l65 225h-487l-2 174h540l154 533h209l-154 -533h252l2 -174h-305l-66 -225h371v-176z" glyph-name="notequal" horiz-adv-x="1400" unicode="≠"/><glyph d="M1243 1102l-815 -246l815 -244l-51 -192l-1034 348v170l1034 354zM1255 315v-165h-1091v165h1091z" glyph-name="lessequal" horiz-adv-x="1327" unicode="≤"/><glyph d="M1235 938v-170l-1036 -348l-49 192l813 244l-813 246l51 190zM1229 150h-1092v165h1092v-165z" glyph-name="greaterequal" horiz-adv-x="1361" unicode="≥"/><glyph d="M92 332v725h1077l285 -363l-285 -362h-1077z" glyph-name="uni2326" horiz-adv-x="1648" unicode="⌦"/><glyph d="M1501 1057v-725h-1077l-285 362l285 363h1077z" glyph-name="uni232B" horiz-adv-x="1640" unicode="⌫"/><glyph d="M1489 707l-696 -699l-699 699l699 696zM303 707l490 -488l489 488l-489 489z" glyph-name="lozenge" horiz-adv-x="1583" unicode="◊"/><glyph d="M1501 542q0 -66 -48 -113.5t-116 -47.5q-113 0 -512 -10l-465 -9q-84 0 -143 60.5t-59 142.5t54 142.5t132 66.5q35 86 113 139.5t165 53.5t158.5 -41t112.5 -111l31 2q92 0 151 -74q51 55 142 55t141 -89q59 -8 101 -54.5t42 -112.5zM353 696q-46 0 -83 -37.5t-37 -91 t37 -91.5t90 -38l465 8q399 10 512 11q37 0 61.5 25.5t24.5 62.5t-24.5 62.5t-59.5 25.5h-4q-31 0 -37 24q-27 63 -94 63.5t-94 -61.5q-10 -25 -39 -25t-35 28q-14 35 -44.5 57t-60.5 22q-31 0 -53 -9t-38 22q-29 61 -86.5 98t-129.5 37t-133 -45t-81 -119q-11 -29 -57 -29z " glyph-name="uni2639" horiz-adv-x="1650" unicode="☹"/><glyph d="M562 956q304 0 304 -82v-6l-75 -659q0 -43 -59.5 -64.5t-147.5 -21.5q-186 0 -201 86l-84 653v12q0 29 47 47.5t74 18.5l-23 221q-10 10 -14 35l-168 139l41 37l156 -133h14q25 0 25 -10v-29q12 -12 0 -39l20 -211q39 6 91 6zM624 907q-114 0 -147 -8v-57q33 -8 107 -8 q182 0 231 40q-77 33 -191 33zM426 848v43q-70 -10 -70 -21q4 -12 70 -22zM647 735q0 24 29 22q29 -1 58.5 -11.5t29.5 -24.5q0 -23 -4 -29q-14 -31 -113 -45v-12l6 -37v-14q29 -13 35 -47l4 -11l10 -96q0 -23 -26 -22l-131 -21q-25 14 -31 21l12 -89l-49 -6l-22 213 q-23 8 -23 31l10 96v11q-33 12 -45 28q-4 8 -4 28t45 28l-6 51q-53 6 -78 20l72 -557q61 31 158 31q27 0 26 -25q0 -27 -26 -26q-111 0 -152 -33q29 -35 149 -35t160 35q-2 0 -11.5 4.5t-30.5 13.5t-21 25t11 22t19 2t20.5 -7t19.5 -7l61 557q-33 -35 -225 -35q-57 0 -103 7 l6 -33h7q16 0 26 -10l39 -7l45 -6q29 -14 35 -39q20 6 43 6q-6 6 -16 7q-18 0 -19 26zM594 663.5q0 22.5 -6 22.5l-35 6q-33 4 -43 4l-10 -4l-6 -6v-8l-7 -103l39 -6l27 6l51 15v8l-8 31q-2 12 -2 34.5zM569 514h-10l-20 6v-41l6 -35q8 0 8 -8l94 15l-8 63q-12 27 -21 27 q-8 -8 -27.5 -16.5t-21.5 -10.5z" glyph-name="smileface" horiz-adv-x="1081" unicode="☺"/><glyph d="M954 1421l908 -282v-863l-908 -303l-864 303v863z" glyph-name="invsmileface" horiz-adv-x="1951" unicode="☻"/><glyph d="M1655 1323l-1125 -1329l-503 545l170 153l327 -364l955 1136z" glyph-name="uni2714" horiz-adv-x="1681" unicode="✔"/><glyph d="M1176 303h-775l-147 -332l-219 92l637 1373h235l637 -1377l-217 -94zM1079 522l-291 649l-288 -649h579z" glyph-name="A.salt" horiz-adv-x="1579"/><glyph d="M815 1585l-170 70l135 284l228 -36zM1176 303h-775l-147 -332l-219 92l637 1373h235l637 -1377l-217 -94zM1079 522l-291 649l-288 -649h579z" glyph-name="Aacute.salt" horiz-adv-x="1579"/><glyph d="M785 1591q-128 0 -212 67.5t-118 178.5l153 47q39 -137 175 -137t173 137l152 -47q-29 -111 -112 -178.5t-211 -67.5zM1176 303h-775l-147 -332l-219 92l637 1373h235l637 -1377l-217 -94zM1079 522l-291 649l-288 -649h579z" glyph-name="Abreve.salt" horiz-adv-x="1579"/><glyph d="M637 1573l-125 82l184 243h170l187 -243l-127 -80l-142 215zM1176 303h-775l-147 -332l-219 92l637 1373h235l637 -1377l-217 -94zM1079 522l-291 649l-288 -649h579z" glyph-name="Acircumflex.salt" horiz-adv-x="1579"/><glyph d="M626 1616q-42 0 -76 31.5t-34 76.5t32 76t77 31t76.5 -31t31.5 -76t-32.5 -76.5t-74.5 -31.5zM942 1616q-43 0 -75.5 31.5t-32.5 76.5t31.5 76t76.5 31t77 -31t32 -76t-33 -76.5t-76 -31.5zM1176 303h-775l-147 -332l-219 92l637 1373h235l637 -1377l-217 -94zM1079 522 l-291 649l-288 -649h579z" glyph-name="Adieresis.salt" horiz-adv-x="1579"/><glyph d="M803 1585l-191 318l226 36l135 -284zM1176 303h-775l-147 -332l-219 92l637 1373h235l637 -1377l-217 -94zM1079 522l-291 649l-288 -649h579z" glyph-name="Agrave.salt" horiz-adv-x="1579"/><glyph d="M1124 1602h-696v159h696v-159zM1176 303h-775l-147 -332l-219 92l637 1373h235l637 -1377l-217 -94zM1079 522l-291 649l-288 -649h579z" glyph-name="Amacron.salt" horiz-adv-x="1579"/><glyph d="M1260 -180q0 82 69 145h-2l-151 338h-775l-147 -332l-219 92l637 1373h235l637 -1377l-90 -41h72v-18q-131 -59 -135 -152q-2 -45 32.5 -70.5t96.5 -22.5t133 50l49 -77q-102 -86 -206 -88t-170 48t-66 132zM1079 522l-291 649l-288 -649h579z" glyph-name="Aogonek.salt" horiz-adv-x="1579"/><glyph d="M778.5 1532q-112.5 0 -188.5 65.5t-76 175.5t76 178t188 68t187 -69.5t75 -177.5t-74.5 -174t-187 -66zM777 1905q-54 0 -94 -38t-40 -92t40 -91t95.5 -37t94 36.5t38.5 92t-40 92.5t-94 37zM1176 303h-775l-147 -332l-219 92l637 1373h235l637 -1377l-217 -94zM1079 522 l-291 649l-288 -649h579z" glyph-name="Aring.salt" horiz-adv-x="1579"/><glyph d="M969 1710q80 0 123 107l112 -50q-18 -84 -80.5 -140t-144.5 -56t-190.5 62.5t-159.5 62.5q-86 10 -125 -103l-113 58q18 84 83 138t152 52t192.5 -66.5t150.5 -64.5zM1176 303h-775l-147 -332l-219 92l637 1373h235l637 -1377l-217 -94zM1079 522l-291 649l-288 -649h579 z" glyph-name="Atilde.salt" horiz-adv-x="1579"/><glyph d="M1966 217v-217h-1051v451h-411l-273 -476l-196 115l784 1344h1098v-217h-760v-392h580v-204h-580v-404h809zM915 670v508l-10 -25l-276 -483h286z" glyph-name="AE.salt" horiz-adv-x="2068"/><glyph d="M444 0h-237v1434h237v-779l717 811l172 -145l-459 -520l551 -697l-178 -147l-528 672l-275 -312v-317z" glyph-name="K.salt" horiz-adv-x="1437"/><glyph d="M1636 726q0 -314 -176 -519l160 -174l-168 -148l-166 176q-180 -104 -407 -104q-336 0 -550 210t-214 543t216 540.5t545 207.5t544.5 -209t215.5 -523zM878.5 174q235.5 0 376 151.5t140.5 385.5t-144.5 382t-374.5 148t-375 -147.5t-145 -383.5t143.5 -386t379 -150z " glyph-name="Q.salt" horiz-adv-x="1751"/><glyph d="M838 403q-111 -19 -392 -12v-391h-239v1434q270 4 467 4q299 -2 472 -143.5t175 -379.5q2 -281 -252 -430l254 -409l-207 -127zM446 1221v-613q150 -4 259 2q168 8 273 89t103 216t-111.5 215t-277.5 89q-88 2 -246 2z" glyph-name="R.salt" horiz-adv-x="1447"/><glyph d="M1518 1368l-637 -1368h-224l-645 1368l215 92l541 -1184l530 1182z" glyph-name="V.salt" horiz-adv-x="1529"/><glyph d="M2189 1395l-444 -1397h-227l-392 1044l-372 -1044h-222l-481 1393l215 67l379 -1116l389 1094h180l410 -1092l354 1120z" glyph-name="W.salt" horiz-adv-x="2242"/><glyph d="M1350 1903l-191 -318l-170 70l135 284zM2189 1395l-444 -1397h-227l-392 1044l-372 -1044h-222l-481 1393l215 67l379 -1116l389 1094h180l410 -1092l354 1120z" glyph-name="Wacute.salt" horiz-adv-x="2242"/><glyph d="M1268 1575l-142 215l-145 -217l-125 82l184 243h170l185 -243zM2189 1395l-444 -1397h-227l-392 1044l-372 -1044h-222l-481 1393l215 67l379 -1116l389 1094h180l410 -1092l354 1120z" glyph-name="Wcircumflex.salt" horiz-adv-x="2242"/><glyph d="M969 1831q45 0 76.5 -31t31.5 -76t-32.5 -76.5t-75.5 -31.5t-76 31.5t-33 76.5t32 76t77 31zM1284 1831q45 0 77 -31t32 -76t-33 -76.5t-75 -31.5t-75.5 31.5t-33.5 76.5t31.5 76t76.5 31zM2189 1395l-444 -1397h-227l-392 1044l-372 -1044h-222l-481 1393l215 67 l379 -1116l389 1094h180l410 -1092l354 1120z" glyph-name="Wdieresis.salt" horiz-adv-x="2242"/><glyph d="M1317 1655l-170 -70l-193 318l228 36zM2189 1395l-444 -1397h-227l-392 1044l-372 -1044h-222l-481 1393l215 67l379 -1116l389 1094h180l410 -1092l354 1120z" glyph-name="Wgrave.salt" horiz-adv-x="2242"/><glyph d="M1346 -57l-535 624l-535 -624l-176 153l557 652l-499 585l176 150l477 -557l477 557l178 -150l-501 -585l559 -652z" glyph-name="X.salt" horiz-adv-x="1622"/><glyph d="M903 0h-241l-3 580l-583 751l180 148l528 -688l529 688l180 -150l-590 -758v-571z" glyph-name="Y.salt" horiz-adv-x="1568"/><glyph d="M1012 1903l-193 -318l-170 70l135 284zM903 0h-241l-3 580l-583 751l180 148l528 -688l529 688l180 -150l-590 -758v-571z" glyph-name="Yacute.salt" horiz-adv-x="1568"/><glyph d="M930 1575l-142 215l-147 -217l-125 82l184 243h170l187 -243zM903 0h-241l-3 580l-583 751l180 148l528 -688l529 688l180 -150l-590 -758v-571z" glyph-name="Ycircumflex.salt" horiz-adv-x="1568"/><glyph d="M629 1831q45 0 76.5 -31t31.5 -76t-32.5 -76.5t-74.5 -31.5t-76 31.5t-34 76.5t32 76t77 31zM946 1831q45 0 77 -31t32 -76t-33 -76.5t-76 -31.5t-75.5 31.5t-32.5 76.5t31.5 76t76.5 31zM903 0h-241l-3 580l-583 751l180 148l528 -688l529 688l180 -150l-590 -758v-571z " glyph-name="Ydieresis.salt" horiz-adv-x="1568"/><glyph d="M948 1655l-170 -70l-190 318l225 36zM903 0h-241l-3 580l-583 751l180 148l528 -688l529 688l180 -150l-590 -758v-571z" glyph-name="Ygrave.salt" horiz-adv-x="1568"/><glyph d="M658 1112q222 0 379 -144.5t157 -387.5v-580h-221l-6 154q-203 -176 -445 -177q-188 0 -312 105.5t-124 279.5t130 270.5t334 96.5t419 -137q-4 160 -103.5 243t-250.5 83t-310 -82l-72 163q203 113 425 113zM311 360q0 -86 76 -137t197 -51q190 0 383 133l2 144 q-193 100 -343 102t-232.5 -51.5t-82.5 -139.5z" glyph-name="a.salt" horiz-adv-x="1335"/><glyph d="M778 1288l-170 72l135 285l226 -37zM658 1112q222 0 379 -144.5t157 -387.5v-580h-221l-6 154q-203 -176 -445 -177q-188 0 -312 105.5t-124 279.5t130 270.5t334 96.5t419 -137q-4 160 -103.5 243t-250.5 83t-310 -82l-72 163q203 113 425 113zM311 360q0 -86 76 -137 t197 -51q190 0 383 133l2 144q-193 100 -343 102t-232.5 -51.5t-82.5 -139.5z" glyph-name="aacute.salt" horiz-adv-x="1335"/><glyph d="M747 1294q-128 0 -211 68t-120 180l153 45q18 -66 65.5 -101.5t113.5 -35.5q131 0 172 137l151 -45q-31 -111 -113.5 -179.5t-210.5 -68.5zM658 1112q222 0 379 -144.5t157 -387.5v-580h-221l-6 154q-203 -176 -445 -177q-188 0 -312 105.5t-124 279.5t130 270.5 t334 96.5t419 -137q-4 160 -103.5 243t-250.5 83t-310 -82l-72 163q203 113 425 113zM311 360q0 -86 76 -137t197 -51q190 0 383 133l2 144q-193 100 -343 102t-232.5 -51.5t-82.5 -139.5z" glyph-name="abreve.salt" horiz-adv-x="1335"/><glyph d="M600 1276l-125 82l184 246h170l185 -246l-127 -80l-142 215zM658 1112q222 0 379 -144.5t157 -387.5v-580h-221l-6 154q-203 -176 -445 -177q-188 0 -312 105.5t-124 279.5t130 270.5t334 96.5t419 -137q-4 160 -103.5 243t-250.5 83t-310 -82l-72 163q203 113 425 113z M311 360q0 -86 76 -137t197 -51q190 0 383 133l2 144q-193 100 -343 102t-232.5 -51.5t-82.5 -139.5z" glyph-name="acircumflex.salt" horiz-adv-x="1335"/><glyph d="M588 1319q-43 0 -76 31.5t-33 77.5t32 77t77 31t76.5 -30.5t31.5 -76.5t-32.5 -78t-75.5 -32zM903 1319q-43 0 -75.5 31.5t-32.5 77.5t31.5 77t76.5 31t77 -30.5t32 -76.5t-33 -78t-76 -32zM658 1112q222 0 379 -144.5t157 -387.5v-580h-221l-6 154q-203 -176 -445 -177 q-188 0 -312 105.5t-124 279.5t130 270.5t334 96.5t419 -137q-4 160 -103.5 243t-250.5 83t-310 -82l-72 163q203 113 425 113zM311 360q0 -86 76 -137t197 -51q190 0 383 133l2 144q-193 100 -343 102t-232.5 -51.5t-82.5 -139.5z" glyph-name="adieresis.salt" horiz-adv-x="1335"/><glyph d="M766 1288l-193 320l228 37l135 -285zM658 1112q222 0 379 -144.5t157 -387.5v-580h-221l-6 154q-203 -176 -445 -177q-188 0 -312 105.5t-124 279.5t130 270.5t334 96.5t419 -137q-4 160 -103.5 243t-250.5 83t-310 -82l-72 163q203 113 425 113zM311 360q0 -86 76 -137 t197 -51q190 0 383 133l2 144q-193 100 -343 102t-232.5 -51.5t-82.5 -139.5z" glyph-name="agrave.salt" horiz-adv-x="1335"/><glyph d="M1087 1307h-696v159h696v-159zM658 1112q222 0 379 -144.5t157 -387.5v-580h-221l-6 154q-203 -176 -445 -177q-188 0 -312 105.5t-124 279.5t130 270.5t334 96.5t419 -137q-4 160 -103.5 243t-250.5 83t-310 -82l-72 163q203 113 425 113zM311 360q0 -86 76 -137 t197 -51q190 0 383 133l2 144q-193 100 -343 102t-232.5 -51.5t-82.5 -139.5z" glyph-name="amacron.salt" horiz-adv-x="1335"/><glyph d="M928 -182q0 51 30.5 100t85.5 82h-71l-6 154q-203 -176 -445 -177q-188 0 -312 105.5t-124 279.5t130 270.5t334 96.5t419 -137q-4 160 -103.5 243t-250.5 83t-310 -82l-72 163q203 113 425 113t379 -143.5t157 -388.5v-580q-129 -59 -133 -152q-2 -45 31.5 -70.5 t97.5 -22.5t133 50l49 -77q-106 -86 -210 -88t-169 48t-65 130zM311 360q0 -86 76 -137t197 -51q190 0 383 133l2 144q-193 100 -343 102t-232.5 -51.5t-82.5 -139.5z" glyph-name="aogonek.salt" horiz-adv-x="1335"/><glyph d="M739.5 1237q-112.5 0 -187.5 66.5t-75 174.5t76 176t186.5 68t186 -68t75.5 -176t-74.5 -174.5t-187 -66.5zM739.5 1610q-53.5 0 -93.5 -38t-40 -92t39 -91t94.5 -37t94 37t38.5 91t-39.5 92t-93 38zM658 1112q222 0 379 -144.5t157 -387.5v-580h-221l-6 154 q-203 -176 -445 -177q-188 0 -312 105.5t-124 279.5t130 270.5t334 96.5t419 -137q-4 160 -103.5 243t-250.5 83t-310 -82l-72 163q203 113 425 113zM311 360q0 -86 76 -137t197 -51q190 0 383 133l2 144q-193 100 -343 102t-232.5 -51.5t-82.5 -139.5z" glyph-name="aring.salt" horiz-adv-x="1335"/><glyph d="M930 1415q80 0 123 107l114 -49q-20 -86 -81.5 -141.5t-143.5 -55.5t-190.5 62.5t-159.5 62.5q-90 6 -127 -103l-113 58q18 84 83 137t152 51t192.5 -65.5t150.5 -63.5zM658 1112q222 0 379 -144.5t157 -387.5v-580h-221l-6 154q-203 -176 -445 -177q-188 0 -312 105.5 t-124 279.5t130 270.5t334 96.5t419 -137q-4 160 -103.5 243t-250.5 83t-310 -82l-72 163q203 113 425 113zM311 360q0 -86 76 -137t197 -51q190 0 383 133l2 144q-193 100 -343 102t-232.5 -51.5t-82.5 -139.5z" glyph-name="atilde.salt" horiz-adv-x="1335"/><glyph d="M1654 -18q-173 0 -328 79.5t-232 229.5q-102 -154 -254 -234t-324 -80t-301 105.5t-129 282.5t152 273.5t342 92.5t385 -125q-4 141 -93.5 225t-245.5 84t-321 -81l-76 172q209 104 418 104q346 0 475 -238q80 125 215 192.5t310 65.5t315.5 -99t197 -248.5t17.5 -317.5 l-909 2q29 -141 141.5 -217t263.5 -74q217 2 377 152l113 -164q-82 -74 -209 -128t-300 -54zM1268 651h692q8 115 -83 199t-235 85t-245.5 -74t-128.5 -210zM293 372q0 -93 75.5 -144.5t189.5 -51.5t223.5 59.5t179.5 172.5v57q-175 98 -323 104t-246.5 -49t-98.5 -148z" glyph-name="ae.salt" horiz-adv-x="2295"/><glyph d="M414 0h-224v1481h224v-938l587 608l154 -152l-356 -364l461 -512l-162 -154l-461 520l-223 -219v-270z" glyph-name="k.salt" horiz-adv-x="1294"/><glyph d="M635 299l407 829l205 -98l-518 -1030h-188l-527 1032l209 103z" glyph-name="v.salt" horiz-adv-x="1261"/><glyph d="M1436 0h-244l-268 780l-271 -780h-231l-377 1057l213 59l277 -811l294 793h197l291 -803l252 825l215 -63z" glyph-name="w.salt" horiz-adv-x="1826"/><glyph d="M1153 1567l-190 -320l-170 72l135 285zM1436 0h-244l-268 780l-271 -780h-231l-377 1057l213 59l277 -811l294 793h197l291 -803l252 825l215 -63z" glyph-name="wacute.salt" horiz-adv-x="1826"/><glyph d="M1071 1237l-141 215l-146 -217l-125 82l185 246h170l184 -246zM1436 0h-244l-268 780l-271 -780h-231l-377 1057l213 59l277 -811l294 793h197l291 -803l252 825l215 -63z" glyph-name="wcircumflex.salt" horiz-adv-x="1826"/><glyph d="M772 1495q45 0 77 -30.5t32 -76.5t-33 -78t-76 -32t-75.5 32t-32.5 78t31.5 76.5t76.5 30.5zM1088 1495q45 0 76.5 -30.5t31.5 -76.5t-33 -78t-75 -32t-75.5 32t-33.5 78t32 76.5t77 30.5zM1436 0h-244l-268 780l-271 -780h-231l-377 1057l213 59l277 -811l294 793h197 l291 -803l252 825l215 -63z" glyph-name="wdieresis.salt" horiz-adv-x="1826"/><glyph d="M1120 1319l-170 -72l-192 320l227 37zM1436 0h-244l-268 780l-271 -780h-231l-377 1057l213 59l277 -811l294 793h197l291 -803l252 825l215 -63z" glyph-name="wgrave.salt" horiz-adv-x="1826"/><glyph d="M1081 -33l-432 443l-434 -443l-158 154l439 446l-392 400l158 145l383 -393l404 411l157 -151l-407 -418l442 -446z" glyph-name="x.salt" horiz-adv-x="1302"/><glyph d="M1370 1024l-815 -1645l-211 95l254 512l-563 1024l205 106l479 -893l440 897z" glyph-name="y.salt" horiz-adv-x="1394"/><glyph d="M887 1567l-191 -320l-170 72l136 285zM1370 1024l-815 -1645l-211 95l254 512l-563 1024l205 106l479 -893l440 897z" glyph-name="yacute.salt" horiz-adv-x="1394"/><glyph d="M805 1237l-141 215l-146 -217l-125 82l185 246h170l184 -246zM1370 1024l-815 -1645l-211 95l254 512l-563 1024l205 106l479 -893l440 897z" glyph-name="ycircumflex.salt" horiz-adv-x="1394"/><glyph d="M506 1495q45 0 76.5 -30.5t31.5 -76.5t-32.5 -78t-75.5 -32t-76 32t-33 78t32 76.5t77 30.5zM821 1495q45 0 77 -30.5t32 -76.5t-33 -78t-76 -32t-75.5 32t-32.5 78t31.5 76.5t76.5 30.5zM1370 1024l-815 -1645l-211 95l254 512l-563 1024l205 106l479 -893l440 897z" glyph-name="ydieresis.salt" horiz-adv-x="1394"/><glyph d="M854 1319l-170 -72l-192 320l227 37zM1370 1024l-815 -1645l-211 95l254 512l-563 1024l205 106l479 -893l440 897z" glyph-name="ygrave.salt" horiz-adv-x="1394"/><glyph d="M1657 1520v-177q0 -119 -60.5 -184t-166.5 -74v64q39 6 62.5 33.5t23.5 58.5q0 51 -58 51h-53v228h252zM1241 1481v-1481h-213l-6 154q-184 -170 -391 -170t-368 155.5t-161 419.5t149.5 409.5t364.5 145.5t400 -194v561h225zM666 915q-141 0 -239.5 -99t-98.5 -261 t107.5 -267.5t258.5 -103.5q184 2 322 166v373q-153 192 -350 192z" glyph-name="dcaron.ss02" horiz-adv-x="1607"/><glyph d="M414 1487v-219h-232v219h232zM412 0h-226v1098h226v-1098z" glyph-name="i.ss02" horiz-adv-x="598"/><glyph d="M410 1487v-219h-232v219h232zM408 1098v-1147q0 -213 -127 -324.5t-287 -111.5t-309 79l71 175q92 -59 192 -57t166 59t68 184v1143h226z" glyph-name="j.ss02" horiz-adv-x="573"/><glyph d="M819 1522v-179q0 -117 -61.5 -182t-167.5 -74v64q39 6 63.5 33.5t24.5 58.5q0 51 -57 51h-54v228h252zM416 0h-226v1481h226v-1481z" glyph-name="lcaron.ss02" horiz-adv-x="714"/><glyph d="M938 1667v-176q0 -119 -61.5 -184.5t-167.5 -73.5v63q39 6 63.5 34t24.5 59q0 51 -58 51h-53v227h252zM508 1098h354v-195h-354v-504q0 -113 57.5 -167t150.5 -56t204 70l65 -180q-149 -86 -315 -86t-276.5 113.5t-110.5 297.5v512h-222v195h222v336h225v-336z" glyph-name="tcaron.ss02" horiz-adv-x="1017"/><glyph d="M2394 896q0 -271 -189.5 -419.5t-504.5 -148.5q-180 0 -289 4v1100q160 4 297 4q303 -2 494.5 -135.5t191.5 -404.5zM1141 332h-228l-536 721v-721h-240v1100h236l526 -715v715h242v-1100zM2157 889q0 90 -39 156.5t-130 119t-227 52.5h-5l-10 1h-22l-75 -1v-672 q57 -4 106 2q168 6 285 92t117 250z" glyph-name="glyph407" horiz-adv-x="2463"/><glyph d="M584 1452q178 0 358 -80l-63 -201q-143 68 -287 68q-88 0 -146.5 -28.5t-58.5 -74.5t34 -70t74 -34t89 -19t97 -17q120 -21 234.5 -88.5t115.5 -240.5t-129 -264.5t-343 -92.5t-446 122l84 197q174 -104 366 -101q94 2 156.5 36t62.5 85t-23.5 68.5t-40 26t-62 19 t-182 35.5t-235 101t-98.5 206t93.5 238.5t349.5 108.5zM2097 1217h-360v-883h-240v883h-360v217h960v-217z" glyph-name="glyph408" horiz-adv-x="2105"/><glyph d="M2245 899q0 -270 -189.5 -417.5t-505.5 -147.5q-180 0 -288 4v1100q160 4 326 3t315 -53.5t245.5 -177.5t96.5 -311zM1059 1042q0 -219 -160 -329l191 -375h-275l-145 289q-49 -4 -76 -4l-197 2v-287h-241v1098l401 4q240 -2 371 -109t131 -289zM397 1225v-387 q139 0 197 2q225 14 225 192q-2 88 -64.5 137.5t-145.5 52.5t-212 3zM2005 893q0 90 -39 157.5t-128.5 120t-225.5 52.5q-45 4 -113 0v-672q56 -2 107 2q166 6 282.5 91t116.5 249z" glyph-name="glyph410" horiz-adv-x="2349"/><glyph d="M963 1217h-361v-883h-240v883h-360v217h961v-217zM2167 334h-240v434h-506v-434h-239v1100h239v-449h506v449h240v-1100z" glyph-name="glyph411" horiz-adv-x="2301"/><glyph d="M918 215h-535l-90 -215h-266l505 1098h234l506 -1098h-264zM823 432l-176 416l-174 -416h350z" glyph-name="A.c2sc" horiz-adv-x="1298"/><glyph d="M649 1249l-170 72l135 285l226 -37zM918 215h-535l-90 -215h-266l505 1098h234l506 -1098h-264zM823 432l-176 416l-174 -416h350z" glyph-name="Aacute.c2sc" horiz-adv-x="1298"/><glyph d="M617 1255q-128 0 -210.5 68t-119.5 178l153 47q18 -66 65.5 -101.5t112.5 -35.5q131 0 173 137l151 -45q-31 -111 -114 -179.5t-211 -68.5zM918 215h-535l-90 -215h-266l505 1098h234l506 -1098h-264zM823 432l-176 416l-174 -416h350z" glyph-name="Abreve.c2sc" horiz-adv-x="1298"/><glyph d="M471 1237l-125 82l184 244h170l185 -244l-127 -80l-142 215zM918 215h-535l-90 -215h-266l505 1098h234l506 -1098h-264zM823 432l-176 416l-174 -416h350z" glyph-name="Acircumflex.c2sc" horiz-adv-x="1298"/><glyph d="M459 1280q-43 0 -76 31.5t-33 77t32 76t77 30.5t76.5 -30.5t31.5 -76t-32.5 -77t-75.5 -31.5zM775 1280q-42 0 -75.5 31.5t-33.5 77t31.5 76t76.5 30.5t77 -30.5t32 -76t-33 -77t-75 -31.5zM918 215h-535l-90 -215h-266l505 1098h234l506 -1098h-264zM823 432l-176 416 l-174 -416h350z" glyph-name="Adieresis.c2sc" horiz-adv-x="1298"/><glyph d="M637 1249l-193 320l228 37l135 -285zM918 215h-535l-90 -215h-266l505 1098h234l506 -1098h-264zM823 432l-176 416l-174 -416h350z" glyph-name="Agrave.c2sc" horiz-adv-x="1298"/><glyph d="M958 1268h-696v157h696v-157zM918 215h-535l-90 -215h-266l505 1098h234l506 -1098h-264zM823 432l-176 416l-174 -416h350z" glyph-name="Amacron.c2sc" horiz-adv-x="1298"/><glyph d="M938 -126q0 79 63 142l-83 199h-535l-90 -215h-266l505 1098h234l506 -1098h-154q-45 -43 -48 -92t32 -75.5t98 -22.5t131 53l49 -80q-100 -84 -219 -86q-92 -4 -157.5 47t-65.5 130zM823 432l-176 416l-174 -416h350z" glyph-name="Aogonek.c2sc" horiz-adv-x="1298"/><glyph d="M610.5 1198q-112.5 0 -187.5 66t-75 174t76 176.5t186.5 68.5t186 -68.5t75.5 -176.5t-74.5 -174t-187 -66zM611 1569q-54 0 -94 -38t-40 -91.5t40 -91t93.5 -37.5t93 37.5t39.5 91.5t-39 91.5t-93 37.5zM918 215h-535l-90 -215h-266l505 1098h234l506 -1098h-264z M823 432l-176 416l-174 -416h350z" glyph-name="Aring.c2sc" horiz-adv-x="1298"/><glyph d="M801 1376q82 0 123 107l114 -51q-20 -86 -81.5 -140.5t-143.5 -54.5t-191.5 61.5t-158.5 63.5q-90 6 -127 -105l-113 60q18 82 83 136t152 52t192.5 -65.5t150.5 -63.5zM918 215h-535l-90 -215h-266l505 1098h234l506 -1098h-264zM823 432l-176 416l-174 -416h350z" glyph-name="Atilde.c2sc" horiz-adv-x="1298"/><glyph d="M717 0v328h-367l-227 -332l-180 151l673 951l101 2h790v-217h-551v-230h422v-202h-422v-234h586v-217h-825zM717 547v325l-49 -79l-168 -246h217z" glyph-name="AE.c2sc" horiz-adv-x="1619"/><glyph d="M532 1104q240 0 345.5 -82t105.5 -197q0 -84 -49 -143t-133 -78q104 -20 177 -97t73 -190q0 -147 -125 -236t-334 -89t-455 8v1100q155 4 395 4zM569 907q-160 0 -192 -2v-229q70 -6 175 -3t152.5 37t44.5 86t-53.5 81.5t-126.5 29.5zM801 336q0 59 -57.5 98t-180.5 43 q-137 0 -186 -4v-274q129 -4 213 -2q211 2 211 139z" glyph-name="B.aalt" horiz-adv-x="1122"/><glyph d="M303 552q0 -155 112.5 -255t263 -100t263.5 67l84 -198q-176 -86 -348 -86q-250 -2 -433.5 154.5t-183.5 415.5t173.5 413.5t429.5 156.5q180 2 354 -80l-74 -198q-125 63 -273.5 60t-258 -99t-109.5 -251z" glyph-name="C.aalt" horiz-adv-x="1126"/><glyph d="M911 1567l-190 -320l-170 72l135 285zM303 552q0 -155 112.5 -255t263 -100t263.5 67l84 -198q-176 -86 -348 -86q-250 -2 -433.5 154.5t-183.5 415.5t173.5 413.5t429.5 156.5q180 2 354 -80l-74 -198q-125 63 -273.5 60t-258 -99t-109.5 -251z" glyph-name="Cacute.aalt" horiz-adv-x="1126"/><glyph d="M764 1292h-166l-186 215l127 95l139 -175l139 172l131 -90zM303 552q0 -155 112.5 -255t263 -100t263.5 67l84 -198q-176 -86 -348 -86q-250 -2 -433.5 154.5t-183.5 415.5t173.5 413.5t429.5 156.5q180 2 354 -80l-74 -198q-125 63 -273.5 60t-258 -99t-109.5 -251z" glyph-name="Ccaron.aalt" horiz-adv-x="1126"/><glyph d="M678 -20h-23l-123 -273l-147 51l141 236q-201 43 -333 191.5t-132 386t173.5 392t429.5 156.5q180 2 354 -80l-74 -198q-125 63 -273.5 60t-258 -99t-109.5 -251t112.5 -255t282.5 -100q131 -1 244 67l84 -198q-176 -86 -348 -86z" glyph-name="Ccedilla.aalt" horiz-adv-x="1126"/><glyph d="M1120 561q0 -270 -189.5 -417.5t-504.5 -147.5q-180 0 -289 4v1100q160 4 326 3t315.5 -53.5t245.5 -177t96 -311.5zM881 555q0 90 -39 157.5t-128.5 120t-226.5 52.5q-44 4 -112 0v-672q55 -4 106 2q166 6 283 91t117 249z" glyph-name="D.aalt" horiz-adv-x="1202"/><glyph d="M1120 561q0 -270 -189.5 -417.5t-504.5 -147.5q-180 0 -289 4v510h-133v190h133v400q160 4 326 3t315.5 -53.5t245.5 -177t96 -311.5zM881 555q0 90 -39 157.5t-128.5 120t-226.5 52.5q-45 4 -112 0v-185h243v-190h-243v-297q55 -4 106 2q166 6 283 91t117 249z" glyph-name="Eth.aalt" horiz-adv-x="1202"/><glyph d="M678 1294h-166l-186 215l127 95l139 -177l139 175l131 -91zM1120 561q0 -270 -189.5 -417.5t-504.5 -147.5q-180 0 -289 4v1100q160 4 326 3t315.5 -53.5t245.5 -177t96 -311.5zM881 555q0 90 -39 157.5t-128.5 120t-226.5 52.5q-44 4 -112 0v-672q55 -4 106 2 q166 6 283 91t117 249z" glyph-name="Dcaron.aalt" horiz-adv-x="1202"/><glyph d="M944 1266h-696v159h696v-159zM1120 561q0 -270 -189.5 -417.5t-504.5 -147.5q-180 0 -289 4v1100q160 4 326 3t315.5 -53.5t245.5 -177t96 -311.5zM881 555q0 90 -39 157.5t-128.5 120t-226.5 52.5q-44 4 -112 0v-672q55 -4 106 2q166 6 283 91t117 249z" glyph-name="Dcroat.aalt" horiz-adv-x="1202"/><glyph d="M928 883h-551v-230h422v-202h-422v-234h586l2 -217h-828v1100h791v-217z" glyph-name="E.aalt" horiz-adv-x="1038"/><glyph d="M770 1567l-192 -320l-170 72l135 285zM928 883h-551v-230h422v-202h-422v-234h586l2 -217h-828v1100h791v-217z" glyph-name="Eacute.aalt" horiz-adv-x="1038"/><glyph d="M621 1292h-164l-187 215l127 95l140 -175l137 172l131 -90zM928 883h-551v-230h422v-202h-422v-234h586l2 -217h-828v1100h791v-217z" glyph-name="Ecaron.aalt" horiz-adv-x="1038"/><glyph d="M688 1237l-141 215l-148 -217l-125 82l185 246h170l186 -246zM928 883h-551v-230h422v-202h-422v-234h586l2 -217h-828v1100h791v-217z" glyph-name="Ecircumflex.aalt" horiz-adv-x="1038"/><glyph d="M387 1495q45 0 77 -30.5t32 -76.5t-33 -78t-76 -32t-75.5 31.5t-32.5 78t31.5 77t76.5 30.5zM704.5 1495q45.5 0 77 -30.5t31.5 -76.5t-32.5 -78t-75.5 -32t-76 31.5t-33 78t31.5 77t77 30.5zM928 883h-551v-230h422v-202h-422v-234h586l2 -217h-828v1100h791v-217z" glyph-name="Edieresis.aalt" horiz-adv-x="1038"/><glyph d="M571 1495q45 0 77 -30.5t32 -76.5t-33 -78t-76 -32t-75 32t-32.5 78t31 76.5t76.5 30.5zM928 883h-551v-230h422v-202h-422v-234h586l2 -217h-828v1100h791v-217z" glyph-name="Edotaccent.aalt" horiz-adv-x="1038"/><glyph d="M735 1319l-170 -72l-190 320l225 37zM928 883h-551v-230h422v-202h-422v-234h586l2 -217h-828v1100h791v-217z" glyph-name="Egrave.aalt" horiz-adv-x="1038"/><glyph d="M887 1266h-697v159h697v-159zM928 883h-551v-230h422v-202h-422v-234h586l2 -217h-828v1100h791v-217z" glyph-name="Emacron.aalt" horiz-adv-x="1038"/><glyph d="M397 -182q0 113 119 182h-379v1100h791v-217h-551v-230h422v-202h-422v-234h586l2 -217h-301q-129 -59 -134 -152q-2 -45 32 -70.5t97.5 -22.5t133.5 50l49 -77q-102 -86 -207.5 -88t-171.5 48t-66 130z" glyph-name="Eogonek.aalt" horiz-adv-x="1038"/><glyph d="M928 883h-551v-279h405v-211h-405v-393h-240v1100h791v-217z" glyph-name="F.aalt" horiz-adv-x="993"/><glyph d="M319 544.5q0 -153.5 111 -257t275 -103.5q111 0 221 58v164h-244v208h485v-495q-217 -150 -474 -151t-439 160t-180 414t175 418.5t443 167.5q184 2 355 -77l-76 -211q-125 72 -278.5 68.5t-263.5 -107t-110 -257z" glyph-name="G.aalt" horiz-adv-x="1273"/><glyph d="M319 544.5q0 -153.5 111 -257t275 -103.5q111 0 221 58v164h-244v208h485v-495q-217 -150 -474 -151t-439 160t-180 414t175 418.5t443 167.5q184 2 355 -77l-76 -211q-125 72 -278.5 68.5t-263.5 -107t-110 -257zM730 -166q58 0 101 -45t43 -132t-73.5 -154.5 t-177.5 -71.5l8 82q78 14 90 88q-49 -10 -87 21.5t-38 85.5t38 90t96 36z" glyph-name="Gcommaaccent.aalt" horiz-adv-x="1273"/><glyph d="M1124 0h-241v434h-506v-434h-240v1100h240v-449h506v449h241v-1100z" glyph-name="H.aalt" horiz-adv-x="1259"/><glyph d="M371 0h-234v1098h234v-1098z" glyph-name="I.aalt" horiz-adv-x="507"/><glyph d="M481 1567l-190 -320l-170 72l135 285zM371 0h-234v1098h234v-1098z" glyph-name="Iacute.aalt" horiz-adv-x="507"/><glyph d="M399 1237l-141 215l-145 -217l-127 82l186 246h170l184 -246zM371 0h-234v1098h234v-1098z" glyph-name="Icircumflex.aalt" horiz-adv-x="507"/><glyph d="M100 1495q45 0 77 -30.5t32 -76.5t-33 -78t-76 -32t-76.5 32t-33.5 78t32.5 76.5t77.5 30.5zM416 1495q45 0 76.5 -30.5t31.5 -76.5t-32.5 -78t-75.5 -32t-76 32t-33 78t32 76.5t77 30.5zM371 0h-234v1098h234v-1098z" glyph-name="Idieresis.aalt" horiz-adv-x="507"/><glyph d="M449 1319l-170 -72l-193 320l227 37zM371 0h-234v1098h234v-1098z" glyph-name="Igrave.aalt" horiz-adv-x="507"/><glyph d="M600 1266h-696v159h696v-159zM371 0h-234v1098h234v-1098z" glyph-name="Imacron.aalt" horiz-adv-x="507"/><glyph d="M106 -182q0 51 31 100t86 82h-86v1098h234v-1098q-129 -59 -133 -152q-2 -45 33 -70.5t97 -22.5t132 50l49 -77q-101 -86 -207 -88t-171 48t-65 130z" glyph-name="Iogonek.aalt" horiz-adv-x="507"/><glyph d="M594 1100v-557q0 -575 -541 -576l-2 217q143 2 222 100.5t79 262.5v553h242z" glyph-name="J.aalt" horiz-adv-x="708"/><glyph d="M375 0h-238v1098h238v-551l467 551h278l-409 -482l469 -616h-297l-322 434l-186 -211v-223z" glyph-name="K.c2sc" horiz-adv-x="1167"/><glyph d="M375 0h-238v1098h238v-551l467 551h278l-409 -482l469 -616h-297l-322 434l-186 -211v-223zM554 -166q58 0 101 -45t43 -132t-73.5 -154.5t-178.5 -71.5l9 82q78 14 90 88q-49 -10 -87 21.5t-38 85.5t38 90t96 36z" glyph-name="Kcommaaccent.aalt" horiz-adv-x="1167"/><glyph d="M377 217h577v-217h-817v1100h240v-883z" glyph-name="L.aalt" horiz-adv-x="976"/><glyph d="M653 1567l-190 -320l-170 72l135 285zM377 217h577v-217h-817v1100h240v-883z" glyph-name="Lacute.aalt" horiz-adv-x="976"/><glyph d="M377 217h577v-217h-817v1100h240v-883z" glyph-name="Lcaron.aalt" horiz-adv-x="976"/><glyph d="M377 217h577v-217h-817v1100h240v-883zM451 -166q57 0 100 -45t43 -132t-72.5 -154.5t-177.5 -71.5l8 82q76 14 90 88q-49 -10 -87 21.5t-38 85.5t38.5 90t95.5 36z" glyph-name="Lcommaaccent.aalt" horiz-adv-x="976"/><glyph d="M377 217h577v-217h-817v1100h240v-883zM692.5 944q55.5 0 94 -39t38.5 -94t-41 -95t-93 -40t-92 40t-40 95t39 94t94.5 39z" glyph-name="Ldot.aalt" horiz-adv-x="987"/><glyph d="M954 217v-217h-817v371l-55 -29l-62 141l117 60v557h240v-436l280 141l60 -141l-340 -172v-275h577z" glyph-name="Lslash.aalt" horiz-adv-x="978"/><glyph d="M1411 0h-248v717l-395 -539l-387 541v-719h-244v1100h225l404 -559l416 559h229v-1100z" glyph-name="M.aalt" horiz-adv-x="1546"/><glyph d="M1141 0h-228l-536 721v-721h-240v1100h236l526 -717v717h242v-1100z" glyph-name="N.aalt" horiz-adv-x="1277"/><glyph d="M866 1567l-190 -320l-170 72l135 285zM1141 0h-228l-536 721v-721h-240v1100h236l526 -717v717h242v-1100z" glyph-name="Nacute.aalt" horiz-adv-x="1277"/><glyph d="M719 1292h-166l-186 215l127 95l139 -175l139 172l131 -90zM1141 0h-228l-536 721v-721h-240v1100h236l526 -717v717h242v-1100z" glyph-name="Ncaron.aalt" horiz-adv-x="1277"/><glyph d="M1141 0h-228l-536 721v-721h-240v1100h236l526 -717v717h242v-1100zM657 -166q57 0 100.5 -45t43.5 -132t-74 -154.5t-176 -71.5l6 82q78 14 90 88q-47 -10 -85 21.5t-38 84.5t38 90t95 37z" glyph-name="Ncommaaccent.aalt" horiz-adv-x="1277"/><glyph d="M1141 0h-4v-27q0 -573 -541 -573l-2 217q143 0 222 98.5t79 261.5v46l-518 698v-721h-240v1100h236l522 -711v143h4v568h242v-1100z" glyph-name="Eng.aalt" horiz-adv-x="1273"/><glyph d="M827 1374q80 0 123 107l115 -49q-20 -86 -81.5 -141.5t-143.5 -55.5t-190.5 62.5t-160.5 62.5q-90 6 -127 -103l-112 58q18 84 82.5 137t151.5 51t192.5 -65.5t150.5 -63.5zM1141 0h-228l-536 721v-721h-240v1100h236l526 -717v717h242v-1100z" glyph-name="Ntilde.aalt" horiz-adv-x="1277"/><glyph d="M676 1120q254 0 427 -159.5t173 -413.5t-168 -419t-428 -165t-432 162t-172 419t173 416.5t427 159.5zM675.5 903q-155.5 0 -256 -100.5t-100.5 -260t99.5 -261t259.5 -101.5t257 102.5t97 261.5t-100.5 259t-256 100z" glyph-name="O.c2sc" horiz-adv-x="1351"/><glyph d="M901 1567l-190 -320l-170 72l135 285zM676 1120q254 0 427 -159.5t173 -413.5t-168 -419t-428 -165t-432 162t-172 419t173 416.5t427 159.5zM675.5 903q-155.5 0 -256 -100.5t-100.5 -260t99.5 -261t259.5 -101.5t257 102.5t97 261.5t-100.5 259t-256 100z" glyph-name="Oacute.aalt" horiz-adv-x="1351"/><glyph d="M821 1237l-143 215l-146 -217l-124 82l184 246h170l184 -246zM676 1120q254 0 427 -159.5t173 -413.5t-168 -419t-428 -165t-432 162t-172 419t173 416.5t427 159.5zM675.5 903q-155.5 0 -256 -100.5t-100.5 -260t99.5 -261t259.5 -101.5t257 102.5t97 261.5t-100.5 259 t-256 100z" glyph-name="Ocircumflex.aalt" horiz-adv-x="1351"/><glyph d="M520 1495q45 0 77 -30.5t32 -76.5t-33 -78t-76 -32t-75.5 32t-32.5 78t31.5 76.5t76.5 30.5zM836 1495q45 0 77.5 -30.5t32.5 -76.5t-33.5 -78t-76.5 -32t-76 32t-33 78t32 76.5t77 30.5zM676 1120q254 0 427 -159.5t173 -413.5t-168 -419t-428 -165t-432 162t-172 419 t173 416.5t427 159.5zM675.5 903q-155.5 0 -256 -100.5t-100.5 -260t99.5 -261t259.5 -101.5t257 102.5t97 261.5t-100.5 259t-256 100z" glyph-name="Odieresis.aalt" horiz-adv-x="1351"/><glyph d="M868 1319l-170 -72l-190 320l225 37zM676 1120q254 0 427 -159.5t173 -413.5t-168 -419t-428 -165t-432 162t-172 419t173 416.5t427 159.5zM675.5 903q-155.5 0 -256 -100.5t-100.5 -260t99.5 -261t259.5 -101.5t257 102.5t97 261.5t-100.5 259t-256 100z" glyph-name="Ograve.aalt" horiz-adv-x="1351"/><glyph d="M719 1567l-193 -320l-170 72l136 285zM1083 1567l-190 -320l-170 72l135 285zM676 1120q254 0 427 -159.5t173 -413.5t-168 -419t-428 -165t-432 162t-172 419t173 416.5t427 159.5zM675.5 903q-155.5 0 -256 -100.5t-100.5 -260t99.5 -261t259.5 -101.5t257 102.5 t97 261.5t-100.5 259t-256 100z" glyph-name="Ohungarumlaut.aalt" horiz-adv-x="1351"/><glyph d="M1020 1266h-696v159h696v-159zM676 1120q254 0 427 -159.5t173 -413.5t-168 -419t-428 -165t-432 162t-172 419t173 416.5t427 159.5zM675.5 903q-155.5 0 -256 -100.5t-100.5 -260t99.5 -261t259.5 -101.5t257 102.5t97 261.5t-100.5 259t-256 100z" glyph-name="Omacron.aalt" horiz-adv-x="1351"/><glyph d="M1276 545q0 -252 -168 -417t-430 -165q-59 0 -139 14l-101 -213l-198 33l116 248q-131 74 -205.5 203t-74.5 295q0 256 173 416.5t427 160.5q94 0 180 -24l102 217l199 -35l-125 -262q113 -76 178.5 -198t65.5 -273zM319 543q0 -193 136 -293l305 645q-53 8 -84 8 q-156 0 -256.5 -100t-100.5 -260zM678 180q160 0 257 102.5t97 261.5t-100 259l-295 -623h41z" glyph-name="Oslash.aalt" horiz-adv-x="1351"/><glyph d="M862 1374q82 0 125 107l113 -49q-18 -86 -81 -141.5t-145 -55.5t-190.5 62.5t-159.5 62.5q-88 6 -125 -103l-112 58q18 82 82.5 136t150.5 52t191.5 -65.5t150.5 -63.5zM676 1120q254 0 427 -159.5t173 -413.5t-168 -419t-428 -165t-432 162t-172 419t173 416.5 t427 159.5zM675.5 903q-155.5 0 -256 -100.5t-100.5 -260t99.5 -261t259.5 -101.5t257 102.5t97 261.5t-100.5 259t-256 100z" glyph-name="Otilde.aalt" horiz-adv-x="1351"/><glyph d="M1110 0v131q-172 -168 -431 -168t-431 162t-172 418t173 416.5t431 160.5t430 -168v148h791v-217h-549v-230h422v-202h-422v-234h583l2 -217h-827zM678 178q160 0 257 103.5t97 261t-100.5 259t-256 101.5t-256 -100.5t-100.5 -260t99.5 -262t259.5 -102.5z" glyph-name="OE.aalt" horiz-adv-x="2004"/><glyph d="M137 0v1100q229 8 334 8q258 0 404.5 -108.5t145.5 -310.5t-131 -300t-306 -106q-68 -4 -207 -4v-279h-240zM377 891v-395q117 0 197 4t143 56t63 136t-62.5 137.5t-161.5 57.5t-179 4z" glyph-name="P.aalt" horiz-adv-x="1093"/><glyph d="M377 979h139q227 0 364.5 -106.5t136.5 -303.5t-127 -302t-306 -113q-70 -4 -207 -4v-150h-240v1098h240v-119zM377 762v-397q104 0 192 5t146.5 58t57.5 136t-59.5 136.5t-157.5 57.5t-179 4z" glyph-name="Thorn.aalt" horiz-adv-x="1085"/><glyph d="M115 543q0 256 173 416.5t427 160.5t426 -160t172 -400t-133 -396t-351 -191q25 -14 111 -84.5t137 -78.5q109 -17 172 100l133 -107q-49 -100 -133 -152t-190 -35t-224 111.5t-178 104.5q-111 25 -176 -94l-131 115q51 100 146 147q-174 59 -277.5 202.5t-103.5 340.5z M358 542.5q0 -159.5 99.5 -261t259.5 -101.5t257 102.5t97 261.5t-100.5 259t-256 100t-256 -100.5t-100.5 -260z" glyph-name="q.aalt" horiz-adv-x="1400"/><glyph d="M377 0h-240v1098l400 4q240 -2 370.5 -108.5t132.5 -288.5q0 -217 -159 -330l190 -375h-276l-144 289q-53 -4 -78 -4l-196 2v-287zM377 887v-387q141 0 226 5t140.5 56t55.5 136t-63.5 134.5t-145.5 52.5t-213 3z" glyph-name="r.aalt" horiz-adv-x="1161"/><glyph d="M594 1247l-170 72l135 285l225 -37zM377 0h-240v1098l400 4q240 -2 370.5 -108.5t132.5 -288.5q0 -217 -159 -330l190 -375h-276l-144 289q-53 -4 -78 -4l-196 2v-287zM377 887v-387q141 0 226 5t140.5 56t55.5 136t-63.5 134.5t-145.5 52.5t-213 3z" glyph-name="Racute.aalt" horiz-adv-x="1161"/><glyph d="M471 1292l-184 215l125 95l141 -175l137 172l131 -90l-184 -217h-166zM377 0h-240v1098l400 4q240 -2 370.5 -108.5t132.5 -288.5q0 -217 -159 -330l190 -375h-276l-144 289q-53 -4 -78 -4l-196 2v-287zM377 887v-387q141 0 226 5t140.5 56t55.5 136t-63.5 134.5 t-145.5 52.5t-213 3z" glyph-name="Rcaron.aalt" horiz-adv-x="1161"/><glyph d="M377 0h-240v1098l400 4q240 -2 370.5 -108.5t132.5 -288.5q0 -217 -159 -330l190 -375h-276l-144 289q-53 -4 -78 -4l-196 2v-287zM377 887v-387q141 0 226 5t140.5 56t55.5 136t-63.5 134.5t-145.5 52.5t-213 3zM582 -166q57 0 100 -45t43 -132t-72.5 -154.5 t-177.5 -71.5l8 82q76 14 90 88q-49 -10 -86.5 22.5t-37.5 85.5t38 89t95 36z" glyph-name="Rcommaaccent.aalt" horiz-adv-x="1161"/><glyph d="M584 1118q178 0 358 -80l-63 -200q-143 68 -287 67q-88 0 -146.5 -28.5t-58.5 -74.5q0 -76 108 -104q57 -15 146 -29q157 -26 273 -94.5t117 -241.5t-129 -264.5t-344 -92.5t-445 122l84 197q174 -104 366 -100q94 2 156.5 35.5t62.5 85t-23.5 68.5t-40 25.5t-46.5 15.5 q-61 15 -119 25q-215 39 -313.5 115t-98.5 206q1 130 67 207q120 140 376 140z" glyph-name="S.aalt" horiz-adv-x="1128"/><glyph d="M791 1567l-191 -320l-170 72l135 285zM584 1118q178 0 358 -80l-63 -200q-143 68 -287 67q-88 0 -146.5 -28.5t-58.5 -74.5q0 -76 108 -104q57 -15 146 -29q157 -26 273 -94.5t117 -241.5t-129 -264.5t-344 -92.5t-445 122l84 197q174 -104 366 -100q94 2 156.5 35.5 t62.5 85t-23.5 68.5t-40 25.5t-46.5 15.5q-61 15 -119 25q-215 39 -313.5 115t-98.5 206q1 130 67 207q120 140 376 140z" glyph-name="Sacute.aalt" horiz-adv-x="1128"/><glyph d="M643 1292h-166l-186 215l127 95l139 -175l139 172l131 -90zM584 1118q178 0 358 -80l-63 -200q-143 68 -287 67q-88 0 -146.5 -28.5t-58.5 -74.5q0 -76 108 -104q57 -15 146 -29q157 -26 273 -94.5t117 -241.5t-129 -264.5t-344 -92.5t-445 122l84 197q174 -104 366 -100 q94 2 156.5 35.5t62.5 85t-23.5 68.5t-40 25.5t-46.5 15.5q-61 15 -119 25q-215 39 -313.5 115t-98.5 206q1 130 67 207q120 140 376 140z" glyph-name="Scaron.aalt" horiz-adv-x="1128"/><glyph d="M719.5 230.5q62.5 33.5 62.5 85t-23.5 68.5t-40 25.5t-46.5 15.5q-61 15 -119 25q-215 39 -313.5 115t-98.5 206q1 130 67 207q121 140 376 140q178 0 358 -80l-63 -200q-143 68 -287 67q-88 0 -146.5 -28.5t-58.5 -74.5q0 -76 108 -104q57 -15 146 -29 q157 -26 273 -94.5t116 -235.5t-111.5 -257t-291.5 -102l-121 -273l-148 51l131 222q-186 16 -376 118l84 197q174 -104 366 -100q94 2 156.5 35.5z" glyph-name="Scedilla.aalt" horiz-adv-x="1128"/><glyph d="M991 883h-362v-883h-238v883h-360v217h960v-217z" glyph-name="T.aalt" horiz-adv-x="1021"/><glyph d="M846 1229h-696v160h696v-160zM991 883h-362v-883h-238v883h-360v217h960v-217z" glyph-name="Tbar.aalt" horiz-adv-x="1021"/><glyph d="M580 1257h-166l-187 216l127 94l140 -176l139 174l131 -90zM991 883h-362v-883h-238v883h-360v217h960v-217z" glyph-name="Tcaron.aalt" horiz-adv-x="1021"/><glyph d="M991 1100v-217h-362v-883h-45l-131 -293l-148 51l144 242h-58v883h-360v217h960z" glyph-name="Tcommaaccent.aalt" horiz-adv-x="1021"/><glyph d="M1163 1100v-598q0 -248 -148.5 -392.5t-368.5 -144.5t-373.5 140.5t-153.5 390.5v604h241v-617q0 -133 77 -216t203 -83t204 83t78 218v615h241z" glyph-name="U.aalt" horiz-adv-x="1282"/><glyph d="M868 1567l-190 -320l-170 72l135 285zM1163 1100v-598q0 -248 -148.5 -392.5t-368.5 -144.5t-373.5 140.5t-153.5 390.5v604h241v-617q0 -133 77 -216t203 -83t204 83t78 218v615h241z" glyph-name="Uacute.aalt" horiz-adv-x="1282"/><glyph d="M786 1237l-141 215l-147 -217l-125 82l186 246h170l184 -246zM1163 1100v-598q0 -248 -148.5 -392.5t-368.5 -144.5t-373.5 140.5t-153.5 390.5v604h241v-617q0 -133 77 -216t203 -83t204 83t78 218v615h241z" glyph-name="Ucircumflex.aalt" horiz-adv-x="1282"/><glyph d="M485 1495q45 0 78 -30.5t33 -76.5t-34 -78t-77 -32t-75.5 32t-32.5 78t31.5 76.5t76.5 30.5zM803 1495q45 0 76.5 -30.5t31.5 -76.5t-32.5 -78t-75.5 -32t-76 32t-33 78t32 76.5t77 30.5zM1163 1100v-598q0 -248 -148.5 -392.5t-368.5 -144.5t-373.5 140.5t-153.5 390.5 v604h241v-617q0 -133 77 -216t203 -83t204 83t78 218v615h241z" glyph-name="Udieresis.aalt" horiz-adv-x="1282"/><glyph d="M834 1319l-170 -72l-191 320l225 37zM1163 1100v-598q0 -248 -148.5 -392.5t-368.5 -144.5t-373.5 140.5t-153.5 390.5v604h241v-617q0 -133 77 -216t203 -83t204 83t78 218v615h241z" glyph-name="Ugrave.aalt" horiz-adv-x="1282"/><glyph d="M684 1567l-190 -320l-170 72l135 285zM1051 1567l-193 -320l-170 72l135 285zM1163 1100v-598q0 -248 -148.5 -392.5t-368.5 -144.5t-373.5 140.5t-153.5 390.5v604h241v-617q0 -133 77 -216t203 -83t204 83t78 218v615h241z" glyph-name="Uhungarumlaut.aalt" horiz-adv-x="1282"/><glyph d="M987 1266h-696v159h696v-159zM1163 1100v-598q0 -248 -148.5 -392.5t-368.5 -144.5t-373.5 140.5t-153.5 390.5v604h241v-617q0 -133 77 -216t203 -83t204 83t78 218v615h241z" glyph-name="Umacron.aalt" horiz-adv-x="1282"/><glyph d="M602 -172q0 76 60 139h-21q-217 0 -369.5 139.5t-152.5 389.5v604h241v-617q0 -133 76 -216t203 -83t205 83t78 218v615h241v-598q0 -182 -84 -310.5t-225 -185.5q-117 -59 -121 -145q-2 -45 32.5 -71t98.5 -22t131 52l52 -80q-106 -86 -210 -88t-169.5 49t-65.5 127z " glyph-name="Uogonek.aalt" horiz-adv-x="1282"/><glyph d="M638 1681q112 0 187.5 -68.5t75.5 -176.5t-74.5 -174t-187.5 -66t-187.5 65.5t-74.5 175.5t74.5 177t186.5 67zM638 1569q-54 0 -94 -38t-40 -92t40 -91t95 -37t94 36.5t39 90.5t-40 92.5t-94 38.5zM1163 1100v-598q0 -248 -148.5 -392.5t-368.5 -144.5t-373.5 140.5 t-153.5 390.5v604h241v-617q0 -133 77 -216t203 -83t204 83t78 218v615h241z" glyph-name="Uring.aalt" horiz-adv-x="1282"/><glyph d="M762 0h-262l-506 1098h258l377 -838l368 838h256z" glyph-name="V.c2sc" horiz-adv-x="1247"/><glyph d="M1323 0h-229l-248 731l-234 -731h-231l-356 1098h241l234 -787l248 787h194l258 -787l223 787h240z" glyph-name="W.c2sc" horiz-adv-x="1689"/><glyph d="M1094 1567l-191 -320l-170 72l135 285zM1323 0h-229l-248 731l-234 -731h-231l-356 1098h241l234 -787l248 787h194l258 -787l223 787h240z" glyph-name="Wacute.c2sc" horiz-adv-x="1689"/><glyph d="M1014 1237l-144 215l-145 -217l-125 82l184 246h170l185 -246zM1323 0h-229l-248 731l-234 -731h-231l-356 1098h241l234 -787l248 787h194l258 -787l223 787h240z" glyph-name="Wcircumflex.c2sc" horiz-adv-x="1689"/><glyph d="M713 1495q45 0 76.5 -30.5t31.5 -76.5t-32.5 -78t-75.5 -32t-76 32t-33 78t32 76.5t77 30.5zM1028 1495q45 0 78 -30.5t33 -76.5t-34 -78t-77 -32t-75.5 32t-32.5 78t31.5 76.5t76.5 30.5zM1323 0h-229l-248 731l-234 -731h-231l-356 1098h241l234 -787l248 787h194 l258 -787l223 787h240z" glyph-name="Wdieresis.c2sc" horiz-adv-x="1689"/><glyph d="M1061 1319l-170 -72l-191 320l226 37zM1323 0h-229l-248 731l-234 -731h-231l-356 1098h241l234 -787l248 787h194l258 -787l223 787h240z" glyph-name="Wgrave.c2sc" horiz-adv-x="1689"/><glyph d="M616 383l-280 -383h-287l408 561l-387 537h286l260 -359l275 359h285l-396 -539l406 -559h-287z" glyph-name="X.c2sc" horiz-adv-x="1230"/><glyph d="M774 0h-262l-2 418l-467 680h289l313 -463l313 463h289l-473 -688v-410z" glyph-name="Y.c2sc" horiz-adv-x="1288"/><glyph d="M834 1567l-191 -320l-170 72l135 285zM774 0h-262l-2 418l-467 680h289l313 -463l313 463h289l-473 -688v-410z" glyph-name="Yacute.c2sc" horiz-adv-x="1288"/><glyph d="M754 1237l-144 215l-145 -217l-125 82l184 246h170l185 -246zM774 0h-262l-2 418l-467 680h289l313 -463l313 463h289l-473 -688v-410z" glyph-name="Ycircumflex.c2sc" horiz-adv-x="1288"/><glyph d="M453 1495q45 0 76.5 -30.5t31.5 -76.5t-32.5 -78t-75.5 -32t-76 32t-33 78t32 76.5t77 30.5zM768 1495q45 0 78 -30.5t33 -76.5t-34 -78t-77 -32t-76 32t-33 78t32 76.5t77 30.5zM774 0h-262l-2 418l-467 680h289l313 -463l313 463h289l-473 -688v-410z" glyph-name="Ydieresis.c2sc" horiz-adv-x="1288"/><glyph d="M801 1319l-170 -72l-191 320l226 37zM774 0h-262l-2 418l-467 680h289l313 -463l313 463h289l-473 -688v-410z" glyph-name="Ygrave.c2sc" horiz-adv-x="1288"/><glyph d="M1026 217v-217h-948v199l635 686h-602v215h911v-207l-619 -676h623z" glyph-name="Z.aalt" horiz-adv-x="1107"/><glyph d="M780 1567l-190 -320l-170 72l135 285zM1026 217v-217h-948v199l635 686h-602v215h911v-207l-619 -676h623z" glyph-name="Zacute.aalt" horiz-adv-x="1107"/><glyph d="M633 1292h-166l-186 215l127 95l139 -175l139 172l131 -90zM1026 217v-217h-948v199l635 686h-602v215h911v-207l-619 -676h623z" glyph-name="Zcaron.aalt" horiz-adv-x="1107"/><glyph d="M582 1495q45 0 76.5 -30.5t31.5 -76.5t-32.5 -78t-75.5 -32t-76 32t-33 78t32 76.5t77 30.5zM1026 217v-217h-948v199l635 686h-602v215h911v-207l-619 -676h623z" glyph-name="Zdotaccent.aalt" horiz-adv-x="1107"/><glyph d="M885 217h-541l-106 -246l-218 92l476 1037h237l477 -1039l-215 -94zM791 434l-179 406l-174 -406h353z" glyph-name="A.c2sc.salt" horiz-adv-x="1230"/><glyph d="M375 0h-238v1100h238v-533l510 559l166 -147l-351 -379l412 -491l-176 -148l-389 469l-172 -192v-238z" glyph-name="K.c2sc.salt" horiz-adv-x="1134"/><glyph d="M1276 562q0 -240 -137 -400l125 -139l-168 -146l-135 148q-129 -61 -283 -62q-258 0 -430 162t-172 419t173 416.5t427 159.5t427 -159t173 -399zM678 180q160 0 257 102.5t97 261.5t-100.5 259t-256 100t-256 -100.5t-100.5 -260t99.5 -261t259.5 -101.5z" glyph-name="q.aalt.aalt" horiz-adv-x="1386"/><glyph d="M377 0h-240v1098l406 4q227 -2 361 -108.5t132 -288.5q0 -217 -186 -340l180 -293l-207 -127l-200 342l-45 -2l-201 2v-287zM377 887v-385q133 -4 212 1t141.5 56t61.5 137t-64.5 135.5t-138.5 52.5t-212 3z" glyph-name="r.aalt.aalt" horiz-adv-x="1144"/><glyph d="M1196 1034l-477 -1034h-225l-486 1034l215 90l381 -852l377 852z" glyph-name="V.c2sc.salt" horiz-adv-x="1204"/><glyph d="M1692 1061l-334 -1061h-230l-258 707l-247 -707h-224l-358 1057l215 65l258 -782l266 760h178l279 -760l244 788z" glyph-name="W.c2sc.salt" horiz-adv-x="1734"/><glyph d="M1028 -51l-395 444l-397 -444l-173 160l412 462l-369 414l170 156l355 -396l356 396l170 -156l-369 -416l412 -460z" glyph-name="X.c2sc.salt" horiz-adv-x="1263"/><glyph d="M727 0h-244l-2 449l-430 528l182 147l375 -467l383 476l178 -150l-442 -547v-436z" glyph-name="Y.c2sc.salt" horiz-adv-x="1214"/><glyph d="M102 1192v242h1055v-215l-706 -1256l-226 135l639 1094h-762z" glyph-name="seven.aalt" horiz-adv-x="1277"/><glyph d="M381 2h-143v604l-66 -53l-68 106l146 103h131v-760z" glyph-name="one.dnom" horiz-adv-x="620"/><glyph d="M435 764q101 0 180 -65.5t79 -177.5t-116 -208l-224 -184h359v-127h-598v88l329 285q100 82 101 151q0 47 -35 79t-88 32t-95 -38t-57 -101l-137 39q29 106 115 166.5t187 60.5z" glyph-name="two.dnom" horiz-adv-x="864"/><glyph d="M384 758q124 0 204 -57.5t79 -155.5t-108 -156q59 -18 98 -68.5t39 -111.5q0 -104 -89 -164.5t-231 -60.5t-280 98l58 104q111 -80 233 -80q76 0 123 31t47 81t-43 82t-108 32h-130v106h125q55 0 92 30t37 72t-38.5 70.5t-120.5 28.5t-181 -64l-51 105q121 78 245 78z " glyph-name="three.dnom" horiz-adv-x="825"/><glyph d="M616 270h109v-112h-109v-158h-141v158h-409v98l393 508h157v-494zM477 268v324l-260 -324h260z" glyph-name="four.dnom" horiz-adv-x="817"/><glyph d="M381 672h-143v604l-66 -53l-68 106l146 103h131v-760z" glyph-name="one.numr" horiz-adv-x="620"/><glyph d="M435 1415q101 0 180 -65.5t79 -177.5t-116 -207l-224 -185h359v-127h-598v88l329 285q100 82 101 152q0 47 -35 78.5t-88 31.5t-95 -38t-57 -101l-137 39q29 106 115 166.5t187 60.5z" glyph-name="two.numr" horiz-adv-x="864"/><glyph d="M384 1442q124 0 204 -57.5t79 -155.5t-108 -156q59 -18 98 -68.5t39 -111.5q0 -104 -89 -164.5t-231 -60.5t-280 98l58 104q111 -80 233 -79q76 0 123 30.5t47 80.5t-43 82t-108 32h-130v106h125q55 0 92 30t37 72t-38.5 70.5t-120.5 28.5t-181 -63l-51 104 q121 78 245 78z" glyph-name="three.numr" horiz-adv-x="825"/><glyph d="M616 940h109v-113h-109v-157h-141v157h-409v99l393 508h157v-494zM477 938v324l-260 -324h260z" glyph-name="four.numr" horiz-adv-x="817"/><glyph d="M666 920l-383 -355l383 -352l-101 -117l-491 420v96l491 424zM1190 920l-383 -355l383 -352l-100 -117l-492 420v96l492 424z" glyph-name="guillemotleft.aalt" horiz-adv-x="1255"/><glyph d="M637 612v-96l-492 -420l-100 117l383 352l-383 355l100 116zM1161 612v-96l-491 -420l-101 117l383 352l-383 355l101 116z" glyph-name="guillemotright.aalt" horiz-adv-x="1304"/><glyph d="M666 920l-383 -355l383 -352l-101 -117l-491 420v96l491 424z" glyph-name="guilsinglleft.aalt" horiz-adv-x="731"/><glyph d="M637 612v-96l-492 -420l-100 117l383 352l-383 355l100 116z" glyph-name="guilsinglright.aalt" horiz-adv-x="780"/><glyph d="M350 268v-176q0 -119 -60.5 -183.5t-166.5 -74.5v64q39 6 63.5 33.5t24.5 58.5q0 53 -57 53h-56v225h252zM686 268v-176q0 -119 -60.5 -183.5t-166.5 -74.5v64q39 6 62.5 33.5t23.5 58.5q0 53 -58 53h-53v225h252z" glyph-name="quotedblbase.aalt" horiz-adv-x="786"/><glyph d="M6 958v177q0 117 61.5 182t168.5 76v-66q-39 -6 -64 -32.5t-25 -57.5q0 -53 58 -53h53v-226h-252zM342 958v177q0 117 60.5 182t166.5 76v-66q-39 -6 -62.5 -32.5t-23.5 -57.5q0 -53 58 -53h53v-226h-252z" glyph-name="quotedblleft.aalt" horiz-adv-x="634"/><glyph d="M293 1479v-179q0 -117 -60.5 -182t-166.5 -74v64q39 6 62.5 33.5t23.5 58.5q0 51 -58 51h-53v228h252zM629 1479v-179q0 -117 -61.5 -182t-168.5 -74v64q39 6 63.5 33.5t24.5 58.5q0 51 -57 51h-53v228h252z" glyph-name="quotedblright.aalt" horiz-adv-x="634"/><glyph d="M6 1069v178q0 117 61.5 182.5t168.5 73.5v-63q-39 -6 -64 -34t-25 -58q0 -51 58 -52h53v-227h-252z" glyph-name="quoteleft.aalt" horiz-adv-x="299"/><glyph d="M309 1479v-179q0 -117 -61.5 -182t-167.5 -74v64q39 6 63.5 33.5t24.5 58.5q0 51 -57 51h-54v228h252z" glyph-name="quoteright.aalt" horiz-adv-x="364"/><glyph d="M350 227v-178q0 -117 -60.5 -182.5t-166.5 -75.5v66q39 6 63.5 32.5t24.5 57.5q0 53 -57 53h-56v227h252z" glyph-name="quotesinglbase.aalt" horiz-adv-x="450"/><glyph d="M307 -236l-192 60l512 1751l194 -59z" glyph-name="slash.aalt" horiz-adv-x="933"/><glyph d="M348 227v-178q0 -117 -60.5 -182.5t-166.5 -75.5v66q39 6 62.5 32.5t23.5 57.5q0 53 -57 53h-54v227h252z" glyph-name="comma.aalt" horiz-adv-x="444"/><glyph d="M434 379h-198l-25 1057h254zM446 0h-237v225h237v-225z" glyph-name="exclam.aalt" horiz-adv-x="673"/><glyph d="M227 1262h238v-226h-238v226zM240 883h198l25 -1059h-254z" glyph-name="exclamdown.aalt" horiz-adv-x="673"/><glyph d="M336 0h-240v225h240v-225z" glyph-name="period.aalt" horiz-adv-x="432"/><glyph d="M1096 1071q0 -86 -31 -151.5t-78 -102.5t-101.5 -78t-100.5 -79.5t-77.5 -110.5t-31.5 -166l-238 -2q0 145 43 251.5t104.5 162t122 96.5t103.5 84t43 98q0 84 -71.5 131t-174.5 37q-180 -20 -266 -227l-199 98q57 150 174 240t267 104q203 18 357.5 -88t154.5 -297z M676 0h-240v225h240v-225z" glyph-name="question.aalt" horiz-adv-x="1329"/><glyph d="M518 1307h238v-224h-238v224zM96 236q0 86 31 151.5t78 102t101 78.5t100.5 81t78 110.5t31.5 166.5l240 2q0 -145 -43 -252t-104.5 -163t-123 -97t-104.5 -84t-43 -99q0 -84 72.5 -130t175.5 -35q180 18 264 225l199 -98q-57 -150 -174 -240.5t-267 -104.5 q-203 -18 -357.5 88.5t-154.5 297.5z" glyph-name="questiondown.aalt" horiz-adv-x="1243"/><glyph d="M823 -201h-209v174q-272 20 -505 158l88 201q254 -145 489 -144q154 2 245 61.5t91 156.5q0 58 -21.5 81t-36 36.5t-44 26.5t-66 27.5t-228.5 53.5t-331 131t-142 276t128 289t333 125v168h209v-172q160 -18 340 -100l-71 -209q-197 100 -392 100q-133 0 -218 -50 t-83 -140q0 -57 45 -92.5t138.5 -64t210.5 -52.5q115 -29 192.5 -58.5t181 -103t104.5 -259.5q1 -187 -123 -300t-325 -139v-181z" glyph-name="dollar.aalt" horiz-adv-x="1378"/><glyph d="M562 -53q-202 0 -335 98t-133 264q0 125 72 200t194 128q-86 92 -86 209t95.5 200.5t226.5 82.5t221 -87t90 -192t-52 -164.5t-146 -103.5l168 -166q25 72 24 159h238q0 -186 -84 -335l243 -242l-301 2l-77 78q-156 -131 -358 -131zM692 842q0 37 -25.5 63.5t-66.5 26.5 t-68.5 -24.5t-29.5 -71.5t67 -115q123 53 123 121zM564 164q106 0 194 76l-258 258q-78 -35 -120 -75.5t-44 -106.5t60 -109t168 -43z" glyph-name="ampersand.c2sc" horiz-adv-x="1257"/><glyph d="M686 -80q-227 0 -392 122t-165 335q0 181 116.5 283.5t291.5 173.5l-21 22q-123 147 -123 288t122 247t291 105t280.5 -106.5t111.5 -245.5t-82 -221t-227 -147l319 -330q86 119 144 256l202 -102q-72 -180 -182 -321l191 -197l-160 -150l-182 189q-240 -201 -535 -201z M981 1135q0 70 -47 116.5t-125 46.5t-128 -44t-52 -111q-4 -97 100 -203l21 -20q113 47 172 96t59 119zM676 137q207 0 385 152l-383 399q-147 -61 -227 -129.5t-81 -180.5t85 -176.5t221 -64.5z" glyph-name="ampersand.salt" horiz-adv-x="1681"/><glyph d="M90 291q0 125 71.5 203.5t196.5 136.5l-8 10q-80 84 -80 202t96.5 202.5t227.5 84.5t221 -86t90 -191t-53 -166.5t-147 -111.5l190 -198q61 86 92 172l203 -105q-55 -131 -139 -231l127 -133l-160 -150l-125 133q-175 -123 -363 -123t-314 93.5t-126 257.5zM690 844 q0 39 -25.5 64.5t-67.5 25.5t-70.5 -23.5t-28.5 -62.5q-3 -57 69 -129q123 59 123 125zM332 299q-4 -143 194 -143q98 0 211 73l-237 252q-80 -39 -123 -81t-45 -101z" glyph-name="ampersand.c2sc.salt" horiz-adv-x="1257"/><glyph d="M1530 633h-156v-119q0 -238 -181 -385t-447 -147t-439.5 111.5t-173.5 299.5q0 139 97.5 235.5t234.5 125.5q-117 31 -192.5 117.5t-75.5 201.5q0 164 144 272.5t363 108.5t465 -141l-92 -195q-184 117 -364 117q-131 0 -204 -57.5t-73 -137.5t81 -134t202 -54h246v-217 h-260q-139 0 -232.5 -61.5t-93.5 -152.5t104.5 -154.5t258.5 -63.5t272.5 91t118.5 249v309h397v-219z" glyph-name="ampersand.ss02" horiz-adv-x="1597"/><glyph d="M887 -203h-215v187q-219 16 -379 123.5t-160 285.5q0 135 98.5 233.5t233.5 127.5q-117 31 -192.5 122t-75.5 207q0 154 137 256.5t338 114.5v180h215v-196q164 -33 317 -125l-92 -195q-176 117 -379 117q-129 0 -213 -56.5t-84 -141.5t80 -135t203 -50h242v-217h-256 q-139 0 -232.5 -62.5t-93.5 -155.5t105.5 -154.5t254.5 -61.5q246 0 432 172l127 -178q-176 -164 -411 -201v-197z" glyph-name="ampersand.ss03" horiz-adv-x="1425"/><glyph d="M1544 -20q-276 0 -389 215q-172 -213 -475 -213q-221 0 -384 114.5t-163 302.5q0 137 92 239.5t240 133.5q-121 33 -194.5 116t-73.5 199q0 164 142.5 265.5t378.5 101.5t492 -158h133v-444h285v-207h-285v-248q-2 -100 58.5 -158.5t154.5 -62.5t187 68l76 -176 q-135 -88 -275 -88zM719 852h387v252q-199 131 -393 131q-131 0 -204 -57.5t-74 -139.5t80 -134t204 -52zM718 203q148 0 266 98t118 250v92h-422q-135 0 -218 -62.5t-83 -157.5t95.5 -157.5t243.5 -62.5z" glyph-name="ampersand.ss04" horiz-adv-x="1851"/><glyph d="M2128 1077l-57 -12l-25 -250q-8 -31 -39 -37q-102 -18 -178 25l-6 -37q-4 -27 -31 -31q-125 -25 -194.5 29.5t-51.5 173.5l39 350l-516 -96l8 80l594 114l-51 -454q-6 -66 23.5 -95.5t107.5 -25.5l47 420l76 12l-27 -311q-6 -45 26 -62.5t101 -15.5l25 238q8 39 41 43 l98 18zM1395 999l75 2q-16 -76 -75.5 -126t-145.5 -66l-176 -43q-23 -2 -39 16q-55 -41 -110 -49l-119 -24q-18 -4 -32.5 10t-12.5 29l4 61l-70 -39l-18 -203q-6 -35 -37 -39l-381 -73h-12l41 329q8 63 -35 75.5t-115 -19.5l-33 -265l-77 -14l69 535l78 12l-24 -184 q55 16 98.5 32.5t58.5 73.5l19 109l77 14l-20 -127q-23 -82 -68 -108q57 -20 45 -130l-26 -241l266 51l12 129l-96 -55q-55 -29 -68 -30t-25.5 8t-10.5 28l30 336l82 16l-26 -278l123 65l24 236l78 12l-21 -203l70 41l14 184l11 117q0 27 34 39l144 25q18 4 31.5 -8.5 t9.5 -30.5l-29 -279q0 -27 -31 -37l-112 -59l-6 -55q100 18 100 22q59 29 78.5 45.5t27.5 51.5l15 186q8 35 37 41l192 35q18 4 31.5 -8.5t11.5 -30.5l-22 -146q-2 -27 -29 -34l-160 -48l-6 -61l129 33q123 24 152 114zM850 944l63 37l23 205l-64 -12zM1126 989l111 37 l12 72l-114 -23zM2140 881l215 39l-10 -80l-213 -41zM2673 836l32 6q27 8 40.5 -9.5t11.5 -48.5l-31 -311l-76 -14l29 301l-41 -6l-72 -15l-33 -303l-75 -14l26 303l-76 -16l-2 -21l-10 -78l-16 -174q-8 -33 -35 -35l-197 -36q-16 -4 -28.5 10t-10.5 28l25 293q0 41 39 45 l414 80zM1835 682l197 37q18 2 31.5 -9.5t11.5 -31.5l-11 -64l-82 -14l7 33l-111 -21l-10 -75l145 12q18 2 28.5 -10.5t10.5 -28.5l-14 -133q0 -35 -37 -39l-334 -64l-37 -6l27 301l-111 -20l-18 -152v-2q-14 -74 -73.5 -122t-147.5 -66l-164 -29q-16 -4 -28.5 7.5 t-10.5 27.5l24 303q2 29 37 39l193 37q18 2 31.5 -10.5t11.5 -30.5l-23 -143q-4 -29 -28 -37l-162 -49l-4 -60l116 21q133 27 152 120l21 209l210 39q29 4 42.5 -11t9.5 -46l-21 -232l248 46l8 63l-147 -12q-18 -2 -28.5 10t-6.5 29l10 145q6 29 37 39zM2331 694l-121 -22 l-21 -223l121 22zM1022 633l-16 -141q61 -43 53 -134l-19 -165v-3q-4 -33 -34 -36l-297 -58l18 226l-57 -27l-33 74l98 41l19 221l227 41q18 2 29.5 -9.5t11.5 -29.5zM879 477l22 8l29 13l12 90l-115 -21l-10 -118zM1198 401l109 35l12 70l-115 -21zM969 223l14 135 q4 27 -12.5 41.5t-38.5 14.5l-123 -56l-16 -168zM1090 92l852 164l-13 -82l-850 -164z" glyph-name="glyph560" horiz-adv-x="2781"/></font>
</defs>
</svg>
